<svg enable-background="new 0 0 1080 1080" viewBox="0 0 1080 1080" xmlns="http://www.w3.org/2000/svg" xmlns:xlink="http://www.w3.org/1999/xlink"><clipPath id="a"><path d="m41.7 360.2c0-46.6 0-69.9 9.1-87.7 8-15.7 20.7-28.4 36.4-36.4 17.8-9.1 41.1-9.1 87.7-9.1h735.1c46.6 0 69.9 0 87.7 9.1 15.7 8 28.4 20.7 36.4 36.4 9.1 17.8 9.1 41.1 9.1 87.7v380c0 46.6 0 69.9-9.1 87.7-8 15.7-20.7 28.4-36.4 36.4-17.8 9.1-41.1 9.1-87.7 9.1h-735.2c-46.6 0-69.9 0-87.7-9.1-15.7-8-28.4-20.7-36.4-36.4-9.1-17.8-9.1-41.1-9.1-87.7v-380z"/></clipPath><clipPath id="b"><path d="m41.7 174.7h1001.4v751h-1001.4z"/></clipPath><clipPath id="c"><path d="m874 228.4c71.5 5.4 122.3 61.3 146.4 129.7 27.1 76.9 40.5 170-23 220.3-68.7 54.4-164.3 34.9-236-15.2-79-55.1-151.7-141.7-120.8-233.7 30.3-89.6 140.2-108.1 233.4-101.1z"/></clipPath><clipPath id="d"><path d="m490.8 329.7h546.2v543.7h-546.2z"/></clipPath><clipPath id="e"><path d="m356.1 329.7h815.5v543.7h-815.5z"/></clipPath><g clip-path="url(#a)"><g clip-path="url(#b)" opacity=".73"><image height="3000" overflow="visible" transform="matrix(.2503 0 0 .2503 41.6909 174.7161)" width="4000" xlink:href="ABA0D7C5.png"/></g></g><g clip-path="url(#c)" opacity=".2704"><image height="1715" overflow="visible" transform="matrix(.24 0 0 .24 609.6 221.28)" width="1881" xlink:href="ABA0D7C7.jpg"/></g><path d="m628 515.6c0 3.8-1.4 6.7-4.3 8.8s-6.9 3.1-12 3.1c-1.5 0-3.3-.2-5.6-.5-2.2-.3-4-.7-5.4-1.1v-9.7c4.1 1.8 7.5 2.7 10.3 2.7 2.7 0 4.1-.7 4.1-2.1 0-.6-.3-1.1-.9-1.4-.6-.4-2.3-1-4.9-1.9-2.9-.9-5.1-2.2-6.4-3.7s-2-3.5-2-6c0-3.4 1.4-6.2 4.1-8.2 2.8-2 6.6-3 11.6-3 2.9 0 6 .4 9.2 1.3v9.3c-1.4-.6-2.9-1.1-4.5-1.5s-3-.6-4.1-.6c-.9 0-1.6.2-2.2.5-.5.3-.8.7-.8 1.3s.3 1.1.9 1.5 1.8.9 3.5 1.4c3.4 1 5.8 2.3 7.3 3.8 1.4 1.6 2.1 3.6 2.1 6zm-43.3-8.9c0-3.8-1.4-5.8-4.1-5.8-1.1 0-2.1.5-2.9 1.6-.8 1-1.2 2.4-1.4 4.2zm-8.3 7.3c.2 1.4 1.1 2.6 2.5 3.4s3.3 1.2 5.6 1.2c3.2 0 6.3-.6 9.2-1.9v8.8c-3.4 1.3-7.4 2-12.2 2-5.8 0-10.3-1.5-13.6-4.5-3.2-3-4.8-7.1-4.8-12.3 0-3.6.7-6.7 2.1-9.5 1.4-2.7 3.5-4.9 6.3-6.4 2.8-1.6 5.9-2.3 9.2-2.3 3.4 0 6.4.7 8.8 2s4.3 3.2 5.6 5.7c1.3 2.4 1.9 5.3 1.9 8.5v5.2h-20.6zm-16.6 11.7c-.9.5-2.3.9-4.2 1.3-1.9.3-4.1.5-6.6.5-3.5 0-6.7-.7-9.4-2.1-2.8-1.4-4.9-3.4-6.4-6s-2.3-5.4-2.3-8.6c0-3.8.8-7.1 2.4-9.8s3.9-4.8 6.9-6.2c3-1.5 6.5-2.2 10.4-2.2 2.2 0 4.1.1 5.8.4s2.8.6 3.3 1v10.8c-.7-.5-1.7-1-3-1.4s-2.5-.6-3.6-.6c-2.7 0-4.8.7-6.2 2s-2.1 3.1-2.1 5.4.7 4.1 2 5.4c1.4 1.3 3.3 1.9 5.7 1.9 2.6 0 5-.6 7.1-1.9v10.1zm-47.2 1v-33.3h13.8v33.3zm14.7-42.3c0 2-.7 3.5-2.1 4.7s-3.3 1.8-5.6 1.8-4.1-.6-5.6-1.9c-1.4-1.3-2.1-2.8-2.1-4.7s.7-3.4 2.1-4.6 3.3-1.8 5.6-1.8 4.2.6 5.6 1.8c1.4 1.3 2.1 2.8 2.1 4.7zm-28.7 42.3h-16.4l-11.2-33.3h14.4l4.1 18.2c.7 2.9 1 5.1 1.1 6.6h.2c0-.4.1-.9.2-1.3.1-.5 1.7-8.3 4.8-23.4h14.4zm-27.5-21.4c-.5-.2-1.2-.5-2.1-.7s-1.6-.3-2.2-.3c-4.6 0-6.9 2.6-6.9 7.9v14.4h-13.8v-33.3h13.9v5.9h.1c.8-2.1 2-3.7 3.6-4.8s3.4-1.7 5.5-1.7c.8 0 1.4.1 2 .4v12.2zm-41.2 1.4c0-3.8-1.4-5.8-4.1-5.8-1.1 0-2.1.5-2.9 1.6-.8 1-1.2 2.4-1.4 4.2zm-8.3 7.3c.2 1.4 1.1 2.6 2.5 3.4s3.3 1.2 5.6 1.2c3.2 0 6.3-.6 9.2-1.9v8.8c-3.4 1.3-7.4 2-12.2 2-5.8 0-10.3-1.5-13.6-4.5-3.2-3-4.8-7.1-4.8-12.3 0-3.6.7-6.7 2.1-9.5 1.4-2.7 3.5-4.9 6.3-6.4 2.8-1.6 5.9-2.3 9.2-2.3 3.4 0 6.4.7 8.8 2s4.3 3.2 5.6 5.7c1.3 2.4 1.9 5.3 1.9 8.5v5.2h-20.6zm-15.6-1.4c0 3.1-.8 5.8-2.5 8.1-1.6 2.3-4 4-7 5.1s-6.6 1.7-10.8 1.7c-4.9 0-9.3-.8-13.4-2.5v-12.8c2 1.4 4.1 2.6 6.5 3.5s4.6 1.3 6.6 1.3c1.5 0 2.7-.3 3.6-.8.8-.6 1.3-1.4 1.3-2.4 0-.8-.2-1.4-.7-2-.4-.6-1.1-1.1-1.9-1.6s-2.4-1.2-4.7-2c-7.5-2.9-11.2-7.5-11.2-14 0-4.5 1.7-8.1 5.1-10.8s8-4.1 13.8-4.1c1.6 0 3.1.1 4.5.2s2.6.3 3.7.5 2.7.6 4.7 1.1v11.9c-3.9-2.1-7.8-3.2-11.6-3.2-1.6 0-2.8.3-3.8.9s-1.4 1.4-1.4 2.4.4 1.8 1.1 2.4c.8.6 2.4 1.5 4.8 2.5 4.8 2 8.2 4.1 10.2 6.4 2.1 2.2 3.1 5 3.1 8.2zm-71.1 14.1v-49.3h13.8v49.3zm-26.2-11.3c0 .9.3 1.7.8 2.2.6.6 1.4.9 2.5.9 1.5 0 2.6-.5 3.5-1.6s1.4-2.5 1.4-4.2v-1.3l-4.7.7c-2.4.4-3.5 1.5-3.5 3.3zm8.2 11.3v-5.1h-.1c-2.2 3.9-5.6 5.9-10.1 5.9-3.1 0-5.6-.9-7.4-2.8s-2.7-4.4-2.7-7.5c0-6.5 4-10.3 12.1-11.4l8.3-1.1c0-1.1-.5-2-1.5-2.7s-2.3-1-3.9-1c-3.7 0-7.7 1.1-11.8 3.2v-9c1.8-.8 4.1-1.4 6.8-1.9s5-.7 7-.7c5.7 0 9.8 1.2 12.3 3.6 2.6 2.4 3.8 6.4 3.8 12.1v18.4zm-38.2 0v-33.3h13.8v33.3zm14.6-42.3c0 2-.7 3.5-2.1 4.7s-3.3 1.8-5.6 1.8-4.1-.6-5.6-1.9c-1.4-1.3-2.1-2.8-2.1-4.7s.7-3.4 2.1-4.6 3.3-1.8 5.6-1.8 4.2.6 5.6 1.8c1.4 1.3 2.1 2.8 2.1 4.7zm-19.3 41.3c-.9.5-2.3.9-4.2 1.3-1.9.3-4.1.5-6.6.5-3.5 0-6.7-.7-9.4-2.1-2.8-1.4-4.9-3.4-6.4-6s-2.3-5.4-2.3-8.6c0-3.8.8-7.1 2.4-9.8s3.9-4.8 6.9-6.2c3-1.5 6.5-2.2 10.4-2.2 2.2 0 4.1.1 5.8.4s2.8.6 3.3 1v10.8c-.7-.5-1.7-1-3-1.4s-2.5-.6-3.6-.6c-2.7 0-4.8.7-6.2 2s-2.1 3.1-2.1 5.4.7 4.1 2 5.4c1.4 1.3 3.3 1.9 5.7 1.9 2.6 0 5-.6 7.1-1.9v10.1zm-46.9-16.7c0-2-.4-3.5-1.3-4.6s-2-1.7-3.5-1.7-2.7.7-3.7 2.1c-.9 1.4-1.4 3.2-1.4 5.5 0 4.7 1.6 7.1 4.9 7.1 1.5 0 2.8-.6 3.7-1.9s1.4-3.1 1.4-5.6v-.9zm-.3 17.7v-3.9h-.1c-1.1 1.5-2.5 2.6-4.3 3.4s-3.5 1.2-5.3 1.2c-2.8 0-5.3-.7-7.5-2.1s-3.8-3.4-4.9-5.9-1.6-5.5-1.6-8.9c0-3.5.6-6.7 1.9-9.4s3.1-4.9 5.4-6.4 4.9-2.3 7.8-2.3c1.4 0 2.6.2 3.8.6s2.2.9 3 1.6c.9.7 1.4 1.3 1.7 2h.1v-19.3h13.8v49.3h-13.8zm-38.4-20c0-3.8-1.4-5.8-4.1-5.8-1.1 0-2.1.5-2.9 1.6-.8 1-1.2 2.4-1.4 4.2zm-8.3 7.3c.2 1.4 1.1 2.6 2.5 3.4s3.3 1.2 5.6 1.2c3.2 0 6.3-.6 9.2-1.9v8.8c-3.4 1.3-7.4 2-12.2 2-5.8 0-10.3-1.5-13.6-4.5-3.2-3-4.8-7.1-4.8-12.3 0-3.6.7-6.7 2.1-9.5 1.4-2.7 3.5-4.9 6.3-6.4 2.8-1.6 5.9-2.3 9.2-2.3 3.4 0 6.4.7 8.8 2s4.3 3.2 5.6 5.7c1.3 2.4 1.9 5.3 1.9 8.5v5.2h-20.6zm-31.2 12.7v-19.2c0-1.6-.3-2.8-.9-3.6s-1.5-1.2-2.8-1.2-2.3.5-3 1.5-1.1 2.3-1.1 4v18.5h-13.8v-18.9c0-3.4-1.2-5.1-3.5-5.1-1.4 0-2.5.5-3.2 1.5s-1.1 2.4-1.1 4.2v18.2h-13.8v-33.3h13.8v5.3h.1c.5-.9 1.3-1.9 2.5-2.8 1.1-1 2.4-1.8 3.9-2.3 1.4-.6 3-.9 4.6-.9 2.4 0 4.3.5 5.9 1.4s3 2.4 4.1 4.4c1.2-1.9 2.7-3.3 4.7-4.3s4.1-1.5 6.5-1.5c3.5 0 6.2 1.1 8 3.4s2.8 5.6 2.8 9.8v20.8h-13.7zm343.3-78.2c-.6.3-1.7.6-3.1.8-1.4.3-3.2.4-5.2.4-3.9 0-6.9-1.1-9.1-3.2s-3.3-5.1-3.3-9.1v-12.3h-5.2v-9.6h5.2v-6.5l13.7-3.8v10.3h6.9v9.6h-6.9v10c0 2.9 1.2 4.4 3.5 4.4 1.1 0 2.2-.2 3.4-.7v9.7zm-27.7-10.5c0 3.8-1.4 6.7-4.3 8.8s-6.9 3.1-12 3.1c-1.5 0-3.3-.2-5.6-.5-2.2-.3-4-.7-5.4-1.1v-9.7c4.1 1.8 7.5 2.7 10.3 2.7 2.7 0 4.1-.7 4.1-2.1 0-.6-.3-1.1-.9-1.4-.6-.4-2.3-1-4.9-1.9-2.9-.9-5.1-2.2-6.4-3.7s-2-3.5-2-6c0-3.4 1.4-6.2 4.1-8.2 2.8-2 6.6-3 11.6-3 2.9 0 6 .4 9.2 1.3v9.3c-1.4-.6-2.9-1.1-4.5-1.5s-3-.6-4.1-.6c-.9 0-1.6.2-2.2.5s-.8.7-.8 1.3.3 1.1.9 1.5 1.8.9 3.5 1.4c3.4 1 5.8 2.3 7.3 3.8s2.1 3.5 2.1 6zm-43.3-9c0-3.8-1.4-5.8-4.1-5.8-1.1 0-2.1.5-2.9 1.6-.8 1-1.2 2.4-1.4 4.2zm-8.3 7.3c.2 1.4 1.1 2.6 2.5 3.4s3.3 1.2 5.6 1.2c3.2 0 6.3-.6 9.2-1.9v8.8c-3.4 1.3-7.4 2-12.2 2-5.8 0-10.3-1.5-13.6-4.5-3.2-3-4.8-7.1-4.8-12.3 0-3.6.7-6.7 2.1-9.5 1.4-2.7 3.5-4.9 6.3-6.4 2.8-1.6 5.9-2.3 9.2-2.3 3.4 0 6.4.7 8.8 2s4.3 3.2 5.6 5.7c1.3 2.4 1.9 5.3 1.9 8.5v5.2h-20.6zm-31-1.7c0-1.3-.5-2.4-1.5-3.3s-2.3-1.3-3.9-1.3h-5.5v9.5h4.7c1.9 0 3.4-.4 4.5-1.3 1.2-.8 1.7-2 1.7-3.6zm-1.4-18.5c0-2.9-2.3-4.3-6.8-4.3h-2.6v8.8h4.1c1.6 0 2.8-.4 3.8-1.2 1-.9 1.5-2 1.5-3.3zm16.4 18.6c0 4.6-1.6 8.1-4.8 10.6s-7.8 3.7-13.8 3.7h-21.3v-46.6h19.8c12.4 0 18.6 3.8 18.6 11.3 0 1.6-.4 3.1-1.2 4.5-.8 1.3-2 2.5-3.6 3.5s-3.3 1.7-5.2 2.1v.1c2.2.3 4.2.9 5.9 2 1.8 1 3.1 2.4 4.1 3.9 1 1.6 1.5 3.2 1.5 4.9zm-75.1-5.7c0-3.8-1.4-5.8-4.1-5.8-1.1 0-2.1.5-2.9 1.6-.8 1-1.2 2.4-1.4 4.2zm-8.3 7.3c.2 1.4 1.1 2.6 2.5 3.4s3.3 1.2 5.6 1.2c3.2 0 6.3-.6 9.2-1.9v8.8c-3.4 1.3-7.4 2-12.2 2-5.8 0-10.3-1.5-13.6-4.5-3.2-3-4.8-7.1-4.8-12.3 0-3.6.7-6.7 2.1-9.5 1.4-2.7 3.5-4.9 6.3-6.4 2.8-1.6 5.9-2.3 9.2-2.3 3.4 0 6.4.7 8.8 2s4.3 3.2 5.6 5.7c1.3 2.4 1.9 5.3 1.9 8.5v5.2h-20.6zm-30.7 12.7v-19c0-3.3-1.3-5-3.8-5-1.2 0-2.2.5-2.8 1.4-.7.9-1 2.1-1 3.6v19h-13.8v-49.3h13.8v20.5h.1c1.2-1.7 2.6-3 4.3-3.9s3.5-1.4 5.5-1.4c3.6 0 6.3 1.2 8.2 3.5s2.8 5.7 2.8 10.2v20.4zm-25-.5c-.6.3-1.7.6-3.1.8-1.4.3-3.2.4-5.2.4-3.9 0-6.9-1.1-9.1-3.2s-3.3-5.1-3.3-9.1v-12.3h-5.1v-9.6h5.2v-6.5l13.7-3.8v10.3h6.9v9.6h-6.9v10c0 2.9 1.2 4.4 3.5 4.4 1.1 0 2.2-.2 3.4-.7zm-44.6 0c-.6.3-1.7.6-3.1.8-1.4.3-3.2.4-5.2.4-3.9 0-6.9-1.1-9.1-3.2s-3.3-5.1-3.3-9.1v-12.3h-5.2v-9.6h5.2v-6.5l13.7-3.8v10.3h6.9v9.6h-6.9v10c0 2.9 1.2 4.4 3.5 4.4 1.1 0 2.2-.2 3.4-.7v9.7zm-39.6-19.5c0-3.8-1.4-5.8-4.1-5.8-1.1 0-2.1.5-2.9 1.6-.8 1-1.2 2.4-1.4 4.2zm-8.4 7.3c.2 1.4 1.1 2.6 2.5 3.4s3.3 1.2 5.6 1.2c3.2 0 6.3-.6 9.2-1.9v8.8c-3.4 1.3-7.4 2-12.2 2-5.8 0-10.3-1.5-13.6-4.5-3.2-3-4.8-7.1-4.8-12.3 0-3.6.7-6.7 2.1-9.5 1.4-2.7 3.5-4.9 6.3-6.4 2.8-1.6 5.9-2.3 9.2-2.3 3.4 0 6.4.7 8.8 2s4.3 3.2 5.6 5.7c1.3 2.4 1.9 5.3 1.9 8.5v5.2h-20.6zm-17.4 9.6c-1.8 1-4.4 1.9-7.9 2.7s-6.8 1.2-10 1.2c-8.2 0-14.5-2-18.9-6.1s-6.7-9.8-6.7-17.2c0-4.9 1.1-9.3 3.3-13.2 2.3-3.8 5.4-6.8 9.5-8.7 4.1-2 8.9-3 14.4-3 4.1 0 8.4.6 13 1.7v12.3c-2.1-1-4.2-1.6-6.2-2s-4.1-.6-6.5-.6c-3.9 0-6.9 1.2-9.2 3.5s-3.4 5.5-3.4 9.6c0 3.9 1 6.9 2.9 9.1s4.6 3.3 8.1 3.3c1.6 0 2.8-.1 3.5-.3v-6.7h-8.9v-10.6h23z" fill="#fff"/><path d="m561.7 693.3c-.6 0-1-.2-1.4-.6s-.6-.9-.6-1.4.2-1 .6-1.4.9-.6 1.4-.6c.6 0 1 .2 1.4.6s.6.9.6 1.4c0 .6-.2 1-.6 1.4s-.9.6-1.4.6zm-4.7-.7c-.5.2-1 .4-1.5.5s-1.1.2-1.7.2c-1.4 0-2.6-.4-3.4-1.3-.8-.8-1.2-2.1-1.2-3.7v-11h-3.1v-2.5h3.1v-4.4l2.9-.9v5.3h4.6v2.5h-4.6v10.7c0 1 .2 1.7.5 2.2.4.4.9.7 1.7.7.4 0 .7 0 1-.1s.6-.2.8-.3zm-25.7-1.2 1.5-2.1c.8.6 1.5 1 2.3 1.3s1.6.4 2.4.4c1.2 0 2.1-.2 2.8-.7.6-.5 1-1.2 1-2.1 0-.7-.3-1.4-.9-1.9s-1.4-.9-2.7-1.2c-2.3-.6-3.8-1.3-4.6-2.2s-1.3-2-1.3-3.2c0-1.5.6-2.7 1.7-3.7s2.7-1.5 4.6-1.5c1 0 1.9.1 2.8.4s1.8.7 2.6 1.4l-1.4 2.1c-.8-.5-1.5-.9-2.1-1.1s-1.3-.3-2-.3c-1.1 0-2 .2-2.6.7-.6.4-.9 1.1-.9 1.8 0 .8.3 1.4.9 1.8s1.6.8 3 1.1c1.8.5 3.2 1.2 4.1 2.1s1.4 2 1.4 3.5c0 1.7-.6 3-1.8 4s-2.8 1.4-4.8 1.4c-1.2 0-2.3-.2-3.3-.5-.9-.4-1.8-.9-2.7-1.5zm-11.7-.5c1.9 0 3.3-.6 4.3-1.8s1.5-2.9 1.5-5.2c0-2.2-.5-4-1.5-5.2s-2.4-1.8-4.3-1.8-3.3.6-4.4 1.9-1.6 3-1.6 5.2c0 2.1.5 3.8 1.6 5.1 1.1 1.2 2.6 1.8 4.4 1.8zm-.2 2.5c-2.7 0-4.8-.8-6.4-2.5s-2.4-3.9-2.4-6.7c0-3 .8-5.4 2.5-7.1s3.9-2.6 6.7-2.6c2.7 0 4.8.8 6.3 2.5s2.3 4 2.3 6.9-.8 5.2-2.4 6.9c-1.7 1.7-3.9 2.6-6.6 2.6zm-11.6-1.7c-.8.6-1.7 1-2.6 1.3s-1.8.4-2.8.4c-2.6 0-4.7-.8-6.3-2.4s-2.4-3.8-2.4-6.7.8-5.3 2.5-7.1c1.6-1.8 3.9-2.7 6.7-2.7 1 0 1.9.1 2.8.4.9.2 1.7.7 2.6 1.2l-1.3 2.1c-.7-.4-1.3-.7-2-.9-.6-.2-1.4-.3-2.1-.3-2 0-3.5.7-4.5 2-1.1 1.3-1.6 3-1.6 5.1 0 2.2.6 3.9 1.7 5.1s2.6 1.8 4.3 1.8c.6 0 1.2-.1 1.8-.3s1.3-.5 1.9-.9zm-26.3-14.3c-.2-.1-.4-.1-.6-.2s-.4-.1-.7-.1c-1.5 0-2.6.6-3.5 1.9-.8 1.2-1.3 2.8-1.3 4.7v9.2h-2.9v-18h2.9v3.5h.1c.4-1.2 1-2.2 1.9-2.9.8-.7 1.8-1 2.9-1 .4 0 .7 0 1 .1.3 0 .5.1.7.2zm-16.2 4.8c0-1.7-.4-2.9-1.2-3.9-.8-.9-1.9-1.4-3.3-1.4s-2.6.5-3.5 1.4c-1 1-1.5 2.2-1.7 3.8h9.7zm3 2.4h-12.8c0 2.1.6 3.6 1.6 4.7s2.5 1.6 4.3 1.6c.8 0 1.7-.1 2.5-.4s1.6-.7 2.4-1.3l1.4 2c-1 .7-2 1.3-3 1.6-1 .4-2.2.5-3.5.5-2.7 0-4.8-.8-6.3-2.4s-2.3-3.9-2.3-6.8.8-5.2 2.3-7 3.6-2.7 6-2.7 4.2.8 5.5 2.3 2 3.6 2 6.4v1.5zm-20 8.3h-2.9v-10.4c0-1.9-.4-3.3-1.1-4.2s-1.7-1.4-3.1-1.4-2.6.5-3.6 1.6-1.4 2.5-1.4 4.2v10.2h-2.9v-26.7h2.9v11.6h.1c.7-1.1 1.5-2 2.5-2.5 1-.6 2.1-.8 3.4-.8 2 0 3.6.6 4.6 1.8s1.5 3.1 1.5 5.5zm-18.6-.3c-.5.2-1 .4-1.5.5s-1.1.2-1.7.2c-1.4 0-2.6-.4-3.4-1.3-.8-.8-1.2-2.1-1.2-3.7v-11h-3.1v-2.5h3.1v-4.4l2.9-.9v5.3h4.6v2.5h-4.6v10.7c0 1 .2 1.7.5 2.2.4.4.9.7 1.7.7.4 0 .7 0 1-.1s.6-.2.8-.3zm-12.3-15.2c-.2-.1-.4-.1-.6-.2-.2 0-.4-.1-.7-.1-1.5 0-2.6.6-3.5 1.9-.8 1.2-1.3 2.8-1.3 4.7v9.2h-2.9v-18h2.9v3.5h.1c.4-1.2 1-2.2 1.9-2.9.8-.7 1.8-1 2.9-1 .4 0 .7 0 1 .1.3 0 .5.1.7.2zm-14.8 15.5h-2.9v-2.8h-.1c-.6 1.1-1.4 1.9-2.3 2.4s-2 .8-3.3.8c-2.1 0-3.8-.6-4.8-1.9-1.1-1.3-1.6-3.2-1.6-5.8v-10.8h2.9v10.4c0 1.9.4 3.3 1.1 4.3.7.9 1.8 1.4 3.3 1.4 1.4 0 2.6-.5 3.5-1.6.9-1 1.4-2.4 1.4-4.1v-10.4h2.9v18.1zm-17.2-24.3c-.3-.1-.6-.2-.9-.2-.3-.1-.6-.1-.9-.1-1 0-1.7.3-2.2.8s-.7 1.3-.7 2.3v3.5h4.2v2.5h-4.2v15.6h-2.9v-15.6h-3.1v-2.5h3.1v-3.6c0-1.7.5-3 1.6-4 1-1 2.5-1.4 4.3-1.4.5 0 .9 0 1.3.1s.8.2 1.2.3zm-31.8 24c-.5.2-1 .4-1.5.5s-1.1.2-1.7.2c-1.4 0-2.6-.4-3.4-1.3-.8-.8-1.2-2.1-1.2-3.7v-11h-3.1v-2.5h3.1v-4.4l2.9-.9v5.3h4.6v2.5h-4.6v10.7c0 1 .2 1.7.5 2.2.4.4.9.7 1.7.7.4 0 .7 0 1-.1s.6-.2.8-.3zm-14.5.3h-2.9v-2.8h-.1c-.6 1.1-1.4 1.9-2.3 2.4s-2 .8-3.3.8c-2.1 0-3.8-.6-4.8-1.9-1.1-1.3-1.6-3.2-1.6-5.8v-10.8h2.9v10.4c0 1.9.4 3.3 1.1 4.3.7.9 1.8 1.4 3.3 1.4 1.4 0 2.6-.5 3.5-1.6.9-1 1.4-2.4 1.4-4.1v-10.4h2.9v18.1zm-27.9-2c1.9 0 3.3-.6 4.3-1.8s1.5-2.9 1.5-5.2c0-2.2-.5-4-1.5-5.2s-2.4-1.8-4.3-1.8-3.3.6-4.4 1.9-1.6 3-1.6 5.2c0 2.1.5 3.8 1.6 5.1 1.1 1.2 2.6 1.8 4.4 1.8zm-.2 2.5c-2.7 0-4.8-.8-6.4-2.5s-2.4-3.9-2.4-6.7c0-3 .8-5.4 2.5-7.1s3.9-2.6 6.7-2.6c2.7 0 4.8.8 6.3 2.5s2.3 4 2.3 6.9-.8 5.2-2.4 6.9c-1.7 1.7-3.9 2.6-6.6 2.6zm-13-.5h-2.9v-10.4c0-1.9-.4-3.3-1.1-4.2s-1.7-1.4-3.1-1.4-2.6.5-3.6 1.6-1.4 2.5-1.4 4.2v10.2h-2.9v-26.7h2.9v11.6h.1c.7-1.1 1.5-2 2.5-2.5 1-.6 2.1-.8 3.4-.8 2 0 3.6.6 4.6 1.8s1.5 3.1 1.5 5.5zm-18.6-.3c-.5.2-1 .4-1.5.5s-1.1.2-1.7.2c-1.4 0-2.6-.4-3.4-1.3-.8-.8-1.2-2.1-1.2-3.7v-11h-3.1v-2.5h3.1v-4.4l2.9-.9v5.3h4.6v2.5h-4.6v10.7c0 1 .2 1.7.5 2.2.4.4.9.7 1.7.7.4 0 .7 0 1-.1s.6-.2.8-.3zm-14.5.3h-2.9v-18h2.9zm-1.4-22.3c-.6 0-1.1-.2-1.5-.6s-.6-.9-.6-1.5.2-1.1.6-1.4c.4-.4.9-.6 1.5-.6s1.1.2 1.5.6.6.9.6 1.4-.2 1.1-.6 1.5-.9.6-1.5.6zm-4.8 4.3-5.4 18h-3l-3.7-12.9c-.1-.3-.2-.6-.2-.8s0-.5-.1-.8h-.1c0 .3-.1.6-.1.8s-.1.5-.2.8l-4 12.9h-2.9l-5.5-18h3l3.7 13.5c.1.2.1.4.1.7s.1.6.1.9h.1c0-.3.1-.5.1-.8s.1-.5.2-.8l4.2-13.5h2.7l3.7 13.6c.1.2.1.4.1.7s.1.5.1.9h.1c0-.2 0-.5.1-.7.1-.3.1-.5.2-.8l3.7-13.6h3zm-49.5 16.5 1.5-2.1c.8.6 1.5 1 2.3 1.3s1.6.4 2.4.4c1.2 0 2.1-.2 2.8-.7.6-.5 1-1.2 1-2.1 0-.7-.3-1.4-.9-1.9s-1.4-.9-2.7-1.2c-2.3-.6-3.8-1.3-4.6-2.2s-1.3-2-1.3-3.2c0-1.5.6-2.7 1.7-3.7s2.7-1.5 4.6-1.5c1 0 1.9.1 2.8.4s1.8.7 2.6 1.4l-1.4 2.1c-.8-.5-1.5-.9-2.1-1.1s-1.3-.3-2-.3c-1.1 0-2 .2-2.6.7-.6.4-.9 1.1-.9 1.8 0 .8.3 1.4.9 1.8s1.6.8 3 1.1c1.8.5 3.2 1.2 4.1 2.1s1.4 2 1.4 3.5c0 1.7-.6 3-1.8 4s-2.8 1.4-4.8 1.4c-1.2 0-2.3-.2-3.3-.5-.9-.4-1.8-.9-2.7-1.5zm-5.7-9.2c0-1.7-.4-2.9-1.2-3.9-.8-.9-1.9-1.4-3.3-1.4s-2.6.5-3.5 1.4c-1 1-1.5 2.2-1.7 3.8h9.7zm3 2.4h-12.8c0 2.1.6 3.6 1.6 4.7s2.5 1.6 4.3 1.6c.8 0 1.7-.1 2.5-.4s1.6-.7 2.4-1.3l1.4 2c-1 .7-2 1.3-3 1.6-1 .4-2.2.5-3.5.5-2.7 0-4.8-.8-6.3-2.4s-2.3-3.9-2.3-6.8.8-5.2 2.3-7 3.6-2.7 6-2.7 4.2.8 5.5 2.3 2 3.6 2 6.4v1.5zm-18.5 7.1c-.8.6-1.7 1-2.6 1.3s-1.8.4-2.8.4c-2.6 0-4.7-.8-6.3-2.4s-2.4-3.8-2.4-6.7.8-5.3 2.5-7.1c1.6-1.8 3.9-2.7 6.7-2.7 1 0 1.9.1 2.8.4.9.2 1.7.7 2.6 1.2l-1.3 2.1c-.7-.4-1.3-.7-2-.9-.6-.2-1.4-.3-2.1-.3-2 0-3.5.7-4.5 2-1.1 1.3-1.6 3-1.6 5.1 0 2.2.6 3.9 1.7 5.1s2.6 1.8 4.3 1.8c.6 0 1.2-.1 1.8-.3s1.3-.5 1.9-.9zm-18.7 1.2h-2.9v-18h2.9zm-1.4-22.3c-.6 0-1.1-.2-1.5-.6s-.6-.9-.6-1.5.2-1.1.6-1.4c.4-.4.9-.6 1.5-.6s1.1.2 1.5.6.6.9.6 1.4-.2 1.1-.6 1.5-.9.6-1.5.6zm-4.6 4.3-7.2 18h-2.8l-6.8-18h3.2l4.6 13.1c.2.5.3.9.4 1.3s.2.8.2 1.1h.1c.1-.5.1-.9.2-1.3s.2-.8.3-1.1l4.8-13.2h3zm-17.9 2.5c-.2-.1-.4-.1-.6-.2s-.4-.1-.7-.1c-1.5 0-2.6.6-3.5 1.9-.8 1.2-1.3 2.8-1.3 4.7v9.2h-2.9v-18h2.9v3.5h.1c.4-1.2 1-2.2 1.9-2.9.8-.7 1.8-1 2.9-1 .4 0 .7 0 1 .1.3 0 .5.1.7.2zm-16.2 4.8c0-1.7-.4-2.9-1.2-3.9-.8-.9-1.9-1.4-3.3-1.4s-2.6.5-3.5 1.4c-1 1-1.5 2.2-1.7 3.8h9.7zm3 2.4h-12.8c0 2.1.6 3.6 1.6 4.7s2.5 1.6 4.3 1.6c.8 0 1.7-.1 2.5-.4s1.6-.7 2.4-1.3l1.4 2c-1 .7-2 1.3-3 1.6-1 .4-2.2.5-3.5.5-2.7 0-4.8-.8-6.3-2.4s-2.3-3.9-2.3-6.8.8-5.2 2.3-7 3.6-2.7 6-2.7 4.2.8 5.5 2.3 2 3.6 2 6.4v1.5zm-31.6 6.8 1.5-2.1c.8.6 1.5 1 2.3 1.3s1.6.4 2.4.4c1.2 0 2.1-.2 2.8-.7.6-.5 1-1.2 1-2.1 0-.7-.3-1.4-.9-1.9s-1.4-.9-2.7-1.2c-2.3-.6-3.8-1.3-4.6-2.2s-1.3-2-1.3-3.2c0-1.5.6-2.7 1.7-3.7s2.7-1.5 4.6-1.5c1 0 1.9.1 2.8.4s1.8.7 2.6 1.4l-1.4 2.1c-.8-.5-1.5-.9-2.1-1.1s-1.3-.3-2-.3c-1.1 0-2 .2-2.6.7s-.9 1.1-.9 1.8c0 .8.3 1.4.9 1.8s1.6.8 3 1.1c1.8.5 3.2 1.2 4.1 2.1s1.4 2 1.4 3.5c0 1.7-.6 3-1.8 4s-2.8 1.4-4.8 1.4c-1.2 0-2.3-.2-3.3-.5-.9-.4-1.8-.9-2.7-1.5zm512.5-53.9v-26.7h2.9v26.7zm-8.5-7.4v-1.7l-4.4.6c-1.3.2-2.3.5-2.9 1s-1 1.2-1 2.2c0 1.1.3 1.9.9 2.5s1.4.8 2.3.8c1.5 0 2.8-.5 3.7-1.5 1-1 1.4-2.3 1.4-3.9zm2.9 7.4h-2.9v-2.8h-.1c-.6 1.1-1.4 1.9-2.3 2.4s-2 .8-3.2.8c-1.7 0-3.1-.5-4.1-1.5s-1.6-2.3-1.6-3.9c0-1.5.5-2.8 1.6-3.8s2.6-1.7 4.5-1.9l5.1-.7v-.5c0-1.5-.4-2.6-1.1-3.2s-1.6-1-2.8-1c-1 0-1.9.2-2.7.6-.9.4-1.6.9-2.4 1.7l-1.8-1.7c1-1 2-1.8 3.2-2.2 1.2-.5 2.4-.7 3.9-.7 2.2 0 3.8.6 4.9 1.7s1.7 2.8 1.7 5v11.7zm-16.8-1.3c-.8.6-1.7 1-2.6 1.3s-1.8.4-2.8.4c-2.6 0-4.7-.8-6.3-2.4s-2.4-3.8-2.4-6.7.8-5.3 2.5-7.1c1.6-1.8 3.9-2.7 6.7-2.7 1 0 1.9.1 2.8.4.9.2 1.7.7 2.6 1.2l-1.3 2.1c-.7-.4-1.3-.7-2-.9-.6-.2-1.4-.3-2.1-.3-2 0-3.5.7-4.5 2-1.1 1.3-1.6 3-1.6 5.1 0 2.2.6 3.9 1.7 5.1s2.6 1.8 4.3 1.8c.6 0 1.2-.1 1.8-.3s1.3-.5 1.9-.9zm-18.6 1.3h-2.9v-18h2.9zm-1.4-22.4c-.6 0-1.1-.2-1.5-.6s-.6-.9-.6-1.5.2-1.1.6-1.4c.4-.4.9-.6 1.5-.6s1.1.2 1.5.6.6.9.6 1.4c0 .6-.2 1.1-.6 1.5-.5.4-.9.6-1.5.6zm-21 13.6c0 2.1.5 3.7 1.4 4.9 1 1.2 2.3 1.8 3.9 1.8s2.9-.6 3.9-1.7c1-1.2 1.5-2.6 1.5-4.4v-2.7c0-1.5-.5-2.7-1.5-3.7s-2.2-1.5-3.7-1.5c-1.8 0-3.1.6-4.2 1.9-.8 1.4-1.3 3.1-1.3 5.4zm10.7 5.7c-.7 1.2-1.5 2-2.6 2.6-1 .6-2.2.9-3.6.9-2.3 0-4.1-.8-5.5-2.4-1.3-1.6-2-3.8-2-6.6 0-3 .8-5.4 2.3-7.2s3.5-2.7 6-2.7c1.2 0 2.3.2 3.2.7s1.6 1.2 2.2 2.2h.1v-11.1h2.9v26.7h-2.9zm-19.8-7.7c0-1.7-.4-2.9-1.2-3.9-.8-.9-1.9-1.4-3.3-1.4s-2.6.5-3.5 1.4c-1 1-1.5 2.2-1.7 3.8h9.7zm3 2.4h-12.8c0 2.1.6 3.6 1.6 4.7s2.5 1.6 4.3 1.6c.8 0 1.7-.1 2.5-.4s1.6-.7 2.4-1.3l1.4 2c-1 .7-2 1.3-3 1.6-1 .4-2.2.5-3.5.5-2.7 0-4.8-.8-6.3-2.4s-2.3-3.9-2.3-6.8.8-5.2 2.3-7 3.6-2.7 6-2.7 4.2.8 5.5 2.3 2 3.6 2 6.4v1.5zm-20 8.4h-2.9v-10.4c0-2-.3-3.4-.9-4.3s-1.6-1.3-3.1-1.3c-1.2 0-2.3.6-3.2 1.7s-1.3 2.5-1.3 4v10.3h-2.9v-10.7c0-1.8-.3-3.1-1-4s-1.7-1.3-3.1-1.3c-1.3 0-2.3.5-3.1 1.6s-1.2 2.4-1.2 4.1v10.3h-2.9v-18h2.9v2.8h.1c.6-1.1 1.4-1.9 2.4-2.4.9-.5 2-.8 3.2-.8s2.3.3 3.2 1 1.5 1.6 1.9 2.7c.7-1.2 1.5-2.2 2.5-2.8s2.2-.9 3.5-.9c2 0 3.5.6 4.5 1.8s1.5 3.1 1.5 5.5v11.1zm-38.4-18.1-8.5 21.6c-.7 1.7-1.5 2.9-2.5 3.7s-2.2 1.2-3.5 1.2c-.4 0-.7 0-1-.1-.3 0-.6-.1-.9-.2l.6-2.4c.2.1.4.1.6.2.2 0 .4.1.6.1.8 0 1.4-.2 1.9-.6s.9-1 1.2-1.7l1.6-3.7-7-18h3.2l4.9 13.8c0 .1.1.3.1.5.1.2.2.5.2.9h.1c0-.2.1-.4.1-.6.1-.2.1-.5.2-.8l5.1-13.8h3zm-18.1 17.8c-.5.2-1 .4-1.5.5s-1.1.2-1.7.2c-1.4 0-2.6-.4-3.4-1.3-.8-.8-1.2-2.1-1.2-3.7v-11h-3.1v-2.5h3.1v-4.4l2.9-.9v5.3h4.6v2.5h-4.6v10.7c0 1 .2 1.7.5 2.2.4.4.9.7 1.7.7.4 0 .7 0 1-.1s.6-.2.8-.3zm-14.5.3h-2.9v-18h2.9zm-1.4-22.4c-.6 0-1.1-.2-1.5-.6s-.6-.9-.6-1.5.2-1.1.6-1.4c.4-.4.9-.6 1.5-.6s1.1.2 1.5.6.6.9.6 1.4c0 .6-.2 1.1-.6 1.5s-.9.6-1.5.6zm-10.1 22.4v-26.7h2.9v26.7zm-8.5-7.4v-1.7l-4.4.6c-1.3.2-2.3.5-2.9 1s-1 1.2-1 2.2c0 1.1.3 1.9.9 2.5s1.4.8 2.3.8c1.5 0 2.8-.5 3.7-1.5 1-1 1.4-2.3 1.4-3.9zm2.9 7.4h-2.9v-2.8h-.1c-.6 1.1-1.4 1.9-2.3 2.4s-2 .8-3.2.8c-1.7 0-3.1-.5-4.1-1.5s-1.6-2.3-1.6-3.9c0-1.5.5-2.8 1.6-3.8s2.6-1.7 4.5-1.9l5.1-.7v-.5c0-1.5-.4-2.6-1.1-3.2s-1.6-1-2.8-1c-1 0-1.9.2-2.7.6-.9.4-1.6.9-2.4 1.7l-1.8-1.7c1-1 2-1.8 3.2-2.2 1.2-.5 2.4-.7 3.9-.7 2.2 0 3.8.6 4.9 1.7s1.7 2.8 1.7 5v11.7zm-18.6 0h-2.9v-2.8c-.6 1.1-1.4 1.9-2.3 2.4s-2 .8-3.3.8c-2.1 0-3.8-.6-4.8-1.9-1.1-1.3-1.6-3.2-1.6-5.8v-10.8h2.9v10.4c0 1.9.4 3.3 1.1 4.3.7.9 1.8 1.4 3.3 1.4 1.4 0 2.6-.5 3.5-1.6.9-1 1.4-2.4 1.4-4.1v-10.4h2.9v18.1zm-22.7-8.2v-2.6c0-1.5-.5-2.7-1.5-3.8-1-1-2.2-1.5-3.7-1.5-1.7 0-3.1.6-4.1 1.9s-1.5 3.1-1.5 5.4c0 2.1.5 3.7 1.4 4.9 1 1.2 2.2 1.8 3.8 1.8 1.7 0 3.1-.6 4-1.7 1.1-1.1 1.6-2.6 1.6-4.4zm2.9 16.5h-2.9v-11.4h-.1c-.6 1.2-1.4 2-2.5 2.6-1 .6-2.2.9-3.7.9-2.3 0-4.1-.8-5.5-2.4s-2-3.8-2-6.6c0-3 .8-5.4 2.3-7.2s3.5-2.7 6.1-2.7c1.2 0 2.3.2 3.2.7s1.6 1.2 2.2 2.2h.1v-2.5h2.9v26.4zm-39.1-8.6c-.5.2-1 .4-1.5.5s-1.1.2-1.7.2c-1.4 0-2.6-.4-3.4-1.3-.8-.8-1.2-2.1-1.2-3.7v-11h-3.1v-2.5h3.1v-4.4l2.9-.9v5.3h4.6v2.5h-4.6v10.7c0 1 .2 1.7.5 2.2.4.4.9.7 1.7.7.4 0 .7 0 1-.1s.6-.2.8-.3zm-25.7-1.3 1.5-2.1c.8.6 1.5 1 2.3 1.3s1.6.4 2.4.4c1.2 0 2.1-.2 2.8-.7.6-.5 1-1.2 1-2.1 0-.7-.3-1.4-.9-1.9s-1.4-.9-2.7-1.2c-2.3-.6-3.8-1.3-4.6-2.2s-1.3-2-1.3-3.2c0-1.5.6-2.7 1.7-3.7s2.7-1.5 4.6-1.5c1 0 1.9.1 2.8.4s1.8.7 2.6 1.4l-1.4 2.1c-.8-.5-1.5-.9-2.1-1.1s-1.3-.3-2-.3c-1.1 0-2 .2-2.6.7s-.9 1.1-.9 1.8c0 .8.3 1.4.9 1.8s1.6.8 3 1.1c1.8.5 3.2 1.2 4.1 2.1s1.4 2 1.4 3.5c0 1.7-.6 3-1.8 4s-2.8 1.4-4.8 1.4c-1.2 0-2.3-.2-3.3-.5-.9-.4-1.9-.9-2.7-1.5zm-5.7-9.2c0-1.7-.4-2.9-1.2-3.9-.8-.9-1.9-1.4-3.3-1.4s-2.6.5-3.5 1.4c-1 1-1.5 2.2-1.7 3.8h9.7zm3 2.4h-12.8c0 2.1.6 3.6 1.6 4.7s2.5 1.6 4.3 1.6c.8 0 1.7-.1 2.5-.4s1.6-.7 2.4-1.3l1.4 2c-1 .7-2 1.3-3 1.6-1 .4-2.2.5-3.5.5-2.7 0-4.8-.8-6.3-2.4s-2.3-3.9-2.3-6.8.8-5.2 2.3-7 3.6-2.7 6-2.7 4.2.8 5.5 2.3 2 3.6 2 6.4v1.5zm-32.9-1.5v2.5c0 1.5.5 2.8 1.5 3.8s2.2 1.5 3.7 1.5c1.7 0 3.1-.7 4.1-2s1.5-3.2 1.5-5.6c0-2-.5-3.6-1.4-4.7-.9-1.2-2.2-1.7-3.8-1.7-1.7 0-3.1.6-4.1 1.8-.9 1.2-1.5 2.6-1.5 4.4zm.1 7.6-.1 2.3h-2.9v-26.7h2.9v11.8h.1c.7-1.2 1.6-2.1 2.6-2.7s2.2-.9 3.6-.9c2.3 0 4.2.8 5.5 2.4s2 3.8 2 6.5c0 3-.7 5.4-2.2 7.2s-3.5 2.7-6 2.7c-1.2 0-2.3-.2-3.2-.7-.9-.4-1.7-1-2.3-1.9zm-20-8.5c0-1.7-.4-2.9-1.2-3.9-.8-.9-1.9-1.4-3.3-1.4s-2.6.5-3.5 1.4c-1 1-1.5 2.2-1.7 3.8h9.7zm3 2.4h-12.8c0 2.1.6 3.6 1.6 4.7s2.5 1.6 4.3 1.6c.8 0 1.7-.1 2.5-.4s1.6-.7 2.4-1.3l1.4 2c-1 .7-2 1.3-3 1.6-1 .4-2.2.5-3.5.5-2.7 0-4.8-.8-6.3-2.4s-2.3-3.9-2.3-6.8.8-5.2 2.3-7 3.6-2.7 6-2.7 4.2.8 5.5 2.3 2 3.6 2 6.4v1.5zm-34.1-.4c0 2.1.5 3.7 1.4 4.9 1 1.2 2.3 1.8 3.9 1.8s2.9-.6 3.9-1.7c1-1.2 1.5-2.6 1.5-4.4v-2.7c0-1.5-.5-2.7-1.5-3.7s-2.2-1.5-3.7-1.5c-1.8 0-3.1.6-4.2 1.9-.8 1.4-1.3 3.1-1.3 5.4zm10.8 5.7c-.7 1.2-1.5 2-2.6 2.6-1 .6-2.2.9-3.6.9-2.3 0-4.1-.8-5.5-2.4-1.3-1.6-2-3.8-2-6.6 0-3 .8-5.4 2.3-7.2s3.5-2.7 6-2.7c1.2 0 2.3.2 3.2.7s1.6 1.2 2.2 2.2h.1v-11.1h2.9v26.7h-2.9zm-18.3 3.1h-2.9v-18h2.9zm-1.4-22.4c-.6 0-1.1-.2-1.5-.6s-.6-.9-.6-1.5.2-1.1.6-1.4c.4-.4.9-.6 1.5-.6s1.1.2 1.5.6.6.9.6 1.4c0 .6-.2 1.1-.6 1.5s-.9.6-1.5.6zm-4.6 4.3-7.2 18h-2.8l-6.8-18h3.2l4.6 13.1c.2.5.3.9.4 1.3s.2.8.2 1.1h.1c.1-.5.1-.9.2-1.3s.2-.8.3-1.1l4.8-13.2h3zm-27.6 16.1c1.9 0 3.3-.6 4.3-1.8s1.5-2.9 1.5-5.2c0-2.2-.5-4-1.5-5.2s-2.4-1.8-4.3-1.8-3.3.6-4.4 1.9-1.6 3-1.6 5.2c0 2.1.5 3.8 1.6 5.1 1.1 1.1 2.6 1.8 4.4 1.8zm-.2 2.4c-2.7 0-4.8-.8-6.4-2.5s-2.4-3.9-2.4-6.7c0-3 .8-5.4 2.5-7.1s3.9-2.6 6.7-2.6c2.7 0 4.8.8 6.3 2.5s2.3 4 2.3 6.9-.8 5.2-2.4 6.9-3.8 2.6-6.6 2.6zm-11.2-16c-.2-.1-.4-.1-.6-.2-.2 0-.4-.1-.7-.1-1.5 0-2.6.6-3.5 1.9-.8 1.2-1.3 2.8-1.3 4.7v9.2h-2.9v-18h2.9v3.5h.1c.4-1.2 1-2.2 1.9-2.9.8-.7 1.8-1 2.9-1 .4 0 .7 0 1 .1.3 0 .5.1.7.2zm-27.2 5.7v2.5c0 1.5.5 2.8 1.5 3.8s2.2 1.5 3.7 1.5c1.7 0 3.1-.7 4.1-2s1.5-3.2 1.5-5.5c0-2-.5-3.6-1.4-4.8-.9-1.1-2.2-1.7-3.8-1.7-1.7 0-3.1.6-4.1 1.8s-1.5 2.6-1.5 4.4zm0 7.3-.1 10.9h-2.9v-26.3h2.9v3.1h.1c.7-1.2 1.6-2.1 2.6-2.7s2.2-.9 3.6-.9c2.3 0 4.2.8 5.5 2.4s2 3.8 2 6.5c0 3-.7 5.4-2.2 7.2s-3.5 2.7-6 2.7c-1.2 0-2.2-.2-3.1-.7-1-.5-1.7-1.2-2.4-2.2zm-20-8.2c0-1.7-.4-2.9-1.2-3.9-.8-.9-1.9-1.4-3.3-1.4s-2.6.5-3.5 1.4c-1 1-1.5 2.2-1.7 3.8h9.7zm3 2.4h-12.8c0 2.1.6 3.6 1.6 4.7s2.5 1.6 4.3 1.6c.8 0 1.7-.1 2.5-.4s1.6-.7 2.4-1.3l1.4 2c-1 .7-2 1.3-3 1.6-1 .4-2.2.5-3.5.5-2.7 0-4.8-.8-6.3-2.4s-2.3-3.9-2.3-6.8.8-5.2 2.3-7 3.6-2.7 6-2.7 4.2.8 5.5 2.3 2 3.6 2 6.4v1.5zm-16.5-16.9-7.1 25.2h-3.4l-5.2-18.4c-.1-.4-.2-.8-.3-1.2s-.1-.8-.1-1.3h-.1c0 .4-.1.8-.2 1.3-.1.4-.2.8-.3 1.2l-5.2 18.5h-3.4l-7.4-25.2h3.3l5.4 19.3c.1.4.2.8.3 1.2s.1.8.2 1.3h.1c0-.3.1-.7.2-1.1s.2-.9.4-1.4l5.6-19.3h2.8l5.4 19.5c.1.3.2.7.2 1.1.1.4.1.8.2 1.2h.1c0-.3.1-.7.2-1 .1-.4.2-.8.3-1.3l5.2-19.4h2.8z" fill="#fff"/><g clip-path="url(#d)"><g clip-path="url(#e)"><image height="408" overflow="visible" transform="matrix(1.3325 0 0 1.3325 356.1467 329.7248)" width="612" xlink:href="ABA0D7C2.png"/></g></g></svg>