<svg enable-background="new 0 0 1920 1920" viewBox="0 0 1920 1920" xmlns="http://www.w3.org/2000/svg"><path d="m744.2 1094.4c-64.5-46.2-114.1-104.4-144.5-178.2-6.4-15.5-12.8-31.1-16-47.7-12.9-11.3-13.1-27.1-15.4-42.2-5.4-25.7-8.2-51.7-6.4-78-.2-21.8-2.1-43.6.8-65.3 3.2-13.7 1.4-27.8 2.9-41.7 1.6-14.5 2.8-29.1 4.2-43.6 3.4-14.7 1-30.3 6.6-44.6 5.7-19.9 8-40.7 14-60.6 5.8-13.7 7.6-28.7 13.5-42.4 5-7.4 7.6-16.1 13.2-23.1 6.7-5 14-3 21-1.5 46 9.6 92.3 18.3 138.4 27.4 88.6 13.4 177.2 26.6 266.7 33.5 54.2 4.1 108.2 2.2 162.4 2.6 27.6.2 55.1-3.9 82.3-8.9 25.5-4.7 29-2.3 35 23 3.4 19.7 7.6 39.2 10.8 59 4.1 18.2 5.7 36.9 9.7 55.2 3.3 14.9 3.4 30.3 7.1 45.1 3.1 28.8 8.4 57.3 7.5 86.4 2.4 26.2-1.6 51.8-6.6 77.3-3.2 15.9-1.3 33.4-14.9 45.9-27.6 90.6-79.2 164-156.3 219.1-10.8 15.2-29.1 19.9-43.3 30.4-5.4 2.7-10.7 5.6-16.1 8.2-107.1 46.4-214.3 46.4-321.4.1-7.6-3.8-15.1-7.9-22.7-11.8-10.2-8.5-24.5-11.8-32.5-23.6z" fill="#f6d0be"/><path d="m902.5 1741.1c-119.8.2-239.6.4-359.4.5-28.1 0-56.2-.3-84.3-.5-8-3.1-9.6-10.6-11.9-17.5-39-116.6-80.2-232.5-119.7-349-2.5-7.5-5.1-14.9-5.2-23 26.2-23.1 58.7-34.4 90.3-46.7 66.8-26 136.1-44.3 205.5-62.1 2.4-.1 4.8.7 5.5 3 5.6 19.3 5 39.1.7 58.3-2.4 10.7-14.6 11.2-23.6 13.7-41.7 11.6-73.9 34.8-93.4 74.4-10.4 21.1-16 43.2-16.1 66.7 1.3 38.9.3 77.9.5 116.8.3 49.2 15.4 64.7 64.6 65.5 2.8 0 5.6.1 8.4.5 7.9-.1 15.8.3 23.6-.5 5-.5 11.2-1.2 11.5-7.6.3-6.7-5.8-7.6-10.9-8.1-8.4-.9-16.9-.7-25.4-.4-6.2.9-12.4.8-18.6.4-24.9-1.5-37-13-37.4-38.3-.6-42.1-1.1-84.3.3-126.4 2.7-70.5 46-120.2 113.4-129.6 13.9-1.9 28.1-3.3 40.6 5.7 4.8 8.5-1.2 15.1-4.3 22-6.3 14.5-14.7 28-22.5 41.7-5 8.8-3.8 13.1 7.1 14.2 19.1 1.9 38.1 5 57 8 19.2 3 22 7.5 17.7 26.1-5.4 23.1-10.8 46.2-17.4 69-3.8 13.2-1 22.5 9.2 31.5 13.6 11.9 25.3 25.8 39 37.6 5.7 5 10.6 10.3 9.5 18.7-3.8 13.4-14.3 17.9-26.6 19-12.8 1.2-25.6 1.1-38.3.1-7.8 0-15.6-.4-23.4.4-5.5.5-12.3 1.1-12.1 8.6.2 6.2 6.4 7 11.4 7.6 7.2.8 14.5.2 21.7.6 6.8-.5 13.6-.8 20.3-.2 23.2 2.3 43.6-3.6 60.8-19.5 6.6-3.3 12-.6 16.9 3.6 37.5 32.9 73.8 67.1 109.2 102.1 3.7 3.4 7.7 7.1 5.8 13.1z" fill="#eff0f0"/><path d="m1461.5 1741.1c-118.1.2-236.2.4-354.3.5-29.8 0-59.6-.3-89.4-.5-1.8-8.2 4.4-12.4 9-16.9 48.2-46.6 97.2-92.3 146.6-137.6 15-13.7 28.7-28.7 43.6-42.4 7.5-6.9 6.9-14.6 4.7-23.2-6.2-24-12.3-48.1-18-72.2-4.4-18.6-1.6-22.9 17.7-25.9 17.8-2.7 35.7-5.2 53.6-7.7 15.8-2.2 16.7-3.3 8.8-17.9-21.6-39.6-42-79.8-63.8-119.2-8.4-15.3-16.1-31-24.1-46.6-4.1-7.9-4-14.2 6.9-15.8 43.2 5.3 84.7 17.6 126.3 29.7 9.1 5.9 10.4 15.5 12.5 24.9 5.7 25.6 4.1 51.7 3.8 77.6-.3 30.4 2 60.9-1.5 91.3-3.2 10.9-13.5 12.6-22 16.7-32.2 15.6-50.7 51.2-43.5 83.7 7.6 34.1 38.2 60.4 71.9 61.6 35.2 1.3 67.9-23.9 77-59.4 8.5-33-9.6-69.6-42.4-85.7-8.4-4.1-18.8-5.7-22.3-16.5-3.8-25.2-1.1-50.5-1.8-75.8-.9-29.7 2-59.6-3.1-89.2-.9-5.4-1.7-11.3 2.7-16 72 18.9 143.2 40.1 209.9 74 8.4 4.3 17.3 8 23.8 15.3 4.7 8.1 2.8 16.2.1 24.4-28.3 83.1-57.1 166.1-85.8 249.1-11.6 33.5-22.5 67.3-34.2 100.7-2.8 7.2-4.1 15.6-12.7 19z" fill="#eff0f0"/><path d="m1014.5 1741.1c-36.2 0-72.4 0-108.6 0-6.3-8.3-9.1-17.8-11-27.9-23.8-124.9-47.4-249.8-71.4-374.7-1.3-6.5-3.3-13.2.1-19.8 7.4-4.8 14.1-.7 20.7 2 77.1 30.6 154.3 30.6 231.4.1 6.7-2.6 13.3-6.6 20.8-2.5 3.7 6.5 1.7 13.2.4 19.8-24.2 125.5-47.8 251.2-71.8 376.7-1.8 9.6-4.8 18.4-10.6 26.3z" fill="#fdce97"/><path d="m322.1 1351.6c5.9 3.8 6.1 10.5 8.1 16.2 42 122.4 83.8 244.8 125.8 367.2.7 2.1 1.9 4.1 2.9 6.1-112.2 0-224.5 0-338 0 10.8-44.4 25.5-87.1 42.7-128.9 37.9-92.7 85.9-179.4 152.6-254.9 1.7-2.1 3.9-3.8 5.9-5.7z" fill="#e5e6e6"/><path d="m1461.5 1741.1c18.3-53.2 36.6-106.4 54.9-159.6 24-69.7 48.1-139.4 72.1-209.1 2.8-8 5.8-15.9 5.4-24.6 30.4 27.3 52.6 61.3 75 94.9 56.1 84.4 110.7 209.7 130.2 298.4-112.6 0-225.1 0-337.6 0z" fill="#e4e4e5"/><path d="m1014.5 1741.1c17.3-90.9 34.6-181.8 51.9-272.7 9.5-50.1 19-100.3 28.5-150.4-6-7.9-2.1-16.2-.6-24.3 2.3-12.7 4.7-25.4 7.5-38 1.6-5 3-10 3-15.3.6-5.9 2.5-11.5 3.3-17.3.8-5.7 2.6-11.2 3.4-16.8s2.6-11.1 3.4-16.7c1-5.8 2.6-11.4 5.6-16.5 1.1-1.4 2.4-2.4 4-3.1 15-3.3 27.3 4.2 38.9 11.4 15.4 9.6 28.9 22 37.8 38.4-9.6 2-2.5 6.3-1 9.2 29.9 56.8 60.1 113.4 90 170.2 9.2 17.5 8.1 18.6-11.5 20.8-20 2.2-39.9 5.4-59.9 7.9-11.1 1.4-14.4 6.2-11.3 17.6 7.6 27.6 13.7 55.6 21.2 83.3 1.9 7 1 10.6-4.4 15.7-50.1 47-99.2 95-149.6 141.5-19.4 17.9-39.3 35.3-56.8 55.2-1.2-.1-2.3-.1-3.4-.1z" fill="#e4e4e5"/><path d="m825.5 1318c21.9 114.6 43.7 229.2 65.6 343.8 5 26.4 9.9 52.9 14.8 79.3-1.1 0-2.2 0-3.3 0-37.7-41.6-81-77.4-121.8-115.7-1.5-1.4-4.1-1.5-6.2-2.2-.9-18.5 4.6-36.4 4.1-55-1-35.5-1-71 0-106.5 2.3-60.9-31-111.8-90.4-138.4-5.9-2.7-13.4-3.1-16.8-10 15.7-32.4 34.4-63.1 49.9-95.6 13.5-21.6 32.1-37 56-45.9 5.8-2.1 11.7-3.9 18-1.9 1.6.6 3 1.6 4.1 2.9 3.3 5 4.8 10.7 5.9 16.5.8 5.7 2.6 11.2 3.4 16.9.8 5.8 2.7 11.4 3.5 17.3 1 6.1 3.1 12 3.5 18.2 3 18.7 7.9 37 11 55.6 1.3 6.8 4 14.1-1.3 20.7z" fill="#e4e4e5"/><path d="m773.8 457.1c-48.6-9.3-97.3-18.5-145.9-28.1-4-.8-7.4-2.6-10.2 1.7-3.2 2.7-7.1 3.3-11.1 3.1-32-.9-63.9.3-95.9-.8-7-.2-16.6 1.8-18.4-9.6.3-6.5.6-13.1.9-19.6 7.5-3 15.4-3.1 23.3-3.1 287 0 574.1.1 861.1 0 6.8 0 13.5.3 20 2.3 6.1 15.5 6.7 31.7 6.6 48-6.1 6.7-14.3 6.1-22.1 6.1-189.5.2-379 .1-568.4.1-13.3 0-26.6-4.1-39.9-.1z" fill="#625759"/><path d="m1397.7 402.9c-4.7 5.8-11.4 4-17.3 4-289.7.1-579.4.1-869.1.1-6.2 0-12.4.2-18-3.3 3.2-11.3 6.5-22.7 9.7-34 6.8-6.5 15.5-6.2 23.9-6.2 207.5.3 415.1-.4 622.6.3 70.5.3 141 0 211.5-.4 10.2-.1 20.4-.2 29.2 6.3 4.4 10.6 7.2 21.6 7.5 33.2z" fill="#65595b"/><path d="m1346.9 274.7c7.4 9.1 13.4 18.9 16.8 30.1-.5 8.9-7.8 8.4-13.5 9.5-6.6 1.3-13.5.8-20.2.8-253.6 0-507.2 0-760.8 0-7.3 0-14.7.5-21.9-1-7.3-1.4-14.9-2.9-14.4-13.1 6.1-13.7 15.9-24.4 27.4-33.6 39.9 2 79.9 1.1 119.9 1.2h632.3c11.8-.1 23.7-.4 34.4 6.1z" fill="#6e6062"/><path d="m532.8 301c5.3 10.9 15.4 7.6 23.9 7.6 215.9.1 431.8.1 647.6.1 47.3 0 94.7.1 142-.1 6 0 12.6 1.9 17.4-3.9 6.5 9.2 11.6 19.1 13.7 30.3-.3 8.9-7.6 8.6-13.4 9.7-7.2 1.4-14.6.8-21.9.8-265 0-530 .1-795-.1-11.5 0-23.9 3-33.9-6.2 4-14 10-27 19.6-38.2z" fill="#6a5d5f"/><path d="m773.8 457.1c-.9-2.8-1.6-5.8 2.7-6 4.5-.2 9-.1 13.5-.1 204.7 0 409.5 0 614.2-.1 5.4 11 2.2 22.7 2.6 34.1-3.2 26-3.2 26.8-30.9 26-19.2-.6-39.2 5.3-57.4-5.6-7.3-23.5-7.2-23.1-33.2-18.6-67.5 11.7-135.7 11.2-203.7 7.8-103.4-5.2-206-18.5-307.8-37.5z" fill="#5e5456"/><path d="m621.2 176.2c7.6-10.5 16.8-19.4 27.1-27.1 11.7-2.1 23.5-2.5 35.3-2.5 161.7.1 323.4.1 485.1.1 19.7 0 39.4-.9 58.8 3.5 13.6 6.1 22.5 18.1 33.9 26.9-.9 8.8-8 10-14.6 11.5-6.1 1.4-12.3 1.1-18.5 1.1-191.1 0-382.2 0-573.2 0-6.8 0-13.6.3-20.2-1.3-6.5-1.7-13.6-3.1-13.7-12.2z" fill="#786869"/><path d="m672.1 1311.5c52.7 17.7 90.3 50.6 106.2 105.4 3.8 13 6.5 26.1 5.4 39.8-7.3 7.2-15.8 6.3-24.5 3.5-6.9-3.8-7.4-11-8.4-17.5-7.8-46.8-33.8-78.7-77.9-96-4.2-1.7-8.3-3.5-10.9-7.6-75-18.5-143.5 35.5-149.2 117.6-8.8 7.4-17.7 7.5-26.5 0-.7-70.4 49.6-131.9 119.6-145.3 12.1-2.3 17.6-6.5 15.7-19.3-2.5-16.3 4-33.3-3.6-49.2 5.2-6.6 4.5-15 5.8-22.5 11.9-69.3 52.9-110.2 120.5-126 12.5 4.7 23.2 12.4 34.1 19.7-3.5 9.7-12.3 8.4-19.9 9.3-58.9 7.4-101.4 52.9-104.8 112.3 1 12.3 1.2 24.7.3 36.9-1.4 16.9 1.4 30.9 18.1 38.9z" fill="#424143"/><path d="m621.2 176.2c5.6 7.1 13.4 7.2 21.5 7.2h598.6c7.5 0 14.7-.4 20.2-6.4 13 6 19.2 19.5 30.4 27.6-2 11.8-11.2 10.9-19.6 10.9-39.5.1-78.9.1-118.4.1-175.9 0-351.8.1-527.6-.2-9.7 0-22.8 4.5-25.3-11.9 5.8-9.8 10.9-20.1 20.2-27.3z" fill="#756667"/><path d="m577.2 254.1c2.4-4.4 4.9-8.7 7.3-13.1 5.3-5.6 12.2-5.1 19-5.1 233.5-.1 467 .2 700.5-.3 7.2 0 13.2 2.4 19.3 5.1 4.9 3.2 7.3 8.2 9.8 13.2 3.5 9.1-3.4 10.7-9.4 12.2-8.8 2.2-17.9 1.4-26.9 1.4-199 0-397.9-.1-596.9.1-34.4 0-68.8.4-103.1-.6-7.9-.2-21.2 3.3-19.6-12.9z" fill="#706263"/><path d="m1227.6 150.1c-5.4 4.5-11.9 2.7-17.9 2.7-180.8.1-361.5.1-542.3 0-6.5 0-13.7 2.4-19.1-3.7 12.3-11.8 26.1-21.2 41.2-29 156.4 1.3 312.8.6 469.2.2 7.1 0 14.5 3.4 21.6-.4 17.9 6.7 31.6 20 47.3 30.2z" fill="#7a696b"/><path d="m513.2 339.2c280.6 0 561.2 0 841.9-.1 7.5 0 15.9 3 22.4-4 4 5.2 6.8 10.9 6.2 17.7-3.3 7.4-10 8.4-16.9 9.2-6.2.6-12.4.5-18.6.5-267.8.1-535.6 0-803.3 0-7.3 0-14.7.4-21.9-1-6.8-1.3-13.6-3.1-13.4-12.3 1.1-3.4 2.3-6.7 3.6-10z" fill="#685b5d"/><path d="m729.3 101.1c36.3-17.6 75.5-25.2 114.9-31.1 74-10.9 148.1-14 221.5 5 25.5 6.6 51.6 11.9 73.9 27.2-2.8 11.2-12.2 8.1-19.3 8.1-41 .3-82.1.2-123.2.2-82.1 0-164.2.1-246.3-.2-8 .1-18.7 3.8-21.5-9.2z" fill="#7e6c6d"/><path d="m509.5 349.1c5.1 10 14.6 6.9 22.5 6.9 195.6.1 391.2.1 586.9.1h243.3c7.3 0 14.7.7 21.4-3.4 2.2 5.6 4.3 11.3 6.5 16.9-295.7 0-591.5 0-887.2 0-.3-7.5 2.3-14.3 6.6-20.5z" fill="#685b5d"/><path d="m1360.3 1258.5c4.6 16.9 6.3 34.2 6.3 51.7 0 44.5-.1 88.9-.1 133.4-9 7.2-17.9 7.2-26.9 0 0-44.6-.2-89.2-.1-133.8 0-17-2.5-33.6-6.3-50.2-1.3-5.6-4.1-8.8-8.1-11.9-19.2-48.7-50.5-86.2-99.2-107.9-22.5-10.1-45.8-15.6-70.3-16.6-7.1-.3-14.9 1.7-20.3-5.5 15-8.8 29.9-17.7 44.9-26.5 15.8 5.1 32 9.4 47.4 15.5 70 28 113.6 79.2 132.7 151.8z" fill="#424143"/><path d="m577.2 254.1c2.1 10.1 10.2 7.1 16.3 7.1 43.3.2 86.6.1 129.9.1 196.6 0 393.3 0 589.9-.2 6.9 0 16.6 4.6 19.7-7.2 7.6 4.9 7.3 15.1 13.8 20.7-256.8.1-513.6.1-770.4.1-6.2 0-14.3 2.8-16.2-7.4 4-6.5 10.3-10 17-13.2z" fill="#706263"/><path d="m567.2 749.2c-.9 26.2 1.5 52.1 6.7 77.8-30.4 3.8-60.8 4.4-91.3 0-18.7-29.3-28.7-60.5-20.7-95.6 6.9 10.6 17 12.9 28.9 12.2 21.1-1.2 42.5 1.9 63.5-2.4 7.1-1.9 9.9 3.2 12.9 8z" fill="#eeb8a4"/><path d="m1323.2 240.8c-246.2.1-492.5.1-738.7.2 0-6.5 2.6-11.9 6.5-16.9 9.4 2.1 19 1.7 28.6 1.7 124.9.1 249.9 0 374.8 0 99 .2 197.9-.2 296.9 0 6.1 0 12.4-1.1 18.4 1.4 4.9 4 10.4 7.6 13.5 13.6z" fill="#726365"/><path d="m601 203.5c3.6 7.8 10.7 7 17.5 7h656.9c6.2 0 12.7.8 16.5-5.9 7.1 3.2 10.1 10.3 14.7 15.8-5.5 6.8-13.3 5.1-20.4 5.3-37.2.7-74.5-1.2-111.7 1.1-33.3-2.6-66.7-.6-100-1.2-149.9-.1-299.8 0-449.7-.1-8.4 0-16.9.8-25.2-1.3-3.2-1.4-6-3.2-5.3-7.5.5-5.2 2.5-9.8 6.7-13.2z" fill="#736465"/><path d="m1346.5 827c4-26 7.6-52.1 7-78.5 1.5-1.3 3.1-2.3 4.9-3.2 18.9-3.8 38.1-1.6 57.2-1.7 11.9 0 22.2-1.7 29.3-12.2 8 35.1-2.1 66.2-20.7 95.5-26 4.6-51.8 3.6-77.7.1z" fill="#eeb8a4"/><path d="m595.1 491.8c-4.6 20.6-9.2 41.1-13.8 61.7-22.5-2.6-45.1-1.4-67.6-1.8-8.4-.1-17.1.8-23.9-5.9-4.4-25.1-4-50.4-3.5-75.7.1-5.5-1-11.4 2.9-16.2 5 3.9 6 9.6 5.8 15.2-.4 14 7.6 16.8 19.3 16.6 19.6-.2 39.3-.3 58.9.1 7.7.2 15.9-.8 21.9 6z" fill="#5b5153"/><path d="m557.5 741.1c-1.2 8.7-7.8 8-14 8-21.2 0-42.5-.9-63.7.3-14.3.8-19.4-4.6-17.9-18 3.7-34.1 24.1-54.7 54.4-67.3 10 .6 8.9 10.5 13.3 15.9 6.3 14.2 13.8 27.7 21.6 41.1 3.6 6 8 12.2 6.3 20z" fill="#efbba9"/><path d="m1444.9 731.5c1.6 13.7-4 18.6-18.1 17.9-23.6-1.2-47.2-.5-70.8-.5.4-28.8 15-53.8 21.4-81 .6-2.7 3.2-4.5 6.5-4.1 32.1 5.4 57.7 33.8 61 67.7z" fill="#efbaa8"/><path d="m1180.3 119.9c-2.2 7.9-8.7 5.8-14 5.8-153.4.1-306.8.1-460.2.1-6.2 0-12.6.8-16.6-5.7 5.8-5.3 13-7.6 20.1-10.4 82.1 1.9 164.3.6 246.4.8 61.4.1 122.8.6 184.1-.4 6.8-.1 13.3 2.5 20.1 1.8 6.7 2.7 13.4 5.4 20.1 8z" fill="#7b6b6c"/><path d="m1160.2 111.9c-4.9 5.7-11.5 3.7-17.4 3.7-138.6.1-277.3.1-415.9-.1-6 0-14.1 3.7-17.3-5.8 6-4.1 12.6-7 19.7-8.6 4.5 6.2 11.2 4.3 17.2 4.3 125.7.1 251.5.1 377.2 0 5.5 0 11.4 1.6 16-3.2 8.2.4 14.2 5.2 20.5 9.7z" fill="#7b6b6c"/><path d="m595.1 491.8c-28.7-.1-57.4-.9-86 .1-15.1.5-22.2-3.4-19.9-19.5.9-6 0-12.3-.1-18.5-.2-1-.1-2 .2-2.9 5.2-5.1 11.9-6 18.7-6.1 27.4-.4 54.9-.4 82.3 0 6.7.1 13.6.4 18.4 6.3-4.5 13.6-9.1 27.1-13.6 40.6z" fill="#5f5456"/><path d="m1318.6 505.4c19.7-.1 39.4-1.1 59 .1 16.1.9 28.5-.7 29.2-20.4.7 25-1.8 49.8-6 74.5-23.4 9.6-47.3 7-71.3 3.2-4.8-18.9-9.4-37.8-10.9-57.4z" fill="#595051"/><path d="m489.7 545.8c25.2 0 50.3-.1 75.5.1 6.3 0 14.1-2.2 16 7.6-4.9 14.1-1 29.4-6.4 43.4-25.3 9.1-50.6 9.7-75.8-.1-5.9-16.4-8-33.6-9.3-51z" fill="#564d4f"/><path d="m482.6 827c30.4-5.1 60.8-5.7 91.3 0 .5 14.5 5.7 27.9 9.9 41.5-47.7 11.2-77.9-1.2-101.2-41.5z" fill="#edb4a1"/><path d="m1329.6 562.8c23.5-6.6 47.5-2.2 71.3-3.2.1 17.2-1.8 34.2-7.2 50.7-10.3 8.6-22.7 4.7-34.2 5.7-6.7.6-13.5 1.4-20.2 1.7-4.7-18.1-8.3-36.3-9.7-54.9z" fill="#544c4e"/><path d="m1346.5 827c25.9-6 51.8-4.8 77.7 0-20.7 35.7-52.5 52.1-87.5 45.1 3.2-15.1 6.5-30.1 9.8-45.1z" fill="#edb4a1"/><path d="m499 596.9c25.3 0 50.6 0 75.8.1-.3 14.7-1.1 29.4-4.4 43.8-20.1 9.4-40.3 9.2-60.4 0-4.4-14.5-10.1-28.6-11-43.9z" fill="#524a4c"/><path d="m608.7 451.2c-39.8-.1-79.6-.2-119.5-.2.6-9.3-2.3-18.9 3-27.6 4.7 5.7 11.3 3.8 17.2 3.9 27.3.2 54.6.3 81.9 0 9-.1 17.7.7 26.3 3.5-.8 7.6-4.9 14-8.9 20.4z" fill="#625759"/><path d="m594.1 216.8c1.2 1.3 2.4 2.6 3.6 3.9 5.8 3.3 12.1 1.6 18.2 1.6 123.7.1 247.4.1 371.1.1 5.1.5 8 2.8 7.1 8.4-84.9.8-169.9-.2-254.9.7-44.9.5-90 .1-134.9-.7-5.4-.1-11.8 1.5-13.3-6.7-.1-2.9 0-5.7 3.1-7.3z" fill="#736465"/><path d="m994 230.8c-1.1-2.3-2.3-4.5-3.4-6.8 28.2-3.8 56.5-.6 84.7-1.7 32.7 1 65.5-2 98.2 1.7 6.7-4.1 14.1-3.4 21.4-3.4 37.2-.1 74.4-.1 111.5-.2 1 2.2 2.1 4.5 3.1 6.7-7.2 4.4-15.1 3.7-23 3.7-97.4 0-194.9 0-292.5 0z" fill="#736465"/><path d="m1339.3 617.6c1.2-7.6 7-7.4 12.7-7.4h41.8c-1.1 15.2-3.8 30.1-9.7 44.2-11.6 8.3-25.5 4.4-38.1 7.4-4.1-14.4-6.2-29.2-6.7-44.2z" fill="#51494b"/><path d="m510 640.7h60.4c.2 13.7.7 27.4-2.7 40.8-13.8 8.3-27.6 8.5-41.4-.1-3.4-5.8-6.7-11.5-10.1-17.3.4-8.5-4.2-15.6-6.2-23.4z" fill="#4e4849"/><path d="m1346 661.8c2.4-10.9 11.2-7 17.8-7.4 6.7-.5 13.5 0 20.2.1-.1 3.1-.2 6.2-.2 9.4-9.3 28.4-18.6 56.7-27.9 85.1-.8-.1-1.6-.2-2.4-.4-2.5-29-5-57.9-7.5-86.8z" fill="#4e4849"/><path d="m797.3 1172.4c.3-15.8.5-31.6.8-47.4 32.4 11 64.3 22.8 98.5 28.5 70.6 11.8 138.6 3.8 205.1-21.2 6.8-2.6 13.8-4.8 20.6-7.3.2 15.8.5 31.6.7 47.4 0 0-.2.6-.2.6-5.3 8.4-13.9 9-22.4 9-93.5.3-187 .3-280.5 0-8.5 0-17.1-.6-22.4-9z" fill="#ecad9a"/><path d="m960.6 1064.5c-31.7-1.3-60.2-10.2-85.9-27.9-7.2-4.9-12.5-10.8-7.1-19.5 5.6-9 12.8-8.2 21.6-2.7 46.7 29.3 93.7 31.7 140.6 0 8.4-5.7 17.4-7.2 23.2 3.1 5.5 9.8-1.6 15.1-9.1 20.3-25.4 17.2-53.5 25.3-83.3 26.7z" fill="#ecad99"/><g fill="#424143"><path d="m878.7 643.9c.2 10.3-10.2 16.3-20.6 11.2-13.1-6.5-25.8-13.7-39.9-18.3-32.5-10.5-63.3-7.4-92.9 9.4-4.4 2.5-8.8 5.1-13.1 7.8-7.8 5-15.2 5.3-20.6-2.9-5.7-8.6-1.1-15.1 6.1-19.9 36.4-24.3 75.6-34.4 118.9-23 18.1 4.8 35 12.2 51.1 21.8 5.8 3.2 10.4 6.8 11 13.9z"/><path d="m1231 644.3c-.3 10.9-11.4 16.1-22.3 9.8-13.6-7.9-27.1-15.9-42.5-19.9-31.7-8.3-61.2-1.1-89.5 13.3-4.5 2.3-8.9 4.7-13.3 7.3-8.3 4.9-15.4 3.4-20-4.9-4.5-8-.4-14.2 6.6-18.4 51-30.6 103.3-39.7 157.9-9.2 5.9 3.3 11.6 6.8 17.2 10.6 3.6 2.7 6 6.5 5.9 11.4z"/><path d="m1135 806.6c-22.1-.8-40.2-20.3-39.2-42.3 1-21.5 19.6-39.1 41.1-38.8 22.2.3 40.6 19.4 40 41.5s-19.9 40.4-41.9 39.6z"/><path d="m783.4 725.5c22.1-.4 41.1 18.1 41.2 40.3.1 22.1-18.6 40.9-40.7 40.8-21.4-.1-39.8-18.1-40.4-39.5-.6-22.1 17.7-41.2 39.9-41.6z"/></g><path d="m958.3 942.4c-15.1-.7-26.6-8.4-35.8-19.7-4.6-5.6-3.7-11.6 1.3-16.7s11.5-6.5 16.6-1.5c13.5 13.3 26.1 13.1 39.6 0 5.2-5 11.6-3.5 16.6 1.6 5.6 5.8 5.4 11.9.2 18.1-10 12-23.2 17.2-38.5 18.2z" fill="#ecad99"/><path d="m526.4 681.4c13.8 0 27.6.1 41.4.1-.2 22.5-.4 45.1-.6 67.6-5.2-.3-5.6-6.3-9.7-8.1-10.5-19.7-24.8-37.5-31.1-59.6z" fill="#4b4647"/><path d="m662 1339.1c55.5 12.3 90.8 55.9 95.2 117.6 5.6 6.5 5.8 14.4 5.9 22.3.1 33.8.4 67.5-.2 101.3-.1 8.3 2.1 18.6-9.3 22.7-6-14-18.7-22.6-29.8-30.6-31.5-22.7-38-49.2-22.4-84.1 6.3-14.1 7.2-30.5 11.7-45.5 2.9-9.6-.1-13-9.3-14.1-21-2.7-42-6.3-63-8.8-18.4-2.2-19.7-3.6-11.3-19.8 10.7-20.5 21.7-40.7 32.5-61z" fill="#e4e4e5"/><path d="m753.7 1603c5.2-5.8 3.1-12.9 3.2-19.4.3-42.3.3-84.6.4-126.8h26.5c.1 45 .1 89.9.4 134.9.1 11.7-3.8 21.9-9.6 31.7-13.6 17.9-31.7 25.2-54 23.7-10.5-.7-21.1-.3-31.7-.4-6.5-8.8-6.5-17.6 0-26.5 13.5-.1 27 0 40.5-.4 11.3-.7 20.9-4.3 24.3-16.8z" fill="#aaaeb1"/><path d="m486.3 1456.7h26.5c.1 42.2.2 84.4.3 126.6.1 28 8.2 36.2 36 36.3 6.2 0 12.4.2 18.6.3 6.5 8.8 6.5 17.6 0 26.5-16.3-.1-32.9 3.1-48.4-4-20.8-9.4-32.9-25.7-33.1-48.8-.5-45.6 0-91.3.1-136.9z" fill="#aaaeb1"/><path d="m567.6 1646.5c0-8.8 0-17.6 0-26.5 9-.1 17.9-.6 26.9-.1 8.6.4 13.5 5.7 13.1 14.2-.3 7.8-5.5 12.2-13.1 12.6-9 .3-17.9-.2-26.9-.2z" fill="#434244"/><path d="m688.8 1620v26.5c-9 .1-17.9.5-26.9.1-7.6-.3-12.8-4.7-13.1-12.5-.4-8.6 4.7-13.7 13.1-14.2 9-.5 17.9 0 26.9.1z" fill="#434244"/><path d="m1339.7 1443.5h26.9c31.6 9.4 55.2 27.2 64.8 60.4 10.4 35.8-7.9 76.8-42.4 93.9-34.9 17.4-76.7 7-101.3-25.1-22.5-29.5-20.7-72.1 3.5-100 13.2-15.1 30-23.3 48.5-29.2z" fill="#aaaeb1"/><path d="m825.5 1318c-4.7-25.8-9.4-51.6-14-77.3 3-2.2 5.6-.4 8.1 1 4.6 3.5 9.3 6.7 14.2 9.8 5.5 3.7 11.1 7.4 17.1 10.3 9.9 5.5 20.2 10.1 31.1 13.2 53 18.6 106 19 158.8-.6 10.3-3 19.2-9.3 29.1-13.1 7.4-2.8 14-7 20.4-11.4 4.3-2.4 8.4-5.6 13.8-4.1 3.5 2.2 4 5.1 2 8.6-3.8 21.2-7.5 42.4-11.3 63.6-89.7 41.7-179.5 41.7-269.3 0z" fill="#f9ab6c"/><path d="m804.6 1206.4c-1.1-5.6-2.2-11.3-3.3-16.9 6.7-6.7 15.4-6.1 23.8-6.2 90-.2 180-.2 270.1 0 8.4 0 17.1-.6 23.8 6.2-1.1 5.6-2.2 11.3-3.3 16.9-6.7 6.7-15.4 6.2-23.8 6.2-87.8.2-175.6.2-263.4 0-8.4 0-17.1.5-23.9-6.2z" fill="#eeb5a1"/><path d="m804.6 1206.4h311c-1.1 5.6-2.2 11.3-3.3 16.9-6.8 6.6-15.4 6.2-23.8 6.2-85.6.2-171.2.2-256.8 0-8.4 0-17.1.4-23.8-6.2-1.1-5.6-2.2-11.3-3.3-16.9z" fill="#efb8a5"/><path d="m807.9 1223.3h304.5c-1.1 5.7-2.2 11.4-3.4 17.1-1.7 1.4-3.7 2.4-5.8 3-6 1.6-12.1 2.1-18.4 2.1-83.4-.1-166.8-.2-250.3.1-5.7 0-11.2-.8-16.8-1.7-2.1-1.1-4.2-2.1-6.4-3.2-1-5.8-2.2-11.6-3.4-17.4z" fill="#f0bcaa"/><path d="m1119 1189.4c-105.9 0-211.8 0-317.7 0-1.3-5.5-2.5-11-3.8-16.5 6.8 3.4 14.2 3 21.5 3h282.2c7.3 0 14.7.4 21.5-3-1.2 5.6-2.4 11.1-3.7 16.5z" fill="#eeb19e"/><path d="m1106 1240.3c1 0 2 0 3 .1.3 4.9.8 9.9-2.9 13.9-.5-2.9-1-5.8-3.9-7.4-1.6-3.8 1.7-4.8 3.8-6.6z" fill="#fab680"/><path d="m648.9 1234.6c24.3-5.1 48.6-10.2 73-15.3 3 2 2.6 4.5 1.2 7.2-14.1 26-28.2 52-42.3 78-2 3.6-4.2 6.6-8.7 6.9-23.6-2-23.6-2-23.5-24.7 0-17.3.2-34.7.3-52.1z" fill="#eff0f0"/><path d="m1075.3 224c-28.2 0-56.5 0-84.7 0-124.5 0-249.1 0-373.6-.1-6.5 0-13.7 2.4-19.3-3.3h477.6c1.2.8 1.6 1.5 1.2 2.3s-.8 1.1-1.2 1.1z" fill="#736465"/><path d="m1075.3 224c0-1.1 0-2.3 0-3.4 26.9 0 53.8-.1 80.7.1 5.9 0 12.5-2 17.5 3.3-32.7 0-65.4 0-98.2 0z" fill="#736465"/><path d="m1352.3 1470.7c29.6-.4 54.3 23.4 55 52.9.7 30.2-23.9 55.4-54.1 55.4-29.6 0-53.9-24.1-54.1-53.7-.4-29.4 23.8-54.2 53.2-54.6z" fill="#58595c"/><path d="m878.5 1278.1c-11.4-1.8-21.1-7.3-30.4-13.7-.2-10.5 7.4-11.7 14.9-11.8 64.2-.6 128.3-.6 192.5 0 7.7.1 16.4.9 16.9 12-9.7 3.1-16.7 12.4-27.7 12.5-55.4 5.3-110.8 3.7-166.2 1z" fill="#f3c5b4"/><path d="m1106 1240.3c-1.3 2.2-2.5 4.4-3.8 6.5-3.4 2.1-6.8 4.3-10.2 6.4-13.8 4.7-27.8.5-41.7.5-61.3.1-122.5.1-183.8 0-11.7 0-23.4 3-35.1.1-5.1-2.6-10.6-4.6-13.6-10.1 5-5.4 11.6-3.4 17.6-3.4z" fill="#f1bfad"/><path d="m878.5 1278.1c2.6-3.6 6.5-4 10.5-4h146.4c3.4 0 6.7.3 9.3 3-33.9 15.8-69.7 19.8-106.5 15.9-20.5-2.1-41-5-59.7-14.9z" fill="#f4c9b8"/><path d="m831.4 1253.9c3.9-4.6 9.2-3.4 14.2-3.4h233.6c4.4 0 9.1-.8 12.8 2.8-5.8 5-11.9 9.5-19.5 11.4-5.4-7.2-13.2-7.5-21.3-7.5-61.9.1-123.8 0-185.7 0-6.8 0-13.8-.6-17.3 7.2-6.7-1.8-11.9-5.9-16.8-10.5z" fill="#f2c3b1"/></svg>