<svg enable-background="new 0 0 1080 1080" viewBox="0 0 1080 1080" xmlns="http://www.w3.org/2000/svg"><g fill="#fff"><path d="m716.4 237.8s-.4-.1-1.1-.5c-.8-.5-1.8-1.1-3-1.7-2.7-1.7-6.4-3.9-10.9-6.6-9.3-5.8-21.8-13.6-35.7-22.2-13.8-8.7-26.3-16.6-35.6-22.5-4.4-2.8-8-5.1-10.7-6.9-1.2-.8-2.1-1.4-2.9-1.9-.7-.4-1-.7-1-.7s.4.1 1.1.5 1.7.9 3 1.7c2.6 1.5 6.4 3.7 11 6.5 9.2 5.6 21.9 13.4 35.8 22.2 13.9 8.7 26.5 16.7 35.5 22.6 4.4 2.9 8 5.2 10.7 7 1.1.8 2.1 1.4 2.9 2 .6.2.9.5.9.5z"/><path d="m1028.7 235.6c0 .4-25.4 1.5-56.8 2.5s-56.8 1.5-56.8 1.2c0-.4 25.4-1.5 56.8-2.5 31.3-1.1 56.8-1.6 56.8-1.2z"/><path d="m912.8 350.7s-.5.4-1.7 1c-1.2.7-2.8 1.7-5 3-4.5 2.6-11 6.5-19.5 11.4-17 9.9-41.5 24.1-71.8 41.7l-.2.1-.2-.1c-27.9-16.1-61.4-35.3-98.3-56.6l-.3-.2v-.4c0-35.1 0-73.4 0-113.4v-.4l.3-.2c34.5-19.9 67.6-39 98.2-56.7l.3-.2.3.2c36.8 21.3 70.1 40.6 98.1 56.8l.2.1v.3c-.1 35-.2 63.3-.2 83-.1 9.8-.1 17.3-.1 22.5 0 2.5 0 4.5-.1 5.8v2.3s0-.7-.1-2c0-1.4 0-3.3-.1-5.9 0-5.2-.1-12.8-.1-22.6-.1-19.6-.1-47.9-.2-82.8l.2.4c-28.1-16.2-61.4-35.3-98.3-56.6h.6c-30.6 17.7-63.7 36.8-98.2 56.7l.3-.6v113.4l-.3-.5c36.8 21.3 70.3 40.7 98.1 56.8h-.5c30.3-17.4 54.8-31.4 71.8-41.2 8.5-4.8 15.1-8.6 19.7-11.2 2.2-1.3 4-2.2 5.1-2.9 1.3-.7 2-1 2-1z"/><circle cx="618.9" cy="177.5" r="10"/><path d="m731.9 237.8c0 8.5-6.9 15.5-15.5 15.5-8.5 0-15.5-6.9-15.5-15.5s6.9-15.5 15.5-15.5c8.5 0 15.5 7 15.5 15.5z"/><path d="m926.9 237.8c0 8.5-6.9 15.5-15.5 15.5-8.5 0-15.5-6.9-15.5-15.5s6.9-15.5 15.5-15.5c8.5 0 15.5 7 15.5 15.5z"/><circle cx="911.4" cy="354.6" r="15.5"/><path d="m1040.3 234.4c0 6.4-5.2 11.6-11.6 11.6s-11.6-5.2-11.6-11.6 5.2-11.6 11.6-11.6 11.6 5.2 11.6 11.6z"/><circle cx="814.4" cy="408.2" r="15.5"/><circle cx="718.5" cy="349.1" r="15.5"/><path d="m814.6 68c.4 0 .6 24.5.6 54.8s-.3 54.8-.6 54.8c-.4 0-.6-24.5-.6-54.8-.1-30.3.2-54.8.6-54.8z"/><circle cx="814.6" cy="180.6" r="15.5"/><path d="m827.2 63.7c0 7-5.6 12.6-12.6 12.6s-12.6-5.6-12.6-12.6 5.6-12.6 12.6-12.6c6.9 0 12.6 5.6 12.6 12.6z"/><path d="m135.2 346.5c-.2.3-12.6-7.8-27.6-18.1-15.1-10.3-27.1-18.9-26.9-19.2s12.6 7.8 27.6 18.1 27.1 18.9 26.9 19.2z"/><path d="m430.4 516.9c-.2.3-22.7-11.4-50.4-26.2s-50-27.1-49.8-27.4 22.7 11.4 50.4 26.3c27.6 14.7 49.9 27 49.8 27.3z"/><path d="m331.5 459.4s-.5.4-1.7 1c-1.2.7-2.8 1.7-5 3-4.5 2.6-11 6.5-19.5 11.4-17 9.9-41.5 24.1-71.8 41.7l-.2.1-.2-.1c-27.9-16.1-61.4-35.3-98.3-56.6l-.3-.2v-.4c0-35.1 0-73.4 0-113.4v-.4l.3-.2c34.5-19.9 67.6-39 98.2-56.7l.3-.2.3.2c36.8 21.3 70.1 40.6 98.1 56.8l.2.1v.3c-.1 35-.2 63.3-.2 83-.1 9.8-.1 17.3-.1 22.5 0 2.5 0 4.5-.1 5.8.1 1.6 0 2.3 0 2.3s0-.7-.1-2c0-1.4 0-3.3-.1-5.9 0-5.2-.1-12.8-.1-22.6-.1-19.6-.1-47.9-.2-82.8l.2.4c-28.1-16.2-61.4-35.3-98.3-56.6h.6c-30.6 17.7-63.7 36.8-98.2 56.7l.3-.6v113.4l-.3-.5c36.8 21.3 70.3 40.7 98.1 56.8h-.5c30.3-17.4 54.8-31.4 71.8-41.2 8.5-4.8 15.1-8.6 19.7-11.2 2.2-1.3 4-2.2 5.1-2.9 1.4-.7 2-1 2-1z"/><circle cx="80.6" cy="309.3" r="10"/><circle cx="135.2" cy="346.5" r="15.5"/><circle cx="330.2" cy="346.5" r="15.5"/><circle cx="330.2" cy="463.3" r="15.5"/><circle cx="430.4" cy="516.9" r="11.6"/><circle cx="233.2" cy="516.9" r="15.5"/><circle cx="137.2" cy="457.8" r="15.5"/><path d="m233.3 176.7c.4 0 .6 24.5.6 54.8s-.3 54.8-.6 54.8c-.4 0-.6-24.5-.6-54.8s.3-54.8.6-54.8z"/><circle cx="233.3" cy="289.3" r="15.5"/><circle cx="233.3" cy="172.4" r="12.6"/><path d="m544.1 939.6s.4.1 1.1.5c.8.5 1.8 1.1 3 1.7 2.7 1.7 6.4 3.9 10.9 6.6 9.3 5.8 21.8 13.6 35.7 22.2 13.8 8.7 26.3 16.6 35.6 22.5 4.4 2.8 8 5.1 10.7 6.9 1.2.8 2.1 1.4 2.9 1.9.7.4 1 .7 1 .7s-.4-.1-1.1-.5-1.7-.9-3-1.7c-2.6-1.5-6.4-3.7-11-6.5-9.2-5.6-21.9-13.4-35.8-22.2-13.9-8.7-26.5-16.7-35.5-22.6-4.4-2.9-8-5.2-10.7-7-1.1-.8-2.1-1.4-2.9-2-.6-.2-.9-.4-.9-.5z"/><path d="m248.9 769.2c.2-.3 22.7 11.4 50.4 26.2s50 27.1 49.8 27.4-22.7-11.4-50.4-26.3c-27.7-14.7-50-27-49.8-27.3z"/><path d="m347.7 826.8s.5-.4 1.7-1c1.2-.7 2.8-1.7 5-3 4.5-2.6 11-6.5 19.5-11.4 17-9.9 41.5-24.1 71.8-41.7l.2-.1.2.1c27.9 16.1 61.4 35.3 98.3 56.6l.3.2v.4 113.4.4l-.3.2c-34.5 19.9-67.6 39-98.2 56.7l-.3.2-.3-.2c-36.8-21.3-70.1-40.6-98.1-56.8l-.2-.1v-.3c.1-35 .2-63.3.2-83 .1-9.8.1-17.3.1-22.5 0-2.5 0-4.5.1-5.8 0-1.7 0-2.3 0-2.3s0 .7.1 2c0 1.4 0 3.3.1 5.9 0 5.2.1 12.8.1 22.6.1 19.6.1 47.9.2 82.8l-.2-.4c28.1 16.2 61.4 35.3 98.3 56.6h-.6c30.6-17.7 63.7-36.8 98.2-56.7l-.3.6c0-40 0-78.3 0-113.4l.3.5c-36.8-21.3-70.3-40.7-98.1-56.8h.5c-30.3 17.4-54.8 31.4-71.8 41.2-8.5 4.8-15.1 8.6-19.7 11.2-2.2 1.3-4 2.2-5.1 2.9-1.3.7-2 1-2 1z"/><circle cx="641.6" cy="999.9" r="10"/><circle cx="544.1" cy="939.6" r="15.5"/><circle cx="349.1" cy="939.6" r="15.5"/><circle cx="349.1" cy="822.9" r="15.5"/><circle cx="248.9" cy="769.2" r="11.6"/><circle cx="446.1" cy="769.2" r="15.5"/><circle cx="542" cy="828.4" r="15.5"/><circle cx="445.9" cy="996.8" r="15.5"/></g><path d="m513.4 714.2c-3.5 3.6 27 23.4 39.9 39.9 12.8 16.5 59.1 102.2 84 95.9s6.4-72.5 6.4-72.5 11.1-72.5 6.6-71.9-126.2-2.2-136.9 8.6z" fill="#ff725e"/><path d="m513.4 714.2c-3.5 3.6 27 23.4 39.9 39.9 12.8 16.5 59.1 102.2 84 95.9s6.4-72.5 6.4-72.5 11.1-72.5 6.6-71.9-126.2-2.2-136.9 8.6z" opacity=".3"/><path d="m193.3 559.9s1.8 62.6 76.3 76.3l65.4 6.4s1.8 89.9 108 91.7l82.6-10s127.1-3.6 208.8 3.6c23.3 2.1 57.2 5.4 90.8-6.4s147.9-119.8 32.6-254.2c0 0 10-60.8-51.8-75.4 0 0-27.2-83.5-118-82.6 0 0-30-37.2-75.4-21.8 0 0-87.2-39.3-153.4-3.7 0 0-79-17.1-138 47.3 0 0-63.6 20-79.9 68.1 0 0-78.1 50.4-54.5 108.7 0 0-13.6 10.2-10.9 30.2 2.8 20 17.4 21.8 17.4 21.8z" fill="#ff725e"/><path d="m663.6 493c.1.2-3.8.6-8.9 5-2.5 2.2-5.1 5.5-6.9 10.1-1.7 4.5-2.5 10.3-.4 16.2l.2.7-.7-.2c-8.7-2.3-19-4.6-30.7-6-11.6-1.3-24.6-1.6-38.5-.5-27.7 2.2-59.3 11.2-88.2 29.4l-.3.2-.3-.1c-6.1-2-12.7-3.4-19.5-4.5-15.2-2.4-30.4-3-44.8-1.6-7.2.8-14.2 2.2-20.7 4.8-6.6 2.4-12.9 5.1-18.6 8.5s-10.8 7.5-15.4 11.8-9.3 8.4-13.1 12.9c-7.7 9-13.4 18.6-17.3 27.9-1.9 4.7-3.4 9.3-4.3 13.7-.9 4.5-1.3 8.7-1.2 12.7.1 8 1.4 14.9 2.7 20.4s2.7 9.7 3.7 12.5c.5 1.4.8 2.4 1.1 3.2.3.7.4 1.1.4 1.1s-2.7-5.7-5.6-16.7c-1.4-5.5-2.8-12.4-2.9-20.5-.1-4 .3-8.4 1.2-12.9s2.3-9.2 4.3-13.9c3.8-9.4 9.6-19.1 17.3-28.3 3.9-4.6 8.5-8.7 13.2-13s9.8-8.5 15.6-12 12.2-6.2 18.8-8.6c6.6-2.6 13.7-4.1 21-4.9 14.6-1.5 29.8-.8 45.2 1.5 6.8 1.1 13.6 2.6 19.7 4.6l-.5.1c29.1-18.3 60.9-27.3 88.8-29.4 14-1.1 27-.7 38.7.6 11.7 1.4 22 3.8 30.7 6.2l-.4.5c-2.1-6.1-1.2-12.1.6-16.7s4.6-7.9 7.2-10.2c2.6-2.2 5-3.3 6.6-4 1.3-.4 2.2-.6 2.2-.6z" fill="#263238"/><path d="m777.1 484.6s-.1.4-.3 1.2c-.3.8-.6 1.9-1.1 3.3-.9 3-2.5 7.2-4.7 12.6-2.4 5.4-5.3 11.9-9.5 19.1-2 3.7-4.5 7.4-7 11.3-2.7 3.9-5.6 7.9-8.9 12-13.1 16.3-31.7 33.7-56.3 46.7-12.3 6.4-26 11.6-40.7 15.2-14.7 3.4-30.3 5.4-46.3 5-8.8-.1-17.4-1-25.8-2.3s-16.5-3.4-24.3-5.8l.6-.1c-13.6 10.3-29.5 16-44.7 17.8s-29.8-.3-42-4.7l.5-.1c-5.5 4.2-11.4 7.2-17.3 9.4-5.8 2.1-11.6 3.4-17.1 3.9-1.4.2-2.7.3-4 .3s-2.6.1-3.9.1c-2.6-.1-5-.1-7.4-.4-1.2-.1-2.3-.3-3.5-.4-1.1-.2-2.2-.4-3.3-.6-2.1-.4-4.1-1-6-1.5-7.5-2.2-12.9-5.2-16.4-7.3-1.7-1.1-3-2.1-3.9-2.7s-1.3-1-1.3-1 .5.3 1.4.9 2.2 1.5 3.9 2.6c3.5 2.1 8.9 4.9 16.4 7 1.9.5 3.8 1.1 5.9 1.4 1.1.2 2.1.4 3.2.6 1.1.1 2.3.2 3.4.4 2.3.3 4.8.3 7.3.4 1.3 0 2.6-.1 3.9-.2 1.3 0 2.7-.1 4-.3 5.4-.5 11.1-1.9 16.9-4s11.6-5.2 17-9.3l.2-.2.3.1c12.1 4.4 26.5 6.4 41.5 4.5 15-1.8 30.6-7.4 44-17.6l.3-.2.3.1c7.8 2.3 15.8 4.4 24.2 5.7 8.3 1.3 16.9 2.2 25.6 2.3 15.9.3 31.4-1.6 46-5 14.6-3.6 28.2-8.7 40.4-15 24.5-12.8 43.1-30 56.2-46.2 3.3-4 6.2-8.1 8.9-11.9 2.6-3.9 5-7.6 7.1-11.2 4.2-7.1 7.2-13.6 9.7-18.9 2.2-5.4 3.9-9.6 4.9-12.5.5-1.4.9-2.5 1.2-3.3s.5-1.2.5-1.2z" fill="#263238"/><path d="m396.3 680.6c-.1 0-.2-.9-.2-2.4 0-1.6 0-3.8.1-6.6.2-5.5.8-13.4 4.1-21.5 3.3-8 9.2-13.9 14.2-16.5 2.5-1.3 4.7-2 6.3-2.3s2.4-.3 2.4-.2c.1.3-3.5.5-8.3 3.3-4.7 2.7-10.3 8.4-13.4 16.2-3.2 7.8-3.9 15.5-4.3 21-.6 5.5-.7 9-.9 9z" fill="#263238"/><path d="m754.5 663.8s-.3 0-.8-.1c-.6-.1-1.3-.3-2.2-.5-2-.5-4.9-1.3-8.5-2.2-1.8-.5-3.9-1.1-6.1-1.6-2.3-.5-4.7-1-7.4-1.6-2.6-.6-5.5-1.2-8.4-1.9-3-.6-6.2-1.1-9.5-1.8-13.4-2.5-29.4-4.7-47.4-6-17.9-1.4-37.7-1.6-58.4-.3-26.6 1.6-51.5 5.5-72.6 10.4s-38.5 10.7-51 15l.2-.3c-.4 3.8-1.5 7.1-3 9.7s-3.3 4.4-4.9 5.6c-3.2 2.5-5.2 3.4-5.2 3.4s.4-.3 1.3-.9c.8-.6 2.1-1.5 3.7-2.8 1.5-1.3 3.3-3.1 4.7-5.6s2.4-5.8 2.7-9.5v-.2l.2-.1c12.4-4.5 29.8-10.5 51-15.5 21.1-5 46-9 72.7-10.6 20.8-1.3 40.6-1 58.6.4s34.1 3.6 47.4 6.3c3.3.6 6.5 1.3 9.5 1.8 3 .7 5.8 1.4 8.4 2s5.1 1.2 7.3 1.7c2.2.6 4.3 1.2 6.1 1.7 3.6 1 6.4 1.9 8.4 2.4.9.3 1.6.5 2.2.7.8.3 1 .4 1 .4z" fill="#263238"/><path d="m821.6 627.6s.2-.2.7-.5 1.2-.8 2-1.3c1.8-1.2 4.4-2.9 7.6-5.3 6.4-4.8 15.4-12.4 23.5-24.2 4-5.9 7.7-12.9 10.3-20.9 2.5-8 4-17 3.6-26.4-.5-9.4-2.9-19.2-8.2-28-5.2-8.8-13-16.5-22.7-21.4-5.9-3.2-12.5-4.8-18.7-5.3l-1-.1.4-.9c4.3-8.7 6.9-18 6.3-27.1-.4-9.1-3.8-17.4-8.1-24.4-4.3-7.1-9.9-12.8-16-16.8s-12.6-6.3-18.7-7.5c-6.1-1.3-11.7-1.5-16.6-1.3-4.9.1-9.1.6-12.5.9s-6 .5-7.9.7c-.8.1-1.5.1-2 .1s-.7 0-.7 0 .2-.1.7-.1c.5-.1 1.2-.2 2-.3 1.9-.2 4.5-.5 7.9-.9s7.6-.9 12.6-1.1c4.9-.2 10.6-.1 16.8 1.2 6.1 1.2 12.8 3.5 19.1 7.5s12 9.9 16.4 17 7.9 15.6 8.4 24.9c.6 9.3-2 18.9-6.4 27.7l-.5-.9c6.4.5 13.1 2.3 19.2 5.5 9.9 5.1 17.9 13 23.2 22 5.4 9 7.8 19.1 8.3 28.6.4 9.6-1.1 18.7-3.7 26.8-2.7 8.1-6.5 15.1-10.6 21-8.3 11.9-17.5 19.4-23.9 24.1-6.8 4.8-10.8 6.7-10.8 6.7z" fill="#263238"/><path d="m594.7 514.7c0 .1-.7 0-1.9-.3-.6-.1-1.4-.3-2.2-.6s-1.8-.6-2.8-1.1c-2.1-.9-4.4-2.3-6.8-4.2-2.3-1.9-4.6-4.3-6.6-7.2s-3.4-5.9-4.4-8.7c-.9-2.9-1.4-5.5-1.5-7.8-.1-1.1 0-2.2 0-3.1s.1-1.7.2-2.3c.2-1.2.4-1.9.4-1.9.3 0-.2 2.8.3 7.2.2 2.2.8 4.8 1.7 7.5 1 2.7 2.4 5.6 4.3 8.4 1.9 2.7 4.1 5.1 6.3 7 2.2 1.8 4.4 3.3 6.4 4.3 3.9 2 6.6 2.5 6.6 2.8z" fill="#263238"/><path d="m502.7 508.6c.1 0 1 2.2 1.4 6.1.4 3.8.1 9.3-1.8 14.9-2 5.6-5.1 10.1-7.8 12.8-2.7 2.8-4.8 4-4.8 3.9-.1-.2 1.7-1.7 4.2-4.5s5.3-7.2 7.2-12.7c1.9-5.4 2.3-10.7 2.2-14.4-.3-3.8-.8-6.1-.6-6.1z" fill="#263238"/><path d="m423.1 541s-.3.1-1 .1c-.7.1-1.6 0-2.9-.1-2.5-.4-6.1-1.8-9.3-5s-6.2-8-7.3-13.9c-1.2-5.9-.8-12.5-.2-19.2.7-6.8 1.1-13.2.7-19-.3-5.8-1.2-11.1-2.1-15.4-1-4.3-2-7.7-2.8-10.1s-1.3-3.6-1.2-3.7c0 0 .2.3.5.9s.7 1.5 1.1 2.6c.9 2.3 2.1 5.7 3.2 10.1 1.1 4.3 2 9.6 2.4 15.5.5 5.9 0 12.5-.6 19.2s-1 13.2.1 18.9c1 5.7 3.8 10.4 6.8 13.5 3 3.2 6.4 4.7 8.8 5.2 2.4.4 3.8.3 3.8.4z" fill="#263238"/><path d="m364.5 570.9c-.3-.2 2.7-3.2 3.8-9.5 1.1-6.2-.5-15.5-6.4-23.3-6-7.7-13.8-12.4-19.3-15.6-2.6-1.5-4.8-2.7-6.7-3.8-1.6-.9-2.4-1.4-2.4-1.5s1 .3 2.6 1c1.6.8 4 1.9 6.9 3.4 5.6 3.1 13.7 7.7 19.9 15.7 6.2 8.1 7.7 17.8 6.3 24.2-.7 3.2-1.8 5.7-2.9 7.2-1 1.5-1.8 2.2-1.8 2.2z" fill="#263238"/><path d="m335.2 617.4s-.6.1-1.9.1c-1.4 0-3.2 0-5.4 0-2.3-.2-5.2-.4-8.5-.8-3.3-.6-7.1-1.1-11.1-2.3-8.1-2.1-17.6-5.7-27.1-11.5s-19.2-13.6-27.3-23.6-13.8-21.1-17.1-31.8c-1.6-5.3-2.5-10.6-2.5-15.6 0-2.5.2-4.9.6-7.2s1.2-4.4 1.9-6.4c3-7.9 6.6-13.8 9.7-17.4 1.5-1.8 2.9-3 3.9-3.8 1-.7 1.6-1 1.6-1s-.5.4-1.4 1.2-2.2 2.1-3.6 3.9c-2.8 3.7-6.4 9.5-9.2 17.4-.7 2-1.3 4-1.7 6.3-.4 2.2-.6 4.6-.5 7 .1 4.9 1 10 2.6 15.3 3.3 10.5 9 21.4 16.9 31.3 8 9.9 17.5 17.7 26.9 23.4 9.4 5.8 18.7 9.4 26.8 11.6 4 1.2 7.7 1.8 11 2.4 3.3.4 6.1.7 8.5 1 2.2.1 4 .2 5.4.2.8.2 1.5.2 1.5.3z" fill="#263238"/><path d="m273.1 439.3s-.5 0-1.3-.1c-1-.1-2.3-.3-3.8-.4-3.3-.4-8-.9-13.9-.8s-12.9.8-20.2 3.5c-7.2 2.7-14.7 7.6-19.3 15.2s-5.4 16.8-2.5 23.9c2.9 7.2 8.9 11.6 14.1 14 5.3 2.4 10.1 3.3 13.3 3.8 3.3.5 5.1.6 5.1.7 0 0-.5.1-1.3.1-.9 0-2.2-.1-3.8-.2-3.3-.4-8.1-1.1-13.6-3.5-2.7-1.2-5.6-2.9-8.3-5.2-2.6-2.4-5.1-5.4-6.6-9.1-3.1-7.5-2.2-17.1 2.5-25 4.8-8 12.6-13 20-15.7 7.5-2.8 14.7-3.3 20.6-3.3 6 .1 10.7.7 14 1.2 1.6.3 2.9.5 3.8.7.8.1 1.2.2 1.2.2z" fill="#263238"/><path d="m483.5 346.7s-.2-.1-.6-.4-1-.8-1.7-1.3c-1.5-1.2-3.7-2.9-6.6-5-5.8-4.2-14.7-9.9-27.1-13.1-6.2-1.6-13.2-2.5-20.7-2.6s-15.6.6-23.7 2.9-16.3 5.9-23.9 11.1-14.3 12.1-19.8 20.1c-1.2 1.8-2.3 3.6-3.3 5.3l-.2.3h-.4c-18.8-.5-36.3 6.5-48.9 16.5-6.4 4.9-11.5 10.8-15.5 16.7-4 6-6.8 12.1-8.8 17.8-3.9 11.6-4.4 21.6-4.1 28.3 0 1.7.2 3.2.3 4.5s.2 2.4.4 3.3c.1.8.2 1.5.3 2s.1.7.1.7-1-3.6-1.5-10.5c-.4-6.8-.1-16.9 3.8-28.6 1.9-5.8 4.7-12 8.7-18.1 4-6 9.2-12 15.7-17 12.7-10.2 30.5-17.3 49.7-16.8l-.6.3c1-1.7 2.2-3.6 3.4-5.4 5.6-8.1 12.5-15.1 20.2-20.4 7.7-5.2 16.1-8.8 24.3-11.2 8.3-2.3 16.4-3 24-2.9 7.6.2 14.6 1.1 20.9 2.8 12.5 3.4 21.5 9.3 27.1 13.6 2.9 2.2 5 4 6.4 5.2.7.6 1.2 1.1 1.6 1.4.3.3.5.4.5.5z" fill="#263238"/><path d="m326 399.2s.4 0 1.1.1 1.8.3 3.2.6c2.7.6 6.6 2 10.9 4.7 4.2 2.7 8.8 6.8 12.2 12.6 3.4 5.7 5.3 13.2 4.8 20.9s-3.3 14.8-7.4 20.1-9.1 8.9-13.6 11c-4.6 2.1-8.6 3-11.4 3.3-1.4.1-2.5.2-3.2.2s-1.1 0-1.1-.1 1.5-.1 4.3-.6c2.7-.4 6.6-1.4 11-3.6s9.2-5.7 13.1-10.9c3.9-5.1 6.5-12 7-19.5.4-7.4-1.3-14.6-4.6-20.2-3.2-5.6-7.6-9.7-11.6-12.5-4.1-2.7-7.9-4.2-10.5-5-2.7-.8-4.2-1-4.2-1.1z" fill="#263238"/><path d="m407.3 377.1c.1 0 .5 1 1.1 3s1.1 5 1.3 8.7c.4 7.3-1.6 18.1-8.5 27.3-7 9.2-16.8 13.9-23.9 15.6-3.6.9-6.6 1.1-8.7 1.1s-3.2-.1-3.2-.2c0-.3 4.6.1 11.7-1.8 7-1.8 16.4-6.6 23.1-15.5s8.7-19.3 8.6-26.5c-.2-7.3-1.8-11.7-1.5-11.7z" fill="#263238"/><path d="m463.6 490.2c-.1 0 .1-1.5.3-4 .2-2.6.3-6.4-.1-11-.7-9.2-3.9-22-12.2-33.5s-19.5-18.6-28-22.2c-4.3-1.8-7.9-2.9-10.4-3.5s-3.9-.9-3.9-1c0 0 .4 0 1.1.1s1.7.2 3 .5c2.6.5 6.3 1.4 10.6 3.1 8.7 3.4 20.2 10.5 28.7 22.3 8.5 11.7 11.7 24.9 12.1 34.2.3 4.7 0 8.5-.4 11.1-.1 1.3-.4 2.3-.5 3-.1.5-.2.9-.3.9z" fill="#263238"/><path d="m436.9 355.4c0-.1 1.1.4 2.9 1.6s4.3 3.1 6.9 5.9 5.4 6.6 7.5 11.3 3.5 10.3 3.6 16.2c0 6-1.3 11.6-3.4 16.3-2 4.7-4.7 8.6-7.3 11.4-2.6 2.9-5.1 4.8-6.9 6s-2.9 1.7-2.9 1.6c-.2-.2 4.1-2.5 9.1-8.3 4.9-5.6 10.2-15.5 10.1-27.1s-5.5-21.4-10.4-27c-5-5.5-9.4-7.7-9.2-7.9z" fill="#263238"/><path d="m472.1 357.3c.3.1-1.1 6.9-5.5 14.2-4.3 7.3-9.6 11.9-9.8 11.6-.3-.3 4.5-5.1 8.7-12.3 4.3-7.1 6.2-13.6 6.6-13.5z" fill="#263238"/><path d="m520.4 269.8s.7.3 2 .9c.7.3 1.5.7 2.4 1.2.9.6 2 1.2 3.1 1.9 4.6 3 11.1 8.1 16.9 16.2 5.8 8 11.2 19 12.5 32.2 1.5 13.1-1.9 28-10.2 40.8-8.5 13.1-21.1 22.5-33.8 26.7l.4-.7c5.7 18.7 5.5 35.5 4.1 47-.7 5.8-1.7 10.3-2.5 13.3-.4 1.5-.8 2.7-1 3.5s-.4 1.2-.4 1.2 0-.4.2-1.2c.2-.9.5-2 .8-3.5.7-3.1 1.5-7.6 2.1-13.3 1.2-11.4 1.2-28.1-4.5-46.6l-.2-.6.6-.2c12.4-4.2 24.7-13.4 33.1-26.3 8.1-12.6 11.5-27.1 10.1-40-1.3-12.9-6.4-23.9-12.1-31.8-5.7-8-11.9-13.2-16.4-16.3-1.1-.7-2.2-1.4-3.1-2-.9-.5-1.7-.9-2.3-1.3-1.2-.7-1.9-1.1-1.8-1.1z" fill="#263238"/><path d="m477.6 278c0-.1.9.5 2.3 1.7s3.2 3.1 5.1 5.9c1.8 2.7 3.5 6.3 4.5 10.6 1 4.2 1.2 9.2 0 14.1s-3.6 9.2-6.3 12.6c-2.8 3.4-5.9 5.8-8.8 7.5-2.9 1.6-5.4 2.5-7.1 3-1.8.4-2.8.5-2.8.5-.1-.3 4-.8 9.5-4.2 5.4-3.3 12-10 14.3-19.6 2.2-9.5-.7-18.6-4-23.9-3.5-5.7-6.9-8-6.7-8.2z" fill="#263238"/><path d="m687.2 305.7s-.7.1-2 .2-3.3.2-5.8.5c-5 .6-12.3 1.8-20.8 4.6-4.3 1.5-8.9 3.3-13.5 5.9s-9.3 5.9-14 9.5c-9.4 7.3-19 16.6-25.9 28.5-6.8 12-12.9 23.7-17.8 34.6s-8.6 21-10.9 29.8c-2.4 8.7-3.6 16-4.2 21-.4 2.5-.4 4.5-.6 5.8-.1 1.3-.2 2-.3 2 0 0 0-.7 0-2 .1-1.3.1-3.3.4-5.8.4-5.1 1.5-12.4 3.8-21.2 2.2-8.8 5.9-19 10.7-30 4.9-11 11-22.7 17.8-34.8 7-12.1 16.8-21.5 26.3-28.8 4.8-3.7 9.5-6.9 14.2-9.5s9.4-4.4 13.7-5.8c8.7-2.8 16-3.8 21.1-4.3 2.5-.2 4.5-.3 5.8-.3s2 0 2 .1z" fill="#263238"/><path d="m607.6 285.5c0 .3-3.5.2-9 1.2-2.8.5-6 1.3-9.4 2.5-3.5 1.3-7.1 2.9-10.8 5.1-3.6 2.2-6.8 4.7-9.6 7.1-2.7 2.5-5 5-6.7 7.2-3.4 4.4-5 7.5-5.2 7.4-.1 0 .3-.8 1-2.3.3-.7.8-1.6 1.4-2.5s1.2-2.1 2.1-3.2c1.6-2.3 3.9-4.9 6.6-7.5 2.8-2.6 6-5.1 9.7-7.4 3.7-2.2 7.5-3.9 11.1-5.1s6.9-1.9 9.7-2.3c1.4-.3 2.7-.3 3.8-.4s2.1-.1 2.9-.1c1.5.1 2.4.2 2.4.3z" fill="#263238"/><path d="m628.6 454.7c0-.1 1-.2 2.8-.8 1.7-.6 4.1-1.9 6.4-4.3s4.2-5.9 5.5-10c1.4-4.2 2.5-8.9 3.5-13.9 2-10 2.8-19.2 3-25.9.1-3.3.1-6 .2-7.9 0-1.9 0-2.9.1-2.9s.2 1 .4 2.9c.1 1.9.3 4.6.2 7.9 0 6.7-.6 16-2.6 26.1-1 5-2.2 9.8-3.6 14-1.5 4.2-3.5 7.9-6 10.3-2.4 2.4-5 3.7-6.9 4.2-.9.3-1.7.3-2.2.4-.5-.1-.8-.1-.8-.1z" fill="#263238"/><path d="m704.9 492.5c-.4-.1 2.7-5.3 2.6-14.4 0-4.5-1-9.9-3.3-15.5-2.3-5.5-6.1-11.1-11.2-15.8-5.2-4.6-11.1-7.8-16.7-9.9s-11-3.2-15.5-3.8-8.2-.7-10.8-.6c-2.6 0-4 .1-4 0 0 0 .3-.1 1-.2s1.7-.2 3-.3c2.6-.2 6.3-.2 10.9.2s10.1 1.4 15.8 3.5c5.8 2.1 11.8 5.4 17.2 10.1 5.3 4.8 9.1 10.6 11.4 16.3s3.3 11.3 3.2 15.9c-.1 4.7-.9 8.4-1.8 10.8-.4 1.2-.9 2.1-1.2 2.7-.4.7-.5 1-.6 1z" fill="#263238"/><path d="m646.6 358.4s.5-.2 1.6-.5c1-.3 2.6-.7 4.6-1.1 4-.8 9.9-1.7 17.2-1.5s16.1 1.6 25 5.5c8.9 3.8 17.7 10.7 24.1 20 6.3 9.3 9.4 20.2 8.7 29.9-.7 9.8-4.5 18.1-8.9 23.9-4.5 5.9-9.5 9.4-13.1 11.2-1.8.9-3.3 1.5-4.3 1.8s-1.6.5-1.6.5.5-.3 1.5-.7 2.4-1.1 4.2-2c3.5-2 8.3-5.5 12.6-11.3 4.2-5.8 7.9-13.9 8.5-23.4s-2.4-20.1-8.6-29.1c-6.2-9.1-14.8-15.8-23.5-19.6-8.7-3.9-17.4-5.3-24.6-5.7-7.2-.3-13.1.4-17.1 1.1-4.1.5-6.3 1.1-6.3 1z" fill="#263238"/><path d="m722.1 383.7c-.3-.1.8-3.9 1-10.2 0-1.6.1-3.3-.1-5.2 0-1.9-.4-3.8-.7-5.9-.7-4.1-1.9-8.6-3.7-13-1.9-4.4-4.2-8.4-6.6-11.8-1.3-1.7-2.4-3.3-3.7-4.6-1.2-1.4-2.4-2.6-3.6-3.7-4.6-4.3-8.1-6.3-7.9-6.5 0-.1.9.4 2.5 1.3.8.4 1.7 1 2.7 1.8s2.2 1.6 3.4 2.7 2.5 2.3 3.8 3.7c1.3 1.3 2.6 3 3.9 4.6 2.5 3.5 4.9 7.5 6.8 12 1.9 4.6 3 9.1 3.7 13.3.3 2.1.5 4.1.5 6 .1 1.9 0 3.7-.1 5.3 0 1.6-.3 3-.5 4.3-.1 1.3-.4 2.3-.6 3.2-.4 1.8-.7 2.8-.8 2.7z" fill="#263238"/><path d="m804.2 387.7c0 .3-3.9-.5-10.2-.5-3.1 0-6.9.3-10.9 1.1-4.1.8-8.5 2-12.9 3.8s-8.4 4-11.9 6.3c-3.4 2.3-6.3 4.7-8.6 6.9-4.5 4.3-6.7 7.6-7 7.4-.1-.1.5-.9 1.5-2.3.5-.7 1.1-1.6 2-2.6.8-1 1.7-2.1 2.9-3.2 2.2-2.3 5.1-4.8 8.5-7.2 3.5-2.4 7.5-4.7 12-6.5s9-3 13.2-3.7 8-.9 11.1-.8c1.6 0 3 .2 4.3.3s2.3.3 3.2.5c1.9.2 2.9.4 2.8.5z" fill="#263238"/><path d="m852.7 600.7s.3.4.6 1.2.7 2 1.1 3.6c.7 3.2 1.3 7.9.9 13.8-.5 5.8-2.1 12.7-5.3 19.8s-8 14.2-14 20.8-13 11.8-20.1 15c-7 3.3-14 4.7-19.8 5.3s-10.6.3-13.8.3c-1.6-.1-2.9-.1-3.7 0s-1.3.1-1.3 0c0 0 .4-.1 1.3-.3.9-.1 2.1-.2 3.8-.2 3.3-.1 8 0 13.7-.7s12.5-2.1 19.4-5.5c6.9-3.3 13.7-8.3 19.6-14.8s10.7-13.5 13.9-20.4c3.3-6.9 4.9-13.6 5.5-19.4.6-5.7.1-10.4-.4-13.6-.3-1.6-.6-2.8-.8-3.6-.5-.8-.6-1.3-.6-1.3z" fill="#263238"/><path d="m657.4 494.7c-10.6 3.7-20.3 9.7-28.4 17.3-40.6-14.1-86.9-10.7-125 9.2-6.7 3.5-13.3 7.5-20.6 9.5-9.1 2.4-18.7 1.4-28.1.9-21.2-1.2-42.8.1-63.1 6.7-20.2 6.6-39 18.8-51.1 36.3-12 17.5-16.6 40.6-9.6 60.7l2.4 3.5c-1.9-21.7 7.6-43.2 23.6-60.9s38.1-33.3 61.8-36.5c23.6-3.3 46.4 1.4 69.8 5.8 48.2-26.3 104-35.2 157.3-22-4.7-10.9.4-25.1 11-30.5z" opacity=".3"/><path d="m552.4 602.4c-24.9 16.6-56.9 21.8-85.5 13-41.6 21.5-54.1 13.2-73.3 6.9 9.5 11.7 27.2 18 42.3 18.7s30.3-5.2 40.9-15.9c20.8 7.6 43.7 5.1 65.7 2.4 18.3-2.2 36.7-4.4 55-6.5 20.2-2.4 40.6-4.8 60.1-11 19.4-6.1 38.1-16.2 51.3-31.8-46.2 31.2-102.9 39.1-156.5 24.2z" opacity=".3"/><path d="m323.5 472.4c8.8 2.8 21.6.3 29.7-4.1s14.3-12.3 16.7-21.3c.6-2.4 1.1-5 3-6.6 2-1.6 4.9-1.4 7.6-1.5 8.6-.2 17-4.4 22.3-11.2s7.4-15.9 5.6-24.3c-7.4 19.7-31 31.6-51.2 25.7-.7 17.4-5.9 38.1-33.7 43.3" opacity=".3"/><path d="m487.5 339.2c-16.2-22-43.2-33.2-70.2-29.5-27.1 3.7-52.2 19.8-66.9 42.9-13.8.4-27.7 2.5-40.3 8.1-12.6 5.5-24 14.7-30.4 26.9-10.8 20.3-12.1 45.1-.3 66.1-4.1-25.1 1.1-46.2 14.8-62.4 13.6-16.2 42.3-29.4 63.5-28.4 7.5-17.6 21.4-29.4 39.8-34.6s39.3-5.8 57.5.1c18.2 5.8 44.3 33.4 44.3 37.4 1-9-3.3-15-11.8-26.6z" opacity=".3"/><path d="m677.9 305.5c-33.5-5-67.8 13.4-87.3 41.1s-21.8 59.5-19.2 93.2c0 0 12.4-57.2 32.6-84.2 24.6-32.8 65.9-55 73.9-50.1z" opacity=".3"/><path d="m650.6 397.4c3.6 8.3 4.9 17.7 3.7 26.7 17.3-.1 33.2 11.2 42.6 25.7-6.3-6.6-15.5-12-24.8-14.8s-17.7-4.2-26.2-1.4c2.1-13 5.5-25.4 4.3-37.1" opacity=".3"/><path d="m881.1 541.1c-4-12.7-13.1-23.8-24.8-30.2 18.6 27.3 15.7 63.6-3.7 89.8 5.8 20.5 1.4 46.1-32.6 71.3 20.4-3.4 42.6-25.6 45.2-46.2 1.1-8.6-.1-17.4 2.4-25.7 2.2-7.3 7.1-13.4 10.4-20.2 6-11.9 7.1-26.1 3.1-38.8z" opacity=".3"/><path d="m209.2 471.5c.1.3.2.6.2.9.1-.5.2-1 .3-1.5z" opacity=".3"/><path d="m244.1 560.2c-3.6-5.4-7-11-8.6-17.3-3.6-14.9 4-29.9 11.3-43.4-17.6 1.8-32.6-7-37.5-27.1-2.9 13.7.8 29.8 12.1 38-4.9 20.7-.8 43.4 11.1 61s31.4 29.9 52.5 33.1c-15.7-12.6-29.6-27.6-40.9-44.3z" opacity=".3"/><path d="m614.4 718.1c-2 3.6-27.6 25.2-19.3 51.6 10.9 34.4 62.9 35.6 103.9 27.7 60.2-11.7 88.7-37.4 88.7-71.8 0-27.8-173.3-7.5-173.3-7.5z" fill="#ff725e"/><path d="m787.7 725.5s-.7-.1-2-.3c-1.4-.3-3.3-.6-5.7-1-2.5-.5-5.5-1-9.1-1.5-3.5-.6-7.6-1.2-12.1-1.7-8.9-1.2-19.7-2.2-31.6-3-11.9-.7-25-1.1-38.8-1.1-27.6 0-52.5 1.3-70.6 2.3-8.9.5-16.2 1-21.4 1.3-2.4.1-4.4.2-5.8.3-1.3.1-2 .1-2 0 0 0 .7-.1 2-.3 1.4-.1 3.4-.3 5.8-.6 5-.5 12.3-1 21.4-1.7 18-1.2 43-2.7 70.6-2.7 13.8 0 27 .4 38.9 1.2 11.9.9 22.7 1.9 31.6 3.3 4.5.6 8.5 1.3 12.1 1.9 3.5.6 6.6 1.2 9.1 1.8 2.4.5 4.3 1 5.7 1.3 1.2.3 1.9.5 1.9.5z" fill="#263238"/><path d="m599.7 720.1h.4z" opacity=".3"/><path d="m787.7 726c-60.9-15-124.9-8.8-187.6-5.9 66.2 6.1 129.5 6.2 187.6 5.9z" opacity=".3"/><path d="m521.5 660.3c-10.5 3.1-29.9 9-39.4 12.6-1.4 7.9-4.6 14.5-11.6 18.3-8.1 3.7-17.3 5-26.1 3.9 10.5 2 21.4 3.8 31.8 1.3s20.3-10.3 21.9-20.8c59.5-20.2 123-28.6 185.7-24.5-53.4-11-109.9-6.2-162.3 9.2z" opacity=".3"/><path d="m717.3 435.5c.2-.1.3-.2.5-.3 13.8-7.6 20.8-25.9 15.5-40.8-.9-2.5-2.1-4.9-2.2-7.6s.9-5.3 1.6-7.9c4-15.2-4.4-32.7-18.9-39 3.5 4 14.5 20.1 7.5 46.9 0 0 8.7 15.6 5.2 29" opacity=".3"/><path d="m463.9 488.6c7.6-7.1 7.8-21.9 5-31.9s-9.4-18.5-16.3-26.1c7.3-5.4 12.1-14 12.9-23 .9-9-2.3-18.3-8.4-25-1.1 8.6-1.2 19.2-5 27s-8.1 12.2-15.7 16.3c19.6 9.8 28.8 37.7 28.1 55.9z" opacity=".3"/><path d="m794.2 614.1c-.4 0 1.9-5.3.4-13.8-.7-4.2-2.4-9.1-5.4-13.9s-7.5-9.2-12.8-12.9c-5.4-3.7-11.1-6.3-16.5-8.1-5.4-1.9-10.3-3.1-14.6-3.9-4.2-.8-7.7-1.3-10.1-1.7s-3.7-.6-3.7-.7 1.3 0 3.8.2c2.4.2 5.9.6 10.2 1.3s9.3 1.9 14.8 3.7 11.3 4.4 16.8 8.2 10 8.4 13.1 13.4c3.1 4.9 4.7 10 5.3 14.3s.3 7.9-.2 10.3c-.3 1.2-.5 2.1-.7 2.7-.3.7-.4 1-.4.9z" fill="#263238"/><path d="m762.7 548.4c5.2-13.2 7.4-27.7 6.3-41.9-8.7 19.8-22.4 38.1-37.7 53.3 20.3 1.2 40.9 8.8 55.5 23-.4-14.9-10.3-29-24.1-34.4z" opacity=".3"/><path d="m156.9 708.7c-26.2 0-41.9-4.2-44.7-13.1-6.5-20.6 55.7-55.3 109-80.7l1.1 2.3c-73 34.9-112.3 63.2-107.7 77.7 9.9 31.4 217.1-4.8 452.5-79.1 235.3-74.3 425.8-163.5 415.9-194.9-4.6-14.6-53.8-15.2-134.8-1.5l-.4-2.5c59.2-10 131.1-17.6 137.6 3.2 10.6 33.9-172.8 120.9-417.6 198.1-180.8 57-337.1 90.5-410.9 90.5z" fill="#ff725e"/><path d="m156.9 708.7c-26.2 0-41.9-4.2-44.7-13.1-6.5-20.5 55.7-55.2 109-80.7l1.1 2.3c-73 34.9-112.3 63.2-107.7 77.7 9.9 31.4 217.1-4.8 452.5-79.1 235.3-74.3 425.8-163.5 415.9-194.9-4.6-14.6-53.8-15.1-134.8-1.5l-.4-2.5c59.2-10 131.1-17.5 137.6 3.2 10.6 33.9-172.8 120.9-417.6 198.1-180.8 57-337.1 90.5-410.9 90.5z" opacity=".6"/><circle cx="430.6" cy="843.8" fill="#ff725e" r="9.3"/><circle cx="847.7" cy="748.3" fill="#ff725e" r="9.3"/><circle cx="845.7" cy="315.5" fill="#ff725e" r="6.1"/><circle cx="827.3" cy="816.8" fill="#ff725e" r="9.3"/><circle cx="475.2" cy="850.4" fill="#ff725e" r="15.6"/><circle cx="950.5" cy="779.9" fill="#ff725e" r="15.6"/><circle cx="807.1" cy="311.4" fill="#ff725e" r="10.3"/><circle cx="550.3" cy="226.9" fill="#ff725e" r="14.8"/><circle cx="125.6" cy="571.8" fill="#ff725e" r="12.6"/><circle cx="361" cy="176" fill="#ff725e" r="12.6"/><circle cx="498.2" cy="225.8" fill="#ff725e" r="8.5"/><circle cx="661.9" cy="237.4" fill="#ff725e" r="8.5"/><circle cx="333.5" cy="212.1" fill="#ff725e" r="8.5"/><circle cx="550.3" cy="187.1" fill="#ff725e" r="4.3"/><circle cx="461.6" cy="142.3" fill="#ff725e" r="4.3"/><circle cx="391.5" cy="234.4" fill="#ff725e" r="4.3"/><circle cx="966.2" cy="541" fill="#ff725e" r="7.8"/><circle cx="934.1" cy="577.3" fill="#ff725e" r="9.3"/><circle cx="929.5" cy="505.5" fill="#ff725e" r="3.9"/><circle cx="804" cy="341.3" fill="#ff725e" r="3.1"/><circle cx="887.2" cy="732.1" fill="#ff725e" r="4.7"/><circle cx="365" cy="753.6" fill="#ff725e" r="13.6"/><circle cx="346.2" cy="789.4" fill="#ff725e" r="5.2"/></svg>