<svg enable-background="new 0 0 1080 1080" viewBox="0 0 1080 1080" xmlns="http://www.w3.org/2000/svg"><path d="m303.9 661.1c0 2.3.1 4.5.1 6.8 1.3 1 .6 3 1.9 4 0 .6 0 1.3.1 1.9 1.3 1 .6 3 1.9 4 0 .6 0 1.3.1 1.9 1.3 1 .6 3 1.9 4-.7 3 2.7 4.9 2 7.8 1.3 1 .6 3 1.9 4-.5 2.6.8 4.6 2 6.8 3.7 7 5.7 14.8 9.9 21.6.7 1.1 2.2 1 2.9 2 .7 5.2 4.5 8.8 7.3 12.8 4.3 6 9.4 11.5 14.3 17.1 8 9.2 17.9 15.4 28.7 20.3 2.9 1.3 6 2.9 9.5 2.9 1.3 1.6 3.7.4 5 1.9h3.9c.9 3.3-1.4 5.3-3 7.7-.9.8-1.7 1.8-2.3 2.9-.2.3-.5.6-.8.9-1.1.6-1.7 1.6-2.1 2.8-9.4 18.5-18 37.5-27.4 56-.7 1.1-1.5 2.2-1.6 3.6-.1.7-.4 1.3-.7 1.8-.9.9-2.1 1.6-2.4 3-2.9 6-5.9 11.9-8.9 17.8-.7 1.4-1 3.7-3.7 2.8.8-4.8-3.9-5.3-6.2-6.9-9.3-6.4-19.4-11.6-28.2-18.8-1-.7-1-2.2-2-2.9-6.8-6.1-13.6-12.3-20.4-18.4-1.3-1.2-2.1-2.9-4.1-3.2-1.9-4.1.8-7.1 2.6-10.2 3.6-6.3 8.5-11.7 12.7-17.6 1.9-2.7 3.2-5.6 4.7-8.5 1.3-1.5 1.4-3.4 1.3-5.3 1.2-12.5-4.2-22.5-11.6-32.1-6.7-8.6-12.1-18.2-16.4-28.3-2.7-6.3-6.2-12.3-8-18.9-.3-1.6-.4-3.2-1.5-4.5-.3-.6-.5-1.2-.6-1.9-.1-1.5-.4-2.9-1.4-4.1-.4-.8-.6-1.6-.8-2.4-.3-1.4-1.8-1.8-2.3-3-.5-3.1-2.3-5.8-2.5-9 .2-1.8-.6-3.3-1.6-4.8-3.9-10.2-5.8-20.7-6.3-31.6.3-2.5-.2-4.9-1.6-7.1-2.6-15.8-2.9-31.7-2.5-47.7 0-1.3.1-2.6.6-3.9 2.5-3.8 1.2-8.1 1.5-12.3-.1-2.2-.1-4.4.6-6.5 1.4-2 1.6-4.2 1.4-6.5 0-1.8 0-3.6.6-5.3.9-1.5 1.6-2.9 1.4-4.7-.3-3.4 1-6.3 2.5-9.1 1.2-1.5 1.6-3.3 1.6-5.2.1-.7.3-1.4.6-2 1.1-1.3 1.3-2.9 1.5-4.4 2.6-7.8 7.8-14.3 11.1-21.7 4.5-10.1 12.5-17.4 18.3-26.4 1.9-2.9 4.8-4.9 7.9-6.4 1.5-.4 2-1.7 2.9-2.7 2.5-2.6 4.9-5.2 7.6-7.6 10.3-9.4 13.3-20.6 9.1-33.9-.1-.5-.1-1-.2-1.4 0-1.6-.2-3.2-1.5-4.3-2.7-3.3-4.2-7.3-6-11.1-5-10.6-10.1-21.1-15.8-31.3-4.3-7.6-8-15.7-11.7-23.6-.4-.9-.8-1.8.1-2.7h83.3c2.1 2.6 1.8 5.6.9 8.3-1.3 4.1-1.5 8.2-1.5 12.3-.1 2-.3 3.9 1 5.6 3.5 10.4 8.7 19.8 17.2 27 .8.9 1.2 2.2 2.6 2.6 1.4.6 2.5 1.6 3.7 2.6 1 1.1 2.3 1.1 3.7 1.1 4.6.3 8.9 1.9 13.3 3.1 3.3.9 6.5 1.2 9.6.1 3.9-1.4 7.9-1.5 11.9-2.3 4.9 7.2 8.4 15.1 11.1 23.3.2 1.4.8 2.7 1.7 3.8 3.2 7.6 8 14.5 10.4 22.4 0 1.5 1.5 2 2.2 3.1.6 1 .6 2.1.7 3.3-.1 1.4.6 2.5 1.6 3.5 5.3 7.2 7.8 15.7 11.2 23.8.3.7 0 1.3-.5 1.7-12 0-24-.1-36 0-1.7 0-3.8-.7-4.2 2-.6.5-1.2.5-1.9.3-1.4-.9-2.3-2.2-2.9-3.6-.4-1.4-1.8-1.8-2.7-2.6-7.5-6.4-16.1-10.1-26-10.4-1.4-.1-2.6.5-3.7 1.3-7.2 1.9-13.5 5.1-17.5 11.7-.8 1.4-2.1 2.4-3.2 3.6-1.1 1-1.4 2.3-1.3 3.7.1 4-.3 7.9-3.5 10.8-8.1 5.9-16.2 11.7-24.3 17.6-1 .7-1 2.2-2 2.9-3.3 1.9-6 4.5-7.9 7.8-.7 1-2.2 1-2.9 2-6.6 7.2-12.2 15.1-15.7 24.4-1.8 4.7-5.5 8.6-5.9 13.9-1.3 1-.6 3-1.9 4 .3 5-3.2 9.5-2 14.7-2.3 3 .3 6.9-1.9 9.9 0 5.4-.4 10.8.1 16.2.4 4.7 2.6 9.3 1.9 14.2 1.3 1 .6 3 1.9 4 0 1.3.1 2.6.1 3.9.8.5.1 2.4 1.4 3.5z" fill="#c2cfe6"/><path d="m514.7 138.9c2.6 8.2 7.6 15.4 10.5 23.5 4.3 12.2 11.6 23.2 15.5 35.6.8 2.6 2.5 5 3.7 7.5.4.5.8 1 1 1.6.3 1 1.1 1.7 1.7 2.5 2.7 5.9 5.4 11.7 8.1 17.6.8.9.9 2.2 1.7 3.2.9 5.3 4.4 9.6 6.2 14.5 1.6 4.4 3.9 8.5 5.8 12.7.8.9 1 2.2 1.7 3.2.1 3.8 2.7 6.4 4.2 9.6.4.5.8 1 1 1.5.3 1 1.1 1.7 1.7 2.5 2 4.5 4.1 9.1 6.1 13.6.8.9 1 2.2 1.7 3.2 2.2 7.4 6.2 14 9 21.2 1 2.6 3.1 4.8 3.1 7.8.7 1 .8 2.3 1.7 3.2 2.7 5.9 5.4 11.7 8.1 17.6.4.5.8 1 1 1.6.3 1 1.1 1.7 1.7 2.5.7 1.9 2.7 3.3 2.2 5.7.7 1 .8 2.3 1.7 3.2 4.7 9.8 8.6 19.9 13.9 29.4 1.5 1.3.3 3.7 1.9 4.9-.1 4.4 4.3 7.2 4.2 11.6-.4 1.1-1.2 2-2.2 2.5-6.9 3-13.6 6.4-20.8 8.8-1.4 0-2.7.3-3.6 1.4-1.5 1.5-3.3 2.4-5.4 2.6-1.5.1-1.9 1.8-3.1 2.4-6 3-12 6.2-19 6.4-2.1-.3-4 .5-5.8 1.5-12.2 3.5-24.4 3.5-36.7.1-2-1.2-4.1-1.9-6.5-1.7-.7-.1-1.4-.3-2.1-.6-1.3-1-2.9-1.4-4.5-1.4-4.2-1-8.4-1.9-12.1-4.4-1-.8-1.5-2.3-3-2.6-9.8-4.9-19-10.6-25.6-19.7-.4-1.5-1.7-1.7-2.9-2.1-7.6-8.8-13.7-18.6-17.8-29.5-1.2-3.1-2.8-5.9-3.8-9-.2-1.4-.8-2.6-1.6-3.8-1.9-5-5.3-9.3-6.5-14.6 0-1.5-1.4-2-2.3-2.8-2.9-2.5-2.5-6.4-4.3-9.4-.2-1.4-.9-2.6-1.7-3.8-8-14.4-13.3-30-20.7-44.6-.7-1.3-1.2-2.7-1.4-4.1 0-1.6-1.5-2.1-2.4-2.9-2-1.8-3.2-4.2-3.9-6.7-3.9-12.5-11.1-23.5-15.9-35.6-2.4-6-4.9-12-7.7-17.9-.2-.7-.3-1.3-.4-2-.1-1.6-1.6-1.9-2.5-2.8-1.8-1.6-2.4-3.7-2.4-6 0-1.5 0-3.1.7-4.5.4-.6 1.1-1 1.8-1.2 1.4-.2 2.7-.8 3.6-1.9 9.1-3.7 17.4-9.1 26.8-12.1 1.4 0 2.6-.4 3.6-1.5 6.2-4.8 14.3-5.7 20.7-10 1.4-.3 2-1.7 3-2.5 1-.6 2.1-.7 3.3-.7 1.4.1 2.5-.5 3.4-1.5 5-2.9 9.5-6.7 15.6-7.1 5.2-.7 9.2-4.1 13.8-5.9.9-.8 2.2-1 3.3-1.7 7.5-2.3 14.3-6 21.4-9.2 1.4-.6 3.4-4.4 5.9-.9.5 1 2 .9 2.6 2z" fill="#376fb6"/><path d="m260.8 683.6c-.3 3.4 3.1 6.1 2 9.8.7 1.1 2.2 1 2.9 2v2.9c1.3 1 .6 3 1.9 3.9v1.9c1.3 1 .6 3 1.9 3.9 4.1 10.1 8.1 20.3 13.7 29.7 4.2 7.1 8.6 14.2 13.8 20.9 6.4 8.4 10.8 18.5 8.8 29.9-1.6 1.3-.3 3.7-1.9 4.9-.8 6.4-5.2 10.7-8.7 15.4-4.9 6.5-10.4 12.5-11.9 20.9-5.1-7.7-12.7-13.4-17.7-21.2-.5-.8-1.1-1-1.7-1.5-5.7-4.8-9.7-10.8-13.3-17.3-2.5-4.5-5.8-8.8-8.8-13.1-4.3-6.2-8.2-12.7-11.8-19.3-3.4-6.1-7.2-12-9.9-18.4-4.1-9.6-8.1-19.2-11.5-29.1-2.1-6.1-2.8-13.1-6-18.4-4.9-7.8-5.2-16.7-7.9-24.9-1.3-4.1-1.7-9.2-2.9-13.4-1.6-5.6 0-11.6-3.3-16.7-.2-.4-.3-1-.2-1.4 1.1-10.1-1.4-20-2.4-29.8-1.8-17.1-2-34.1-1.1-51 .4-7.9.5-16.1 3.1-24.1 1.4-4.4 1-9.4 2.3-14.1 2.5-9 3.4-18.3 7.1-27 1.3-3 3.1-6.1 2.7-9.5-.3-2.4 2.3-2.6 2.8-4.1 2-7.1 5.7-13.4 8.3-20.3 2.7-7.2 6.8-13.8 10.5-20.6 3.1-5.7 7.6-10.6 10.7-16.2 3.2-5.9 7.4-11.1 11.1-16.6 3-4.5 6.6-8.7 10.1-12.9 2.8-3.3 5.3-6.8 7.8-10.3 3-4.1 7.3-7.3 11.2-10.7 3-2.6 5.1-6.4 9-8 3.7 8.6 7.7 17.1 12.3 25.2 5.2 9.2 9.7 18.8 14.6 28.2 2.6 5 5 10.2 7.4 15.3 1.3 1 .6 3 2 3.9.2 4 2.3 7.4 2.2 11.7-.3 9.4-2.9 17.6-10.1 23.9-3.3 2.8-5.6 6.7-9.7 8.7-1 .7-1 2.2-2 2.9-8 3.2-11 11.4-16.4 17.2-8 8.6-11.3 20.3-18.3 29.7-1.3 1.8-1.2 4.8-2.6 7-1.3 1-.6 3-1.9 4v1.9c-1.6 1.3-.4 3.7-1.9 4.9.3 3.5-3.1 6.2-2 9.8-1.3 1-.6 3-1.9 4 0 1.9 0 3.9-.1 5.8-1.8 1.6-.2 4.3-1.9 5.9v6.8c-1.6 1.9-.8 4.2-1 6.4-.2 1.8.4 3.8-1 5.4 0 8.7.3 17.4-.1 26-.5 9.1 3.4 17.8 2.1 27 1.7 1.6.1 4.3 1.9 5.9-.1 7.5 2.1 14.6 3.5 21.8.7 3.6 2.5 6.8 2.4 10.5 1.1 1 .4 3 1.8 4z" fill="#edf3f7"/><path d="m386.3 197.8c-.6 2.4 1.6 3.8 2.1 5.8.4.5.8 1 1 1.5.3 1 1.1 1.7 1.8 2.4 6.6 12.5 10.9 26 17.7 38.3 4 7.2 5.6 15.4 9.9 22.5.6 1.1 2.2 1 2.8 2.1 1 5.8 4.9 10.3 6.8 15.6 4 11.2 9.6 21.7 14.7 32.3.3.5.1 1.3.2 1.9.8.9.9 2.2 1.8 3.1 1.4 3.2 2.7 6.5 4.1 9.7.6 1.1 2.2 1 2.8 2.1.2 4.4 3.4 7.6 4.9 11.5.6 1.3 1 2.6 1.1 4 .8.9.9 2.3 1.8 3.1 3.8 6.9 5.7 14.7 10 21.4 3.7 5.8 6.7 12 11.7 16.9.8 1 2.2 1 2.9 2 5.4 7.8 13.3 12.7 21.2 17.5 1.3.8 2.8 1.4 4.3 2.1 1.1.6 1 2.2 2.1 2.8 4.4.8 8.1 3.9 12.6 4.1 1 1.3 2.9.6 4 1.8.6 0 1.3.1 1.9.1 1.6 1.8 4.3.2 5.9 1.9 5-1 9.3 1.9 14.2 2.1 8.2.4 16-1.5 24-2.2 1.4-1.4 3.7-.3 5-1.8 5.7 0 10.5-2.6 15.4-4.9 1.4-.6 2.6-1 4-1.1 1.2-.6 1-2.1 2.1-2.8 2.4.6 3.8-1.6 5.8-2.1.9-.9 2.2-.9 3.1-1.8 2.3.5 3.9-1.3 5.7-2.1 6.1-2.6 12.1-5.3 18.1-8 2.2 1.4 2.6 3.9 3.7 6 .4.5.8 1 1 1.6.3 1 1 1.7 1.7 2.5.7 1.3 1.5 2.6 2.2 3.9.8 1 1.1 2.2 1.7 3.3.8 5.6 4.4 10.1 6.1 15.3.9 1.4 1 2.7-.2 3.9-3.3 1.2-6 3.7-9.6 4.1-.9.8-2.3.9-3.2 1.7-2.3-.4-3.5 2.2-5.6 2.2-.5.4-1 .8-1.6 1-1 .3-1.7 1-2.5 1.7-5.7 2.9-11.3 6.1-17.5 8.1-.8.8-2.2.8-2.9 1.8l-.3.2c-.8.8-1.2 2.1-2.3 2.4-10.5 3.3-19.5 9.9-29.9 13.5-3.7 1.3-7.4 2.7-10.8 4.5-1.5.3-2.1 1.8-3.2 2.6-13 7-27.1 11.5-40.1 18.5-1.1.6-2.3 1.4-3.6.6-.7 0-1.4 0-2 0-.9.8-2.3.9-3.2 1.7-4.5 2.1-9 4.1-13.6 6.2-.5.4-1 .8-1.6 1-1 .3-1.7 1-2.5 1.7-3.3 1.3-5.9 4-9.6 4.2-.9.8-2.3.9-3.2 1.7-2.2.3-4.3 1.6-5.8 2.6-4 2.6-4.9.1-5.7-2.7-.6-1.9-2.7-3.2-2.2-5.5-.8-.9-.9-2.3-1.7-3.2-.1-.6-.2-1.2-.3-1.8-3.5-8.7-7.3-17.3-11.7-25.5-.8-1-1.1-2.2-1.7-3.3-.1-1.2-.2-2.3-.3-3.5-.5-1.2-2.1-1-2.7-2.2-2.2-6.9-5.9-13.2-9.1-19.7-.6-1.2-.7-2.4-.9-3.7-.8-.9-.9-2.2-1.7-3.1-3.1-6.9-5.8-13.9-9.7-20.4-.5-.8-.3-1.9-.5-2.9 2.7-2.3 6.3-2.8 9.1-4.8 1.2-.6 1.9-1.7 2.8-2.7 3.8-2.6 6.8-6 9.5-9.6 1-.8 2.2-1.4 2.8-2.7 3.2-3.8 2.3-9.4 5.7-13.1 2.3-2.3 1.4-4.6.2-7 1.2-3.7 1.3-7.3 0-11 .9-2 2-4 0-6-2.7-4.5-3.8-9.8-6.1-14.5-.2-.6-.3-1.2-.5-1.8-.2-1.5-1.6-1.6-2.6-2.1-3.7-2-6.6-5.2-9.8-7.8-4.7-3.8-10.7-4.5-15.3-7.9-1.9-1.9-4.4-1.1-6.6-1.2-1.2 0-2.5 0-3.7 0-1.3 0-2.5 0-3.8 0-1.2 0-2.5 0-3.7 0-2.1.1-4.3-.4-5.9 1.4-2 2-4.5 2.6-7.3 2.5-1.3-.1-2.6.2-3.5 1.3-1.2.6-2 2.7-3.9 1.2.2-4.5-2.6-7.8-4.3-11.5-.8-1-1-2.2-1.7-3.3-1.3-6.2-4.9-11.5-7.2-17.3-1.5-3.9-4.4-7.3-4.9-11.7-.8-.9-.9-2.2-1.7-3.2-2-4.5-4.1-9.1-6.1-13.6-.4-.5-.8-1-1-1.6-.3-1-1-1.7-1.7-2.5-1.4-3.2-3.8-6-4.2-9.7-.8-.9-.9-2.2-1.7-3.2-3.6-8.2-7-16.6-11.5-24.4-.5-.8-.4-1.9-.5-2.8-.8-.9-.9-2.2-1.7-3.2 0-.3 0-.7-.1-1-3.1-8.8-3.2-9 5.7-12.3 4.8-1.8 9.3-4.2 13.9-6.4 1-.8 2.2-1 3.3-1.7 6.3-1.6 11.9-4.9 17.5-8.1.5-.4.9-.8 1.5-1 1.2-.5 1.6-1.9 2.8-2.4 1.1-.4 2.2-.4 3.3.2 1.2 1 .9 2.8 2 3.7z" fill="#1d437e"/><path d="m296.1 977.2 4.5-.6c1-2.6 3.3-3 5.6-3 15.2-.2 30.5-.2 45.7 0 1.5 0 2.9.2 4.1 1.3 1 2.3-1 3.2-2.2 4.4-3.3 3.3-5.9 7-6.1 11.9-.3 7.8 5 13.9 12.8 14.6 2 .2 3.9.1 5.9.1 159.8 0 319.5 0 479.3.1 10.1 0 18.5-3.1 25.7-10 1.4-1.4 2.8-3.5 5.4-2.3 4.7 2.7 7.5 7 9.9 11.7.6 1.1 2.1 1 2.7 2.1l.2-.1c.9.9 1 2.2 1.8 3.2-.2 3.5 2 6.2 3.1 9.2 1 2.9 1.8 4.4-1.9 5.9-13.7 5.6-27.7 9.9-42.5 11.3-9.3.9-18.6 1.9-28 1.9-188.2 0-376.4 0-564.6 0-8.7 0-8.7 0-8.2-8.8 1.1-1.2.5-3 1.7-4.1-.1-4.4 1.4-8.3 3.7-12.1.5-.9.3-2.2.4-3.3.8-1 .9-2.3 1.8-3.2 2.1-2.6 3.2-5.8 6-7.8.7-1 2.3-.9 2.9-2.1 6.5-8.8 15.3-14.2 25.5-17.7.5-.4 1.1-.7 1.7-.9 1.1-.1 2.2-.7 3.1-1.7z" fill="#2c2c38"/><path d="m471.5 748.5h5.9c2.1 1.7 5 .1 7.1 1.7 1.3.1 2.5.2 3.8.3 6.7 1.6 13.3 3.5 19.3 7 1.2.6 1.6 2.1 2.9 2.5.6.2 1.2.5 1.7.8 1 .9 2.2 1.2 3.4 1.5 3.1 2.2 6.8 3.6 9.1 6.9 4.2 4.6 8.5 9.1 12.7 13.7 1.5 1.6 3.4 3 3.2 5.6.7 1 .8 2.4 1.8 3.2 1.1.2 1.7 1 2 1.9.4.5.8.9 1 1.5.3 1 1.1 1.7 1.7 2.5 3.9 7.4 6.9 15.1 8.1 23.5 1.6 2.1 0 5 1.6 7.1.1 9.4.2 18.8.2 28.2 1.2 1.5 1.4 3.2 1.5 5 .1 8.6.1 17.2 0 25.8 0 2-.3 3.9-1.5 5.6-.1 7.2-.2 14.4-.2 21.6-1.3 1.6-.7 3.6-.8 5.4-1.1 5.6-2.8 10.8-7.9 14.2-1.3.3-2.6.8-3 2.3-3.6 3.2-7.7 5.3-12.5 6-2-.2-3.5 1.2-5.3 1.7-4.7.9-9.5.4-14.2.4-15.5.1-31 0-46.5 0-2.4 0-4.9.1-7.3-.4-1.8-.5-3.2-2-5.3-1.8-1.5-.1-3 0-4.6-.1-.7-.1-1.4-.3-2.1-.6-1.3-1-2.8-1.5-4.5-1.3-8.3-.9-15-4.9-21.2-10.2-.9-1.1-2.1-1.7-3.4-1.9-4.3-2.5-7.7-5.9-10.3-10.2-.2-1.3-.7-2.6-1.8-3.5-4.3-4.3-7-9.4-8.3-15.3.1-1.7-.3-3.2-1.4-4.5-.3-.7-.5-1.4-.6-2.1.1-2.3-.6-4.5-1.7-6.5-.8-5.6-.7-11.1-.1-16.7.6-1.6 1.8-3 1.8-4.8.1-.7.3-1.4.6-2 1-1.2 1.4-2.7 1.5-4.3.1-.7.3-1.3.6-1.9 1.3-1.5 1.1-3.4 1.4-5.2 4.4-8.7 7.4-18.1 12-26.7.8-1.1 1.5-2.3 1.7-3.7 1.3-3.2 3-6.1 4.4-9.2.7-1.1 2.2-1.6 2.2-3.1.4-2.8 2-5.2 3.2-7.6 2.7-5.4 4.9-10.9 7.1-16.6 3.7-9.4 8.8-18.1 17.7-23.8 1.7-.2 2.8-1.2 3.6-2.6 4.2-5.2 10.3-6.7 16.4-8.2 1.2-.5 2.4-.2 3.3-1.1z" fill="#376fb6"/><path d="m449.1 761.1c-8.7 5.7-13.7 14.4-17.3 23.6-2.7 7.1-5.9 14-9.3 20.8-.6 1.3-.7 2.5-.9 3.7-.6 1.1-2.2 1-2.8 2.1-.2 3.7-2.8 6.4-4.1 9.7-.9.9-1 2.2-1.8 3.1.6 2.4-1.3 3.9-2.1 5.7-3.2 7.2-6.5 14.4-9.8 21.6-1.6 1.3-.4 3.7-1.9 5 0 .6 0 1.3-.1 1.9-1.3 1-.6 2.9-1.9 4 0 .6-.1 1.3-.1 1.9-1.2 1.1-.6 3-1.8 4.1v18.5c1.7 1.7.1 4.3 1.8 6 0 .6.1 1.3.1 1.9 1.2 1.1.6 3 1.9 4 1 6.1 4.7 10.7 7.9 15.6.9.8.9 2.2 1.9 3 2.6 4 5.9 7.2 9.8 9.8.8 1 2.2 1 3.1 1.9 4.7 3.4 9.9 6 15.1 8.5 2.2 1.1 4.2 1.2 6.4 1.4 1.1 1.2 3 .6 4 1.8.6.1 1.3.1 1.9.2 1.6 1.4 3.6.7 5.4.9 1.2 0 2.5 0 3.5.8h70.5c1.1-1.2 3-.6 4.1-1.8 4.5-.8 8.4-2.7 11.7-5.9.8-1 2.2-1 3-2 4.8-3.3 6.5-8.4 7.9-13.7.6-.7 1.2-.7 1.8 0 .1 18.6.1 37.2.2 55.7-1.8 2-4.2 1.7-6.4 1.7-62.9 0-125.8 0-188.7 0-2.1 0-4.3 0-6.1-1.4-16.6 0-33.3 0-49.9-.2-2.1 0-3.7.8-5.4 1.6-2.3-1.5-2.2-2.9-.9-5.4 4.3-7.7 8.1-15.7 12.1-23.7.9-.9 1.1-2.3 1.7-3.4.8-5.8 4.7-10.2 6.8-15.4 1.4-3.4 3.4-6.5 5.1-9.7.8-.8 1.5-1.6 1.7-2.7.1-.9.6-1.6 1.1-2.3 4.5-8.9 9.1-17.8 13.5-26.8.3-.7.3-1.6.4-2.4.8-1 .9-2.3 1.7-3.2.1-.6.1-1.2.2-1.7 4.2-2.9 4.4-8.2 7.3-12 2.1-2.8 3.1-6.4 4.5-9.6.6-1.1 2.2-1 2.7-2.1.1-.6.2-1.2.3-1.8.8-.9.9-2.2 1.7-3.1 1.7-6.7 5.7-12.4 8.5-18.6 5.3-11.8 11.4-23.2 17-34.9.7-1.4 2.5-2.3 2.1-4.1.6-1.2 2.2-1 2.7-2.2l.2.1c.9-.9.9-2.2 1.8-3.1 1.3-2.6 2.7-5.1 4-7.7 4.7-5.3 9.8-10.2 15.6-14.3 1.8-1.3 3.5-2.8 5.8-3.4.9-.8 2.3-.9 3.2-1.8l-.1-.2c.5-.4 1-.8 1.6-1 1-.3 1.7-1.1 2.5-1.8 7.3-4.1 14.8-7.6 23.4-8.1 1.5-1.2 3.7-.3 5.3-1.6h17.2c-.9 3.4-4.5 2.3-6.4 2.9-4.9 1.5-8.9 4.1-13 6.8-1 .8-1.9 1.9-2.9 2.8z" fill="#1d437e"/><path d="m355.9 975.2c14.2 0 28.4-.1 42.6-.1 52.9-.1 105.7-.1 158.6-.1 2 0 3.9.1 5.9.1h262.8c7.6 0 15.3-.9 22.6 2.1.7.6 1.4 1.4 2.4 1.6.6.1 1.2.2 1.8.3s1.2.5 1.7.9c.6.1 1.2.2 1.8.3 1 .8 2.2.9 3.2 1.7 6.7 2.7 12.8 6.3 17.6 11.9-4.6 2.1-7.2 6.7-11.7 9.2-4.8 2.7-9.6 4.5-14.7 4.5-162.9.1-325.8.1-488.7.1-7.4 0-12.3-3.8-14.8-10.3-2.1-5.6-.9-11 2.8-15.9 1.7-2.6 4.3-4 6.1-6.3z" fill="#3a3e49"/><path d="m524.6 769.1c-3.8-1.2-6.4-4.2-9.7-6.1-.9-.9-2.2-.9-3.1-1.8-.6-.1-1.2-.1-1.7-.2-1.1-.6-1-2.2-2.1-2.7-6.4-2.9-13.4-4.5-19.6-7.9 3.2.3 4.2-1.1 4.1-4.3-.2-9.8.3-19.6-.2-29.4-.4-8.7 6.2-14.4 13.2-16.6 6-1.9 11.4-5.9 17.2-8.5 10.9-4.8 22.1-8.8 32.8-14.1 8.3-4.1 17.1-6.9 25.2-11.2.8-.4 1.9-.2 2.9-.4 1.1-.7 1-2.2 2-2.9 7.2-1.5 12.8-6.5 19.6-8.7 12.2-4 23.4-10.5 35.5-14.9 3.3-1.2 5.9-4 9.6-3.9 1.1-.7 1-2.2 2-2.9 4.5-.2 7.7-3.3 11.6-4.9 1.4-.6 2.6-.9 4-1 .8-.9 2.2-.9 3-1.9 3.8.1 6.4-2.6 9.6-4 12.1-5.1 24.1-10.3 36-15.7 4.8-2.2 8.5-6.4 14.1-6.9.8-.9 2.2-.9 3-1.9 3.4 0 5.8-2.3 8.7-3.6 14.7-6.9 30.3-12 44.7-19.8.7-.4 1.6-.2 2.4-.2 1.1-.7 1-2.2 2-2.9.6 0 1.3-.1 1.9-.1.8-.9 2.2-.9 3-1.9 4.5-.2 7.7-3.3 11.6-4.9 1.4-.6 2.6-.9 4.1-1 2.6-1.4 5.2-1.4 7.9 0 4.9.8 8.2 3.9 10.8 7.9 1.6 1.3.3 3.7 1.9 4.9v5.8c-1.3 1-.6 3-1.9 4-3.7 6.4-10.3 9-16.5 11.4-3.4 1.3-6.6 3.1-10 4.3-.8 1-2.1 1.2-3.1 1.9-.3.3-.7.5-1 .6-.5.2-1.1.4-1.7.7-1.2.6-1.5 2-2.6 2.6-9.8 3.7-18.7 9.8-29.2 12.1-1.5-.1-2.6.5-3.6 1.6-2.7 2.4-6 4.1-9.4 5.2-5.9 2-11.4 4.9-16.9 7.6-1.6.8-3.3 1.3-5.1 1.5-1.6 0-2.1 1.6-3.2 2.2-8 3.8-15.6 8.7-24.5 10.4-1.5-.1-2.6.5-3.6 1.6-3.6 3.5-8.5 3.9-12.7 6-7.4 3.6-14.7 7.8-22.8 9.8-.7.2-1.3.3-2 .4-1.5.1-1.9 1.6-2.8 2.5-5.6 4.4-12.5 5.8-18.9 8.3-1.4-.1-2.6.5-3.6 1.6-8.5 4.9-17.6 8.5-26.7 12.1-1.4 0-2.6.4-3.7 1.2-1.4.6-2.8 1.2-4.1 2.1-3.2 1.2-5.9 3.2-9.1 4.3-.6.2-1.3.3-1.9.4-1.4.2-1.8 1.7-2.9 2.3-3.6 1.4-6.7 4.1-10.8 4.5-1.4 0-2.6.5-3.5 1.6-4.2 3.7-9.6 4.7-14.7 6.3-1.1.1-2.1.5-3.1.8-3.3 1-5.9 4-9.7 3.9-.8.9-2.2.9-3 1.9-6.9 1.3-12.3 5.9-18.7 8.4-1.5.6-.8 2.7-.8 4.1-.2 12.5-.2 25.5-.2 38.4z" fill="#c2cfe6"/><path d="m593.3 695.5c3.2-1.4 5.9-4 9.7-4.1 1.5.4 2.9 1 4.3 1.6 1.5 1.3 3.3 1.1 5.1 1.1 5.5 0 10-3.1 14.6-5 18.8-8 37.5-16.5 56.5-24.1 1.5-.3 2.1-1.8 3.2-2.6 13.4-6.3 27.5-11.3 40.8-17.8.7-.4 1.6-.4 2.4-.5 1.5.1 2.7-.6 3.8-1.4 6.3-2.5 11.9-6.7 18.5-8.5 1.5 0 2-1.5 3.1-2.2 2.3-1 4.4-2.6 7.1-2.6 1.4.1 2.6-.6 3.5-1.6 8.9-4 17.5-8.8 26.8-11.9 1.4-.2 2.7-.8 3.8-1.6 3.4-.7 5.7-4.5 9.7-3.2 2.9 1.7 2.2 5.1 3.7 7.6 2.3 3.9 3 8.7 5.4 12.7 1.6 2.8.5 4.8-2.3 6.1-15.2 7.3-31 13.4-46.1 21.1-3.5 1.8-7.4 4.1-11.6 4.6-.5.3-1 .8-1.5 1-1.3.4-1.7 1.8-2.5 2.7-5.5 3.1-11.5 5.1-17 8-1.4.2-2.6.9-3.8 1.7-14.8 6.9-29.7 13.7-44.8 19.9-1.5.3-2.1 1.7-3.1 2.5-3.7 1.5-6.9 4.2-11 4.6-1.4 0-2.6.5-3.5 1.5-7.4 4.7-15.9 7.1-23.6 11-.6 0-1.3 0-1.9-.1-1.3 1.6-3.7.4-5 1.9-5.2 2.7-10.4 5.3-15.6 8-.5.4-1 .8-1.6 1-1 .3-1.7 1.1-2.5 1.7-2.1.1-3.3 2.9-5.8 2.1-1.3 1.6-3.6.4-4.9 1.9-9.5 5.1-19.3 9.8-29.3 13.9-.9.8-2.3.9-3.2 1.7-3.9-.2-3.5-3.9-4.6-6.1-2-4.3-3.5-8.9-5.2-13.3-.8-1-1-2.3-1.7-3.3-.2-4.3-3.2-7.5-4.2-11.5-.8-1.4-1.1-2.7.4-3.9 5.6-.9 10.3-4 15.4-6.1 1-.8 2.2-1 3.2-1.7 4.3 0 7.3-3.8 11.4-4.2.5-.3 1-.7 1.6-1 .9-.2 1.6-.9 2.3-1.6z" fill="#1d437e"/><path d="m557.1 892.7c0-12.1 0-24.3 0-36.4 3 .9 4.8-2.5 7.6-2.1 1.2-.5 1-2.1 2.2-2.7 2.8.4 4.6-2.7 7.5-2.3 1-.7 2.3-.8 3.2-1.7 9.9-3.6 18.8-9.5 29.1-12 1-.7 2.4-.8 3.3-1.7 7.2-3.3 14.4-6.7 21.5-10 .5-.4 1-.8 1.5-1 1-.3 1.7-1.1 2.5-1.7.6-.1 1.2-.2 1.8-.3.9-.8 2.2-.9 3.2-1.7 9.3-3.6 18.5-7.5 27.3-12 .9-.9 2.2-1.1 3.2-1.7 4.9.3 8.8-2.8 12.8-4.7 5.4-2.6 10.9-4.7 16.3-7.3.9-.8 2.2-1 3.2-1.7.6-.1 1.2-.2 1.7-.3.5-.4 1-.8 1.5-1 1-.3 1.7-1.1 2.5-1.7 6.9-1.9 12.7-6.4 19.5-8.6 11.1-3.6 21-10.1 32.3-13.2 1.4-1.5 3.6-.4 5-1.7 8.5-.4 14.4 3.2 15.8 9.5 1.1 1.1.6 3 1.7 4.1v3.8c-1.2 1.1-.6 3-1.7 4.1-.1.6-.1 1.2-.2 1.8-.9.9-.9 2.2-1.8 3.1-.6 3.4-4.8 3-6 5.6-1.9 2.1-4.3 3.2-7.1 3.5-1.5-.1-2.7.7-3.9 1.4-7.9 4.5-16.8 7-24.8 11.3-1.2.6-2.4.9-3.7 1-1.5-.1-2.6.6-3.8 1.4-5 1.9-9.3 5.3-14.6 6.5-1.5 0-2 1.5-3 2.2-3.1 1.4-6 3.2-9.2 4.4-1.4.2-2.6.9-3.7 1.7-9.8 3.2-18.5 8.9-28.3 12-1.3.3-2.6.7-3.7 1.6-.6.4-1.2.6-1.9.8-6 3.2-12.4 5.3-18.7 7.7-1.6 0-2 1.4-2.9 2.4-5.3 3.1-11.2 4.6-16.8 7.1-4.9.6-9.2 2.9-13.5 4.9-1.4.7-2.6 1-4 1.2-1 .7-2.3.8-3.2 1.7-8.2 2.8-15.6 7.8-24 10.2-1.2.3-2.2 1.2-3.3 1.8-.5.4-1.1.8-1.7.9-1.3.2-2.4.8-3.3 1.8-5.7 2.7-11.6 5.3-17.4 8z" fill="#8495b2"/><path d="m429.3 72.2c2 7 6.2 13 8.7 19.8 1.2 3 3.6 5.6 3.4 9.2.6 1.1.8 2.4 1.7 3.3 2 3.9 4 7.8 6.1 11.7.4.5.8 1 1 1.5.3 1 1.1 1.7 1.7 2.5.5 4.1 4.4 7 4.3 11.4.6 1.1.8 2.3 1.7 3.3-.1 1.7 2.6 1.9 1.9 3.9-14.2 5-27.3 13-42.1 16.6-6.4 1.5-12.7.2-18.6-2.4-10.1-4.5-17.7-11-20.3-22.5-1.2-5.2-4-10-6.3-14.8-5.9-12.6-9.3-26.4-17-38.3-2-3.1-2.7-7-4-10.5-.5-1.3-.4-2.6.6-3.7.6-1.9 2.3-1.9 3.8-2.1.9-.8 2.2-.9 3.2-1.7 8.2-2.8 15.5-7.4 23.5-10.6 5.6-2.3 11-4.8 16.5-7.3.5-.4 1-.8 1.6-1 1-.3 1.7-1.1 2.4-1.7 3.3-1.5 6.5-4.5 9.9-.2.8.9.9 2.2 1.7 3.2.4 3.7 3 6.4 4.2 9.6.4.5.8 1 1 1.6.3 1 1.1 1.7 1.7 2.5 2 4.6 4.8 8.8 6.1 13.6.8.9.9 2.2 1.6 3.1z" fill="#3a3e49"/><path d="m637.4 588.2c-7.9 4.2-16.5 7.1-24.3 11.7-.8.5-1.9.3-2.9.4-1 .7-2.3.8-3.3 1.7l.1.2c-.5.4-1 .8-1.6 1-1 .3-1.7 1.1-2.5 1.7-3.4 1-5.9 4.1-9.7 4.1-1.6-1.3-2.3-3.2-2.9-5-4.1-12.2-10-23.7-14.8-35.6-2.3-5.8-5.8-11.3-7.9-17.3-4.9-14.4-3.5-30 9.2-39.8 9.8-7.6 21.2-12.2 32.2-17.5 4.3-2 8.8-3.5 10.6-8.5 3.5.7 1.7 4 2.7 6 2.7 5 5.6 10 7.2 15.5.8.9.9 2.2 1.7 3.2 1.3 4.9 3.9 9.1 6.1 13.6.4.5.8 1 1 1.5.3 1 1.1 1.7 1.7 2.5 1 3.9 4.3 7 4.3 11.3.6 1.1.8 2.4 1.7 3.3 4.3 8.9 9.4 17.5 12.1 27.1.6 1.1.8 2.4 1.7 3.3 2.8 3.3 2.3 5-2 6.5-5.9 2-11.1 5.8-17.3 7.4-.9.8-2.2.9-3.1 1.7z" fill="#3a3e49"/><g fill="#2c2c38"><path d="m619.8 485.3c0 5.1-2.3 7-9.5 9.8-12.6 4.9-25.1 10.4-35.1 19.5-4.5 4.1-8.1 9.8-8.6 17.1-.9 11.8 3.1 22 8.1 32.1 6.3 12.8 12 25.9 16.7 39.4.7 1.9 2.5 3.5 1.9 5.8-2.4 3.3-6.6 3.6-9.8 5.5-1.7 1-3.4 2.9-5.9 2.4-.9.8-2.2.9-3.2 1.7-2 .2-3.4.3-4-2.6-.6-3.2-3.7-5.5-3.7-9.1-1.6-1.2-.4-3.6-1.9-4.9-3.9-8.1-8.1-16.1-11.7-24.4-.7-1.7-2.4-3-2.3-5-.8-.9-.9-2.2-1.7-3.2.7-2.5-1.8-3.7-2.2-5.7-.4-.5-.7-1-1-1.5-.3-1-1.1-1.7-1.7-2.4-2.7-5.9-5.4-11.7-8.1-17.6-.8-.9-.9-2.2-1.7-3.2-.9-5.8-5-10.3-6.7-15.8-1.5-4.5-4.9-8.3-5.3-13.2-.8-1-.9-2.3-1.7-3.2-1.3-2.6-2.6-5.1-3.8-7.7 9.7-5.3 19.8-10 30.1-14 3.5-1.3 6.8-3.2 10-5 1.2-.7 2.5-.6 3.7-.8 1.1-.6 1-2.1 2.1-2.7 13.5-6 27.1-12 40.7-18 1.1-.5 1.7-2.1 3.3-1.7.1.6.2 1.2.2 1.7.5 1.2 2.1 1 2.7 2.2.9 4.2 3.3 7.8 5.1 11.5.7 1.4.7 2.6 1 3.9.8.9.9 2.2 1.7 3.2.4 2.2 3.2 3.4 2.3 5.9z"/><path d="m352 63.3c1.6 5.9 3.8 11.4 6.7 16.8 4.8 9.1 8 19 12.1 28.4 2.9 6.8 5.7 13.8 8.9 20.6 2 4 3.4 8.3 5.7 12.4 3.6 6.4 10.1 7.9 15.5 10.9 4.6 2.6 10.4 3.5 15.5 2 7.7-2.2 15.5-4.6 22.7-8.4 6.4-3.4 13.1-6.4 20.5-7.1 2.6 5.2 5.2 10.4 7.9 15.6-5.2 2.7-10.4 5.4-15.5 8.1-.9.8-2.2.9-3.1 1.7-1.2.1-2.4.1-3.6.2-1.1.6-1.1 2.1-2.1 2.7-7.2 3.4-14.3 6.7-21.5 10.1-.9.8-2.2.9-3.1 1.7-5.5.7-9.8 4.1-14.6 6.3-4.2 1.9-8.6 3.4-12.6 5.7-.9.8-2.2.9-3.1 1.7-.6.1-1.2.2-1.8.3-.7.5-1.2 1.4-2.1 1.6-1.2.1-2.4.2-3.7.2-1.1.6-1 2.2-2.1 2.7-.6 0-1.2 0-1.7 0-1-5.9-4.2-11-6.7-16.2-3.2-6.7-6.4-13.4-8.9-20.4-.6-1.7-2.4-2.5-2.3-4.4-.4-.5-.7-1-1-1.6-.3-1-1-1.7-1.7-2.4-2.7-5.9-5.4-11.7-8.1-17.6-.8-.9-.9-2.2-1.7-3.2-1-5.6-4.3-10.3-6.5-15.3-1.8-4-3.2-8.2-5.5-12-.8-.9-.9-2.2-1.7-3.2 0-4.3-4-7.2-4.2-11.5-.5-1.2-2.1-1-2.7-2.2-.9-2.3-1.4-4.9-2.8-6.9-2.7-3.7-1.3-4.8 2.5-4.9.9-.8 2.2-.9 3.1-1.7 2.2-.1 3.3-2.7 5.7-2.2.5-.3 1-.8 1.6-1 1-.3 1.7-1 2.5-1.8 4.3-2 8.3-5.3 13.5-5.7z"/><path d="m449.2 403.9c-2.1 4.5-5 8.1-9.8 9.8-1.1.7-1 2.2-2.1 2.8-2.9 2.4-6.1 4-9.9 4.2-7.6 1.6-14.7 5.2-23.1 2.4-3.9-1.3-8.3-2.9-12.8-2.7-.9-.8-2.2-.9-3.1-1.7-1.8.2-1.9-2.5-3.8-2.2-1.1-.6-1-2.1-2.1-2.7-9.5-6.9-15.4-16.1-17.7-27.6-1.3-1.5-.4-3.7-1.7-5.2-1.5-7.3 2.7-14.1 1.9-21.3.9-1.8 2.5-3.3 2.1-5.6.7-1 .9-2.3 1.7-3.3 4.5-6.1 8.8-12.5 16-15.9 1.7.3 2.1-2.1 3.7-1.9.9-.9 2.2-1 3.1-1.8 2.9.4 5.4-.5 7.7-2.1 1.5-1.3 3.4-.8 5.1-.9 1.6-.1 3.4.4 4.8-.9h3.8c1.4 1.3 3.2.8 4.8.9 2 .2 4.2-.5 6 .9 6.1 1.9 12 4.6 17.2 8.3 3 2.1 5.5 5 8.2 7.5.5.4.9.8 1.2 1.4.4 1 1.1 1.7 1.8 2.5 3 4.5 3.9 9.8 6.1 14.7 1.2 1.9 1 3.8.3 5.8 2 3.9 2.1 7.9 0 11.8.8 2.3 1 4.6-.3 6.8-2.8 4.3-2.2 10-5.9 13.9-1.2 1-2.5 1-3.2 2.1z"/></g><path d="m646.4 851.5c6.8-2 13.1-5 19.5-7.9 1 4.4 4.4 7.1 7.2 10.1 1.1 1.4 2.7 1.4 4.2 1.3 5.1.5 9.4-1.1 13.6-4.2 5-3.6 11.4-4.7 17-7.1 6.1-2.6 12.2-5.3 18.2-8.3 1.2-.6 2.4-.9 3.7-1 1.5.1 2.7-.7 3.9-1.5 11-5.2 22.1-10.2 32.9-15.9 2.5-1.3 5.3-1.7 7.8-2.7 1.7-.7 3.5-.6 5 .8.9 3.5 1.1 7.4 2.9 10.4 1.9 3.3.2 4.9-1.9 5.8-8.4 3.6-17 6.8-25.4 10.3-4.5 1.9-9.1 3.9-13.3 6.4-2.7 1.6-6.1.9-8.3 3.3-1 .9-2 1.9-3 2.9-6.7 2-13 5-19.4 7.8-10.8 4.8-21.9 9.2-32.8 13.9-4.8 2.1-9.1 5.2-14.5 5.8-1.1.7-1 2.2-2 2.9-1.4.1-2.7.5-4.1 1.1-6.7 3.1-13.5 5.8-20.3 8.7-1.4-.9-.7-2.9-2-3.9.5-3.2-3-5.5-2-8.8-1.3-1-.6-3-1.9-4 0-.6 0-1.3 0-1.9-1.3-1-.6-3-1.9-4 0-.6 0-1.3 0-1.9-1.3-1-.6-3-1.9-4 0-1.3 0-2.6 0-4 2.7-3.3 6.7-4.6 10.5-5.6 2.2-.6 4.1-1.6 6.2-2.3 1.1-.3.9-1.9 2.1-2.5z" fill="#c2cfe6"/><path d="m733.6 673.9c5.9-2.7 11.7-5.5 17.6-8.2.6-.4 1.1-.4 1.8-.2.1.2.3.3.4.5-1.2 4.6 2.7 7.6 3.6 11.6-.6.7-.8 2-1.7 2.3-7.4 2-13.5 7.1-21 8.9-1.5-.1-2.7.6-3.8 1.4-5 1.9-9.3 5.3-14.6 6.5-1.6.1-2 1.7-3.2 2.3-3.6 1.8-7.4 3.3-11 5.2-13.5 7-20.2 18.5-17.4 34.5.2 1.2 1.4 2.4.1 3.6-4.8 2.2-9 5.9-14.7 6.2-7.7.4-13-2.5-16.4-9.7-3.5-7.4-6.5-14.9-9-22.7 2.4-3.5 6.6-4 10-5.8 4.3-2.4 9-4.1 13.5-6.2.9-.8 2.2-.9 3.2-1.7 4.3.1 7.2-4.1 11.5-4.1 1.2-.5 1.1-2.1 2.2-2.7 12-5.3 23.9-10.6 35.9-15.8 3.3-1.4 6-4.2 9.9-4 .9-1 2.2-1 3.1-1.9z" fill="#8798ba"/><path d="m421.5 503.1c-.4 1.9 2.6 1.8 2.2 3.7.8.9.9 2.2 1.7 3.1 2.4 5.1 2.6 10.5 1.9 15.8-.7 4.9-1.8 9.9-5.7 13.6-1.1.8-1.7 1.9-1.9 3.3-.2.7-.6 1.2-1.1 1.6-4.7 3-8.6 6.8-14.4 8.4-12.1 3.4-22.5 1.1-31.6-7.4-.7-.7-2.7-1-2.1-2.8-.8-.9-.9-2.3-1.9-3.1-3.8-3.4-4.4-8.3-5.7-12.8-.4-1.5-.2-3.2-.3-4.8.4-3.9 3-7.5 2.2-11.6.8-.9.9-2.2 1.7-3.2 3.5-7.2 9.5-11.8 16.4-15.2 1.5-.7 3.5-.5 5.3-.7 1-.7 2.2-.9 3.3-1.6 10.6.1 20.2 3 27.3 11.5.6 1.2 2.1 1 2.7 2.2z" fill="#2c2c38"/><path d="m715 695.4c4.5-.2 7.7-3.3 11.6-4.9 1.4-.6 2.6-.9 4.1-1 .8-.9 2.2-.9 3-1.9 3.6 0 6.1-2.4 9.1-3.8 4.7-2.1 9.5-4.1 14.3-6.2 2.3 6.8 7.1 12.8 6 20.6-1.3 1-.6 3-1.9 4-1.5 4-5 5.8-8.4 7.2-6.4 2.7-12 7.1-19 8.5-.9.9-2.2.9-3.1 1.8-4.6 1.8-8.5 5.3-13.6 6-1.1.6-1 2.2-2.1 2.8-7.2 1.9-13.4 6.1-20.3 8.7-3.5 1.4-6.8 3.2-10.2 4.9-3.8-9.7-2.9-19.2 2.8-27.6 6.1-9 15.4-13.7 25.8-16.4.9-.5.8-2 1.9-2.7z" fill="#a9b7d4"/><path d="m672.8 854.4c-3.5-2.8-8.1-4.9-6.8-10.8.6-.1 1.2-.1 1.7-.2 1-.7 2.3-.8 3.2-1.7 9.9-3.6 18.8-9.6 29.1-12 1-.7 2.3-.8 3.2-1.7 3.2-1.4 6-3.8 9.7-4.1 1.2-.6 1-2.2 2.2-2.7 4.4-.6 7.9-3.4 11.9-5.2 1.2-.6 2.4-.7 3.6-.9.9-.8 2.2-.9 3.1-1.7 8.7-3.2 17.2-6.9 25.5-11.1 1.2-.6 2.4-.7 3.7-.9.9-.8 2.2-.9 3.2-1.7 2.9.3 4.7-2.8 7.7-2.3.1 6.6 3.2 12.2 6 17.9-7.6.8-14.6 3.2-20.9 7.8-4.6 3.4-10.3 4.8-15.6 6.9-3.2 1.3-5.8 4.1-9.6 4-.8 1-2.2.9-3 1.9-3.8-.1-6.5 2.5-9.6 4-9.3 4.4-19.4 7.2-28.4 12-5.2 2.8-9.9 5.4-15.9 4.6-1.1-1.5-3.1-.8-4-2.1z" fill="#edf3f7"/><path d="m684.5 665.8c-9.4 4-19.1 7.4-28.2 12-9.6 4.8-19.8 8.1-29.5 12.8-4.4 2.1-9.1 5.7-14.8 4.7-1.4-1.5-3.7-.4-5-1.8-1.6-.2-3.5.3-3.9-2.1.5-2.2 2.4-1.7 3.9-2.1.9-.8 2.2-.9 3.2-1.7 4.2-.4 7.4-3.2 11.2-4.6 5.5-2.1 10.7-4.9 16.1-7.4.9-.8 2.2-1 3.2-1.7 6.8-2 13.1-5 19.3-8.1.5-.4 1-.8 1.6-1 1-.3 1.7-1.1 2.5-1.7 11.1-3.7 21.1-9.7 32-13.7 1.6-.6 2.4-2.2 4.2-2.2 1-.8 2.2-1 3.3-1.7 7.7-1.7 14.4-5.7 21.5-9.1 1.2-.6 2.4-.8 3.6-1 1.2-.5 1-2.1 2.2-2.7 5.4-.4 9.5-3.9 14.3-5.9 6.1-2.5 12.3-4.8 18-8.1 1-.8 2.2-1.1 3.3-1.7 7.7-1.5 14.1-6 21.3-8.7l8.7-3.3c.5-.3 1-.7 1.6-1 1-.3 1.7-1.1 2.5-1.7l-.1-.2c.6-.5 1.2-.5 1.9-.3 1.3.7.9 2.5 2 3.4.7 2 2.6 3.5 2.2 5.9-3.4 1.1-6 4-9.8 4-.9.9-2.2.9-3.1 1.8-8.3 2.7-15.5 7.9-24.1 10.1-1.2.3-2.2 1.2-3.3 1.8-.9.9-2.2 1-3.1 1.8-2.9-.6-4.7 2.7-7.6 2.1-1.1.6-1 2.1-2.1 2.8-5.7.9-10.2 4.8-15.5 6.9-1.4.5-2.6 1-4 1.2-.9.9-2.2.9-3.1 1.8-1.3.2-2.5.3-3.7.9-12.4 6.4-25.6 11-38.3 16.8-.6.3-1.3.1-1.9.2-1.5.3-1.4 1.9-2.5 2.5z" fill="#376fb6"/><path d="m298.1 618.8c.9-3.2-2.2-7.2 1.9-9.9-1 3.3 2.1 7.3-1.9 9.9z" fill="#e7ecf4"/><path d="m819.9 561.8c-2.6 0-5.2 0-7.9 0 2.7-3.1 5.3-3.1 7.9 0z" fill="#e9edf6"/><path d="m556.9 828.1c-3.1-1.8-1.4-4.7-1.6-7.1 3.1 1.7 1.4 4.6 1.6 7.1z" fill="#bcc7e6"/><path d="m484.5 750.1c-2.4-.3-5.3 1.4-7.1-1.7 2.4.3 5.3-1.4 7.1 1.7z" fill="#c5cee9"/><path d="m556.9 919.2c-.6 0-1.2 0-1.8 0 .4-1.7-1.3-4.2 1.8-5z" fill="#2261ac"/><path d="m629.6 388.1c-2.6-.9-1.9-3-1.9-4.9 3 .7 1.6 3.2 1.9 4.9z" fill="#e5e8f5"/><path d="m564.9 602.1c3 .7 1.6 3.1 1.9 4.9-2.6-.9-1.8-3-1.9-4.9z" fill="#3b3944"/><path d="m832.6 574.7c-3.1-.7-1.6-3.2-1.9-4.9 3.1.6 1.6 3.1 1.9 4.9z" fill="#dfe5f2"/><path d="m637.4 717.9c.7-3 3.2-1.6 5-1.9-.9 2.7-3.1 1.7-5 1.9z" fill="#204e8e"/><path d="m607 732.6c.7-3 3.2-1.6 4.9-1.9-.8 2.7-3 1.8-4.9 1.9z" fill="#214d8d"/><path d="m454.3 748.5c-1.1 2.8-3.3 1.6-5.3 1.6 1-3 3.4-1.5 5.3-1.6z" fill="#939fd0"/><path d="m766 765.2c-.9 2.9-3.3 1.4-5 1.7.8-2.8 3.1-1.6 5-1.7z" fill="#95a2bc"/><path d="m393.2 780.7c-1.8-.4-4.2 1.2-5-1.9 1.8.4 4.3-1.2 5 1.9z" fill="#dbe3f0"/><path d="m730.6 854.3c-.1-2.2.8-3.1 3-2.9.2 2.3-.8 3.2-3 2.9z" fill="#e3eaf4"/><path d="m574.6 884.7c-.2-2.2.9-3.1 3.1-2.8.7 1 .7 1.9-.2 2.8-.9 0-1.9 0-2.9 0z" fill="#9da9c1"/><path d="m328.4 914.2v2.9c-.9.9-1.8.9-2.8.2-.4-2.2.5-3.3 2.8-3.1z" fill="#99a4d2"/><path d="m418.8 542.3c-.3-2.2.6-3.3 2.9-3 0 .9 0 1.9-.1 2.8-.9 1-1.8.9-2.8.2z" fill="#4b4852"/><path d="m296.1 977.2c.2 2.3-1 3-3.1 2.7-.7-1-.7-1.9.2-2.7z" fill="#595660"/><path d="m301.9 653.2c-2.6-.4-1.8-2.4-1.9-4 2.6.4 1.8 2.4 1.9 4z" fill="#dfe6f2"/><path d="m783.5 778.8c-2.5-.6-1.7-2.5-1.7-4.1 2.4.6 1.7 2.5 1.7 4.1z" fill="#a5aec5"/><path d="m781.7 786.8c0-1.6-.7-3.5 1.7-4.1.1 1.6.8 3.5-1.7 4.1z" fill="#a5afc5"/><path d="m761.1 702.2c.1-1.6-.6-3.5 1.9-4-.1 1.7.6 3.6-1.9 4z" fill="#d1d7e7"/><path d="m250.9 1026c0 1.6.9 3.6-1.7 4.1 0-1.6-1-3.6 1.7-4.1z" fill="#5b5861"/><path d="m802.2 602.3c-.7-.1-1.3-.2-2-.2.4-2.5 2.4-1.7 4-1.9 0 .7-.1 1.4-.1 2.1-.6.4-1.3.4-1.9 0z" fill="#95b7e0"/><path d="m302 594.3c.1-1.6-.7-3.6 1.9-4-.1 1.6.7 3.6-1.9 4z" fill="#d8e2ef"/><path d="m650.1 436.2c.1-1.3.1-2.6.2-3.9 1.6.2 1.9 1.3 1.8 2.7-.1 1.2-1 1.2-2 1.2z" fill="#8c99cb"/><path d="m559.2 710.2c-.1 1.3-.3 2.6-.4 3.9-1.2-.1-1.8-.7-1.9-1.9.2-1.5.9-2.2 2.3-2z" fill="#adbcdc"/><path d="m830.7 584.5c.1-1.6-.7-3.6 1.9-4-.1 1.6.7 3.6-1.9 4z" fill="#dae1ef"/><path d="m309.8 683.6c-2.6-.4-1.8-2.4-1.9-4 2.6.4 1.8 2.5 1.9 4z" fill="#e4eaf3"/><path d="m313.7 695.4c-2.6-.4-1.8-2.4-1.9-4 2.6.4 1.8 2.4 1.9 4z" fill="#e0e6f2"/><path d="m627.7 866.1c2.6.4 1.8 2.4 1.9 4-2.6-.4-1.8-2.4-1.9-4z" fill="#e5eaf3"/><path d="m629.6 872c2.6.4 1.8 2.4 1.9 4-2.6-.4-1.7-2.4-1.9-4z" fill="#e5eaf3"/><path d="m303.9 661.1c-2.6-.4-1.8-2.4-1.9-4 2.6.4 1.8 2.4 1.9 4z" fill="#e8ecf5"/><path d="m635.5 890.7c2.5.4 1.8 2.4 2 3.9-2.7-.3-1.8-2.4-2-3.9z" fill="#e5eaf3"/><path d="m307.8 677.7c-2.6-.4-1.8-2.4-1.9-4 2.6.4 1.8 2.5 1.9 4z" fill="#dfe6f2"/><path d="m305.9 671.8c-2.6-.4-1.8-2.4-1.9-4 2.5.4 1.8 2.5 1.9 4z" fill="#d8dfee"/><path d="m631.6 877.9c2.6.4 1.8 2.4 1.9 4-2.6-.4-1.8-2.4-1.9-4z" fill="#e5eaf3"/><path d="m613.8 353.8c-2.1-.2-1.9-1.7-1.7-3.2 2.3.2 1.8 1.8 1.7 3.2z" fill="#7a93cb"/><path d="m637.5 407.7c0-.6 0-1.3 0-1.9 1.4.1 3 0 2.7 2.2-.9.6-1.8.6-2.7-.3z" fill="#aab3da"/><path d="m637.5 407.7c.9.1 1.8.1 2.8.2v1.9c-1.4-.1-2.9 0-2.8-2.1z" fill="#375b9f"/><path d="m644.2 416.9c-2.5-.1-1.7-1.9-1.7-3.3 2.1.3 1.8 1.9 1.7 3.3z" fill="#d5d8ed"/><path d="m637.3 442c.2-2.2 1.8-1.8 3.2-1.7-.1 2.3-1.8 1.8-3.2 1.7z" fill="#7485be"/><path d="m627.6 446.9c0-1.4 0-2.9 2.1-2.8.7 1 .7 1.9-.2 2.8-.6 0-1.3 0-1.9 0z" fill="#2f579a"/><path d="m629.5 446.9c.1-.9.1-1.8.2-2.8h1.9c-.1 1.5.1 3.1-2.1 2.8z" fill="#a0abd6"/><path d="m607.2 456.8c-.3-2.7 1.6-1.7 2.9-1.8 0 2.1-1.5 1.9-2.9 1.8z" fill="#7586be"/><path d="m609.8 460.9c-1.4-.1-3.1.1-2.7-2.2 1.3.2 3.2-.3 2.7 2.2z" fill="#8d8990"/><path d="m511.8 500.9c.2-2.2 1.8-1.8 3.2-1.7-.1 2.3-1.8 1.8-3.2 1.7z" fill="#536ead"/><path d="m425.4 509.9c-2.2-.2-1.8-1.8-1.7-3.1.6.1 1.2.1 1.8.2 0 1-.1 1.9-.1 2.9z" fill="#746f79"/><path d="m465.9 506.7c2.3.2 1.8 1.8 1.7 3.2-2.3-.1-1.8-1.7-1.7-3.2z" fill="#7888c0"/><path d="m494.2 509.7c0-1.4 0-2.9 2.1-2.8.7 1 .7 1.9-.2 2.8-.6 0-1.3 0-1.9 0z" fill="#2f579a"/><path d="m496.1 509.7c.1-.9.1-1.8.2-2.8h1.9c-.1 1.5.1 3.1-2.1 2.8z" fill="#a0acd4"/><path d="m520.9 506.9c2.1.2 1.8 1.8 1.7 3.2-2.5-.1-1.8-1.8-1.7-3.2z" fill="#53515a"/><path d="m631.4 510c-2.3-.1-1.7-1.8-1.7-3.2 2.3.2 1.8 1.8 1.7 3.2z" fill="#9f9ca3"/><path d="m481.4 515.6c.2-2.2 1.8-1.8 3.2-1.7-.1 2.4-1.8 1.8-3.2 1.7z" fill="#536ead"/><path d="m637.6 525.4c0-.6 0-1.3 0-1.9 1.4 0 2.9 0 2.8 2.1-1.1.7-2 .8-2.8-.2z" fill="#d9d7d8"/><path d="m637.6 525.4c.9.1 1.8.2 2.8.2 0 .6 0 1.3-.1 1.9-1.5 0-3 .2-2.7-2.1z" fill="#7e7c85"/><path d="m336.3 542.2c0-1.4 0-2.9 2-2.9 0 1.4 0 2.9-2 2.9z" fill="#dae3ef"/><path d="m368.7 539.3c2.2.1 2 1.7 1.9 3.1-2.5.1-1.8-1.7-1.9-3.1z" fill="#484550"/><path d="m534.6 539.1c2.4.1 1.8 1.8 1.7 3.2-2.2-.2-1.8-1.8-1.7-3.2z" fill="#c2bfc4"/><path d="m646.2 542.3c-2.2-.3-1.9-1.9-1.7-3.3 2.6 0 1.6 1.9 1.7 3.3z" fill="#575860"/><path d="m418.8 542.3c.9-.1 1.9-.1 2.8-.2 0 2.2-1.5 2.1-3 2 .1-.5.1-1.2.2-1.8z" fill="#dbd8da"/><path d="m325.5 552.1c.1-2 1.5-2 2.9-2 0 2-1.5 2-2.9 2z" fill="#e3e9f3"/><path d="m544.4 559.9c1.4 0 2.9 0 2.7 2.1-1 .7-1.9.7-2.8-.2.1-.7.1-1.3.1-1.9z" fill="#5d5b64"/><path d="m544.3 561.7c.9.1 1.9.2 2.8.2v1.9c-1.5.1-2.9 0-2.8-2.1z" fill="#dddade"/><path d="m796.4 567.8c-.2 2-1.6 2-3 1.9.1-2 1.6-2 3-1.9z" fill="#e2e7f2"/><path d="m549.3 569.6c2.4.1 1.8 1.8 1.7 3.2-2.2-.3-1.8-1.8-1.7-3.2z" fill="#b8b5b9"/><path d="m659.9 572.7c-2.2-.3-1.9-1.8-1.7-3.3 2.6.1 1.6 2 1.7 3.3z" fill="#5e5d67"/><path d="m791.5 569.8c0 1.4 0 2.9-2 2.9 0-1.5 0-2.9 2-2.9z" fill="#dce3f0"/><path d="m617.7 479.5c-2.1-.2-1.8-1.8-1.7-3.2 2.4.1 1.8 1.7 1.7 3.2z" fill="#615e66"/><path d="m637.4 588.2c.2-2.2 1.8-1.8 3.2-1.7-.1 2.5-1.8 1.8-3.2 1.7z" fill="#706e77"/><path d="m400.9 41.6c-.6 0-1.3 0-1.9 0 .1-1.4-.1-3 2.1-2.7.7.9.8 1.8-.2 2.7z" fill="#aeabb2"/><path d="m733.6 596.3c-.2 2-1.6 2-3 1.9.2-2 1.6-2 3-1.9z" fill="#e2e7f2"/><path d="m607 602c.3-2.2 1.8-1.9 3.3-1.7-.1 2.5-1.9 1.7-3.3 1.7z" fill="#66646e"/><path d="m400.9 41.6c.1-.9.2-1.8.2-2.7h1.9c0 1.3 0 2.8-2.1 2.7z" fill="#5b5a64"/><path d="m414.6 41.8c-2.3-.1-1.7-1.8-1.7-3.2 2.3.1 1.9 1.8 1.7 3.2z" fill="#9b98a0"/><path d="m603.1 604.9c.1-1.4 0-2.9 2.1-2.7.7 1 .7 1.9-.2 2.8-.7 0-1.3-.1-1.9-.1z" fill="#706e77"/><path d="m605 605c.1-.9.2-1.8.2-2.8h1.9c-.1 1.4-.1 2.9-2.1 2.8z" fill="#d0ced1"/><path d="m418.8 53.3c0-.6 0-1.3 0-1.9 1.4.1 2.9 0 2.7 2.1-.9.7-1.9.8-2.7-.2z" fill="#c7c5c9"/><path d="m802.2 602.3h1.9v2.9c-1.9-.2-1.9-1.6-1.9-2.9z" fill="#4f79bc"/><path d="m418.8 53.3c.9.1 1.8.2 2.7.2v1.9c-1.4 0-2.9.1-2.7-2.1z" fill="#706d76"/><path d="m359 59.5c-.1 2.3-1.8 1.7-3.2 1.7.2-2.3 1.8-1.8 3.2-1.7z" fill="#a19da4"/><path d="m574.5 618.7c.1-2.4 1.8-1.8 3.2-1.7-.2 2.2-1.8 1.8-3.2 1.7z" fill="#a5a0a6"/><path d="m670.8 624.7c-.2 2-1.6 2-3 1.9.2-2 1.6-1.9 3-1.9z" fill="#dee4f0"/><path d="m652.2 632.6c-.1 1.4 0 2.9-2 2.9 0-1.5 0-2.9 2-2.9z" fill="#e2e7f2"/><path d="m336.2 72c-.6 0-1.3 0-1.9-.1.2-1.3-.3-3.1 2.1-2.7.7 1 .7 2-.2 2.8z" fill="#928e96"/><path d="m336.2 72c.1-.9.1-1.8.2-2.8.6 0 1.2 0 1.9-.1 0 1.6-.1 3-2.1 2.9z" fill="#3c3b45"/><path d="m429.3 72.2c-2.4-.1-1.7-1.8-1.7-3.2 2.3.2 1.9 1.8 1.7 3.2z" fill="#a4a2a7"/><path d="m585.5 663c0 1.4 0 2.9-2 2.9 0-1.4 0-2.9 2-2.9z" fill="#dbe2ef"/><path d="m753.3 663.1h1.9c-.1 1.3.1 2.8-1.9 2.9 0 0-.4-.3-.4-.3-.5-.9-.5-1.9.4-2.6z" fill="#94a0cf"/><path d="m328.5 74.2c-.2 2.2-1.8 1.8-3.1 1.7.1-2.4 1.7-1.9 3.1-1.7z" fill="#6f6b74"/><path d="m325.7 87.7c1.4.1 3 0 2.7 2.2-1.3-.3-3.3.4-2.7-2.2z" fill="#716c77"/><path d="m332.5 101.3c2.4.1 1.8 1.8 1.7 3.2-2.2-.2-1.8-1.7-1.7-3.2z" fill="#b9b6bc"/><path d="m443.1 104.5c-2.2-.3-1.9-1.8-1.7-3.3 2.6.1 1.7 1.9 1.7 3.3z" fill="#585861"/><path d="m449.2 118.1c0-.6 0-1.2 0-1.9 1.5 0 2.9 0 2.8 2.1-1 .7-1.9.7-2.8-.2z" fill="#e4e3e3"/><path d="m449.2 118.1c.9.1 1.8.1 2.8.2 0 .6-.1 1.3-.1 1.9-1.4 0-3 .2-2.7-2.1z" fill="#8a8891"/><path d="m346.3 131.8c2.4.1 1.8 1.8 1.7 3.2-2.3-.2-1.9-1.8-1.7-3.2z" fill="#afabaf"/><path d="m457.8 134.9c-2.2-.3-1.8-1.8-1.7-3.3 2.6.1 1.7 2 1.7 3.3z" fill="#62606a"/><path d="m514.7 138.9c-1.4-.1-3 0-2.7-2.2 1.4.2 3 0 2.7 2.2z" fill="#92a5d5"/><path d="m484.7 146.9c-.2 2.3-1.9 1.7-3.3 1.7.3-2.2 1.8-1.9 3.3-1.7z" fill="#c8d0ea"/><path d="m356.1 152.5c1.4 0 2.9.1 2.7 2.1-1 .7-1.9.7-2.8-.2 0-.6 0-1.2.1-1.9z" fill="#514e59"/><path d="m356 154.4c.9.1 1.9.2 2.8.2 0 .6 0 1.3-.1 1.9-1.4 0-2.9 0-2.7-2.1z" fill="#cac7c9"/><path d="m544.2 717.9c.2-2 1.6-1.9 3-1.9-.1 2-1.5 2-3 1.9z" fill="#e0e6f1"/><path d="m730.6 719.8c.2-2 1.6-1.9 3.1-1.8-.3 2-1.7 1.9-3.1 1.8z" fill="#c5cee2"/><path d="m328.4 725.8c-1.4 0-2.9 0-2.9-2 1.5 0 2.9 0 2.9 2z" fill="#d7dfee"/><path d="m563 725.6c2.3.2 1.8 1.8 1.7 3.3-2.2-.3-1.8-1.9-1.7-3.3z" fill="#8997ca"/><path d="m617.8 728.6c.1-1.4 0-2.9 2.1-2.7.7 1 .7 1.9-.2 2.8-.7-.1-1.3-.1-1.9-.1z" fill="#536ead"/><path d="m619.7 728.7c.1-.9.2-1.9.2-2.8h1.9c0 1.4-.1 2.9-2.1 2.8z" fill="#d8dcef"/><path d="m714.9 728.6c.1-1.4 0-2.9 2.1-2.8-.1 1.5-.1 3-2.1 2.8z" fill="#d6dbe8"/><path d="m574.5 748.2c.2-2.3 1.8-1.8 3.2-1.7-.2 2.3-1.8 1.8-3.2 1.7z" fill="#8794c7"/><path d="m423.5 761.1c-.6 0-1.3 0-1.9 0 .1-1.4 0-3 2.1-2.8.7 1 .7 1.9-.2 2.8z" fill="#afb8dc"/><path d="m423.5 761.1c.1-.9.2-1.9.2-2.8h1.9c0 1.4 0 2.9-2.1 2.8z" fill="#2b5597"/><path d="m421.7 761.2c-.2 2.1-1.7 1.9-3.2 1.8.1-2.4 1.8-1.8 3.2-1.8z" fill="#4363a4"/><path d="m542.3 791.6c-2.2-.2-1.9-1.7-1.8-3.2 2.3 0 1.8 1.8 1.8 3.2z" fill="#4f79bc"/><path d="m709.1 788.7c-.1 1.4-.1 2.9-2.1 2.7-.7-1-.7-1.9.2-2.8.6.1 1.3.1 1.9.1z" fill="#abb4c9"/><path d="m779.7 791.6c-.1-1.4-.2-2.9 1.8-3.1.2 1.5.3 3-1.8 3.1z" fill="#b2bbce"/><path d="m703.4 791.7c-.3 2-1.8 1.8-3.2 1.7.3-2.1 1.7-1.9 3.2-1.7z" fill="#d2d5e1"/><path d="m544.4 795.4c0-.6 0-1.2 0-1.9 1.5 0 2.9 0 2.8 2.1-1.1.7-2 .7-2.8-.2z" fill="#d4daef"/><path d="m544.4 795.4c.9.1 1.9.2 2.8.2v1.9c-1.5-.1-3 0-2.8-2.1z" fill="#6e8bc7"/><path d="m359.1 205.7c-.1 2.4-1.9 1.8-3.3 1.7.3-2.1 1.9-1.8 3.3-1.7z" fill="#bec5e4"/><path d="m671.1 805.5c-.3 2.1-1.8 1.8-3.2 1.7.2-2.2 1.7-1.9 3.2-1.7z" fill="#e1e3eb"/><path d="m544.4 207.4c0-.6 0-1.3 0-1.9 1.4.1 2.9 0 2.7 2.1-1 .7-1.9.8-2.7-.2z" fill="#c1cae7"/><path d="m544.4 207.4c.9.1 1.8.2 2.8.2v1.9c-1.5 0-3 0-2.8-2.1z" fill="#6b89c5"/><path d="m336.5 227c2.2.2 1.8 1.8 1.7 3.2-2.4-.1-1.9-1.7-1.7-3.2z" fill="#7485bd"/><path d="m640.5 819.2c-.3 2-1.7 1.9-3.2 1.7.3-2.1 1.8-1.9 3.2-1.7z" fill="#bcc2d2"/><path d="m556.9 230.3c-2.2-.2-1.8-1.8-1.7-3.2 2.1.2 1.8 1.7 1.7 3.2z" fill="#acb9df"/><path d="m633.4 823.9c-.6 0-1.3 0-1.9 0 0-1.4 0-2.9 2.1-2.8.7.9.8 1.9-.2 2.8z" fill="#e1e3eb"/><path d="m633.4 823.9c.1-.9.1-1.9.2-2.8.6 0 1.3 0 1.9.1 0 1.3 0 2.8-2.1 2.7z" fill="#abb5ca"/><path d="m350.2 257.5c2.2.2 1.8 1.8 1.7 3.2-2.4-.1-1.8-1.8-1.7-3.2z" fill="#677bb7"/><path d="m610 833.8c-.3 2.1-1.8 1.9-3.3 1.7.3-2 1.9-1.7 3.3-1.7z" fill="#95a2bc"/><path d="m577.7 847.6c-.3 2.1-1.7 1.9-3.2 1.7.2-2 1.7-1.8 3.2-1.7z" fill="#a0acc4"/><path d="m307.9 851.4c2 .1 2 1.5 2 2.9-2.1 0-2-1.4-2-2.9z" fill="#e2e8f2"/><path d="m570.6 260.7c-2.2-.2-1.8-1.8-1.7-3.2 2.1.3 1.9 1.8 1.7 3.2z" fill="#b5c1e3"/><path d="m566.9 851.6c-.1 1.4 0 2.9-2.2 2.7.2-1.4.1-3 2.2-2.7z" fill="#bcc2d2"/><path d="m707.2 788.7c-.1.9-.1 1.9-.2 2.8-.6 0-1.3 0-1.9 0 0-1.5 0-2.9 2.1-2.8z" fill="#e0e3ea"/><path d="m356 270.3c1.4 0 2.9 0 2.7 2.1-1 .7-1.9.7-2.8-.2.1-.6.1-1.3.1-1.9z" fill="#3b5ea1"/><path d="m574.8 272.2c0-.6 0-1.3 0-1.9 1.4 0 2.9 0 2.8 2.1-1 .7-2 .7-2.8-.2z" fill="#dde1f2"/><path d="m356 272.2c.9.1 1.8.1 2.8.2v1.9c-1.4 0-3 0-2.8-2.1z" fill="#b1b9db"/><path d="m574.8 272.2c.9.1 1.8.1 2.8.2 0 .6 0 1.3-.1 1.9-1.4 0-3 .1-2.7-2.1z" fill="#879cd0"/><path d="m607 870c.3-2.1 1.7-1.9 3.2-1.7-.3 2-1.8 1.8-3.2 1.7z" fill="#a7b2c8"/><path d="m364.9 287.9c2.2.2 1.8 1.8 1.7 3.2-2.4-.1-1.8-1.8-1.7-3.2z" fill="#5c73b2"/><path d="m585.3 291.2c-2.3-.2-1.7-1.8-1.7-3.2 2.1.2 1.9 1.7 1.7 3.2z" fill="#bfc8e6"/><path d="m344 881.8c.1 1.4.6 3.1-1.7 3.2-.1-1.4-.5-3 1.7-3.2z" fill="#99a4d2"/><path d="m378.6 320.1c2.5.1 1.8 1.9 1.7 3.3-2.1-.3-1.8-1.8-1.7-3.3z" fill="#d5daee"/><path d="m577.5 884.7c.1-.9.1-1.9.2-2.8h1.9c0 1.5 0 2.9-2.1 2.8z" fill="#d0d3df"/><path d="m661.9 884.8c0-1.4 0-2.9 2-2.9 0 1.4.1 2.9-2 2.9z" fill="#dde5f0"/><path d="m599.1 323.4c-2.1-.3-1.9-1.8-1.7-3.2 2.3.2 1.7 1.8 1.7 3.2z" fill="#718dc7"/><path d="m607.1 342.9c0-.6 0-1.3 0-1.9 1.4.1 2.9 0 2.7 2.1-.9.7-1.8.7-2.7-.2z" fill="#b3c0e2"/><path d="m325.6 917.3c.9-.1 1.8-.1 2.8-.2.1 2.1-1.4 2.1-2.8 2.1 0-.6 0-1.3 0-1.9z" fill="#275395"/><path d="m607.1 342.9c.9.1 1.8.1 2.8.2v1.9c-1.4 0-2.9-.1-2.8-2.1z" fill="#6082c1"/><path d="m368.6 350.8c-.1 1.4.8 3.2-1.7 3.3-.2-1.5-.5-3.1 1.7-3.3z" fill="#d4d1d5"/><path d="m313.6 944.3c.1 1.5.4 3.1-1.7 3.4 0-1.4-.8-3.3 1.7-3.4z" fill="#275395"/><path d="m293.3 977.2c-.1.9-.2 1.8-.2 2.7-.6 0-1.3 0-1.9 0 0-1.4-.2-3 2.1-2.7z" fill="#b0adb2"/><path d="m850.4 979.9c-2 .1-2.1-1.3-2.1-2.7h1.9c.9.9.9 1.8.2 2.7z" fill="#53525e"/><path d="m850.4 979.9c0-.9-.1-1.8-.1-2.7h1.9c.9.8.9 1.8.2 2.7-.7 0-1.3 0-2 0z" fill="#7f7c84"/><path d="m852.4 979.9c-.1-.9-.1-1.8-.2-2.7 2.1-.2 2.1 1.3 2.1 2.7-.7 0-1.3 0-1.9 0z" fill="#c4c1c6"/><path d="m859.3 981.8c-1.4 0-3 .7-3.2-1.7 1.4-.1 3-.6 3.2 1.7z" fill="#908e95"/><path d="m265.6 997.6c0 2.1-1.4 2.1-2.9 2.1-.3-2.6 1.6-1.9 2.9-2.1z" fill="#4c4a53"/><path d="m889.4 1007.6c-1.4-.1-3 .1-2.7-2.1 1.3.2 3.2-.5 2.7 2.1z" fill="#74717a"/><path d="m256.8 1007.5c0 1.4.7 3.2-1.8 3.2-.1-1.5-.4-3 1.8-3.2z" fill="#d5d2d6"/><path d="m891.4 1010.7c-2.5 0-1.8-1.8-1.8-3.2 2.1.2 1.9 1.7 1.8 3.2z" fill="#e0dee1"/><path d="m249 588.4c0-2.9 0-5.7 0-8.6 0-1.5-.1-3 1.9-3.2v8.6c.1 1.4.1 2.9-1.9 3.2z" fill="#d7e1ee"/><path d="m252.9 647.3c-3.5-1.1-1.3-3.9-1.9-5.9 3.5 1 1.3 3.9 1.9 5.9z" fill="#d1dcec"/><path d="m251 569.7c.6-2-1.6-4.9 1.9-5.9-.6 2 1.6 4.9-1.9 5.9z" fill="#d8e1ef"/><path d="m362.9 381c3 1 1.5 3.4 1.7 5.2-3-1-1.5-3.4-1.7-5.2z" fill="#b8c1d0"/><path d="m256.9 544.2c.4-1.7-1.2-4.3 1.9-4.9-.4 1.7 1.2 4.2-1.9 4.9z" fill="#d8e3ef"/><path d="m304 793.5c.4-1.7-1.2-4.2 1.9-4.9-.4 1.8 1.2 4.2-1.9 4.9z" fill="#dde6f1"/><path d="m267.6 702.2c-2.6-.4-1.8-2.4-1.9-3.9 2.6.4 1.8 2.4 1.9 3.9z" fill="#d3deed"/><path d="m269.6 708.1c-2.6-.3-1.8-2.4-1.9-3.9 2.6.3 1.7 2.4 1.9 3.9z" fill="#d9e3ef"/><path d="m317.7 432.3c-2.6-.3-1.8-2.4-2-3.9 2.6.3 1.8 2.4 2 3.9z" fill="#d6e0ee"/><path d="m260.8 683.6c-2.6-.4-1.8-2.4-1.9-4 2.5.4 1.7 2.4 1.9 4z" fill="#d5dfee"/><path d="m258.8 537.3c.2-1.6-.7-3.6 1.9-4-.1 1.7.7 3.7-1.9 4z" fill="#d9e3f0"/><path d="m253 558c.1-1.6-.7-3.6 1.9-4-.2 1.6.7 3.6-1.9 4z" fill="#d9e3f0"/><path d="m382.3 413.7c2.3-.3 1.9 1.4 2.1 2.7-2.3.4-1.9-1.3-2.1-2.7z" fill="#7e7f8d"/><path d="m388.3 418.7c1.5-.2 3.1-.6 3.1 1.7-1.4.1-2.9.3-3.1-1.7z" fill="#bac1d1"/><path d="m437.5 444c2.1.2 1.8 1.7 1.7 3.1-2.3-.1-1.8-1.7-1.7-3.1z" fill="#4575af"/><path d="m449.2 470.5c1.4.1 3-.1 2.7 2.2-1.3-.2-3 .1-2.7-2.2z" fill="#4c7db4"/><path d="m298.1 479.4c0-1.4 0-2.9 2-2.9-.1 1.4 0 2.8-2 2.9z" fill="#d7e1ee"/><path d="m452.2 476.2c2.4.1 1.8 1.9 1.7 3.3-2.1-.3-1.8-1.9-1.7-3.3z" fill="#aac0df"/><path d="m391.5 489.5c-.2 2.4-1.9 1.6-3.3 1.6.3-2.3 1.9-1.8 3.3-1.6z" fill="#8f93a1"/><path d="m421.5 503.1c-1.3-.2-3.1.2-2.8-2.1 1.4.1 3.1-.2 2.8 2.1z" fill="#828592"/><path d="m366.6 506.9c.2 1.5.7 3.1-1.7 3.2-.1-1.5-.4-3 1.7-3.2z" fill="#b6bdcc"/><path d="m265.7 695.4c-1.4 0-2.9 0-2.9-2 1.4 0 2.8 0 2.9 2z" fill="#d9e1ee"/><path d="m393.1 788.5c.1 1.4.2 2.9-1.8 3.1 0-1.4-.5-3.1 1.8-3.1z" fill="#185594"/><path d="m391.1 791.5c.4 2.4-1.4 1.9-2.7 2.2-.2-2.2 1.3-2.1 2.7-2.2z" fill="#7a9ec9"/><path d="m360.7 851.3c.1 1.4.4 2.9-1.7 3.1-.1-1.4-.5-3 1.7-3.1z" fill="#4675ac"/><path d="m358.8 856.2c.3 2.2-1.3 2-2.7 2.1-.5-2.3 1.4-1.9 2.7-2.1z" fill="#4576ac"/><path d="m479.6 194.6c.1-3.1-2-5.3-3.2-7.9-2.6-5.5-.3-13.8 5-17.5.8-.9 2.2-.9 3-1.8.6-.1 1.2-.1 1.8-.2 1.2-.5 1-2.1 2.2-2.7h7.6c1.2.5 1 2.1 2.2 2.7 3.5-.3 5.7 2.3 6.8 4.6 2.4 4.9 5.9 9.4 6.9 15 .5 1.2 2.1 1.1 2.8 2.1.5 2 2.7 3.3 2.2 5.7.8.9.9 2.3 1.8 3.1 4.5 8.8 9 17.6 13.5 26.4.4.8.3 1.9.5 2.8.8.9.9 2.3 1.8 3.1 1.9 4.3 4.2 8.5 5.7 12.9 1.2 3.8.3 11.1-5.5 14.6-1.1.7-1 2.2-2.1 2.8-.6.1-1.2.1-1.8.2-1.1 1.2-3 .6-4.1 1.8-3.4.2-6.8.4-9.7-1.9-1.1-.6-1-2.2-2.1-2.8-.7-1-2.2-1-3-2-4-3.6-4.9-8.9-7.6-13.3-2.4-3.9-4.1-8.1-6.2-12.2-.9-.9-1-2.2-1.8-3.2-1.7-7.1-6.1-12.9-8.9-19.4-.9-2-2-3.9-3-5.9-.4-.5-.8-1-1-1.5-.3-1-1.1-1.7-1.8-2.5l-.2.1c-.9-.8-1-2.2-1.8-3.1z" fill="#28b7e9"/><path d="m536.5 424.4c-2-.5-4.8 1.5-5.9-1.9 1.9.5 4.7-1.5 5.9 1.9z" fill="#1757a1"/><path d="m579.6 422.5c-.8 3-3.2 1.6-5 1.8.8-2.9 3.3-1.5 5-1.8z" fill="#1d5da9"/><path d="m384.2 194.6c.1-1.4.8-1.9 2.1-1.6 0 1.6 0 3.2-.1 4.8-2-.2-1.8-1.8-2-3.2z" fill="#285da4"/><path d="m528.6 422.4c-1.6 0-3.6.7-4-1.8 1.6.1 3.5-.7 4 1.8z" fill="#1659a4"/><path d="m526.6 262.4c.5-2.5 2.5-1.7 4.1-1.8-.6 2.5-2.5 1.8-4.1 1.8z" fill="#319dd8"/><path d="m459.8 353.8c-2-.2-1.9-1.7-1.8-3.1 2 .2 2 1.7 1.8 3.1z" fill="#134c93"/><path d="m484.4 394.1c-1.4-.1-2.9 0-2.9-2 1.4 0 2.9-.1 2.9 2z" fill="#2662ae"/><path d="m610.1 409.8c-.2 2-1.6 1.9-3.1 1.8.2-2 1.7-1.9 3.1-1.8z" fill="#145aa9"/><path d="m511.9 416.5c-2.1.2-2-1.4-2.1-2.8 2.1-.1 2.1 1.4 2.1 2.8z" fill="#0b57a6"/><path d="m601.2 413.7c-.1 1.4 0 2.9-2.1 2.8.1-1.4 0-2.9 2.1-2.8z" fill="#09519c"/><path d="m448.9 164.3c.1-2.2 1.7-1.9 3.1-1.7-.2 2-1.6 1.7-3.1 1.7z" fill="#3f63a2"/><path d="m443.2 167.1c0-1.4.1-2.8 2.1-2.7-.3 1.2.4 3.2-2.1 2.7z" fill="#333c51"/><path d="m488.5 164.5c-.1 1.4-.1 2.9-2.2 2.7.1-1.4 0-3 2.2-2.7z" fill="#3197d4"/><path d="m498.3 167.2c-2.1.2-2.1-1.3-2.2-2.7 2.1-.3 2 1.3 2.2 2.7z" fill="#3494d1"/><path d="m484.5 167.4c-.2 2-1.6 1.9-3 1.8.1-2 1.5-1.9 3-1.8z" fill="#3298d4"/><path d="m418.5 179c.1-2.2 1.7-1.9 3.1-1.7-.2 2-1.7 1.8-3.1 1.7z" fill="#3f63a2"/><path d="m514.8 188.9c-1.4-.1-2.9 0-2.8-2.1 1.4.1 2.9 0 2.8 2.1z" fill="#2e9dd8"/><path d="m388.1 192.7c.2-2.2 1.7-1.9 3.1-1.7-.2 2-1.6 1.8-3.1 1.7z" fill="#3f5e91"/><path d="m479.6 194.6c2 .3 1.9 1.7 1.8 3.2-2-.3-1.9-1.7-1.8-3.2z" fill="#347cc0"/><path d="m518.7 197.8c-2-.2-1.9-1.7-1.8-3.1 2 .2 1.9 1.6 1.8 3.1z" fill="#2f9cd7"/><path d="m481.6 197.7c1.4.1 2.9.1 2.8 2.1-1 .7-1.9.7-2.8-.1-.1-.7 0-1.4 0-2z" fill="#2da2dc"/><path d="m481.5 199.6c.9 0 1.9.1 2.8.1v1.9c-1.4 0-2.8 0-2.8-2z" fill="#347cc0"/><path d="m388.3 205.5c0-.6 0-1.3 0-1.9 1.4 0 2.8 0 2.8 2.1-.9.7-1.8.7-2.8-.2z" fill="#1f60ad"/><path d="m388.3 205.5c1 0 1.9.1 2.9.1v1.9c-1.5 0-2.9 0-2.9-2z" fill="#164a8b"/><path d="m496.3 227c2 .3 1.9 1.7 1.8 3.2-2.1-.3-1.9-1.8-1.8-3.2z" fill="#347cc0"/><path d="m534.4 230.2c-2-.2-1.9-1.7-1.8-3.1 2 .2 1.9 1.6 1.8 3.1z" fill="#2f9cd7"/><path d="m511.9 255.6c1.4 0 2.9-.1 3 2-1.5 0-3 .2-3-2z" fill="#2fa6df"/><path d="m514.8 257.6c2-.1 2 1.4 2.1 2.8-2.2.2-2-1.4-2.1-2.8z" fill="#3199d5"/><path d="m532.4 260.5c.1-1.4 0-2.9 2.1-2.8-.1 1.3 0 2.9-2.1 2.8z" fill="#3491cf"/><path d="m421.6 270.5c-1.4-.1-2.9 0-2.8-2.1 1.4 0 2.9 0 2.8 2.1z" fill="#185daa"/><path d="m445.1 323.4c-2-.2-1.9-1.6-1.8-3.1 2 .2 1.9 1.7 1.8 3.1z" fill="#08519a"/><path d="m452 335.2c-1.4-.1-2.9 0-2.8-2.1 1.4.1 2.9.1 2.8 2.1z" fill="#1059a8"/><path d="m423.6 329.2c-2.2 0-4.5 0-6.7-.1-.7-.5-.7-1.2-.2-1.8 2.3.7 5.4-1.6 6.9 1.9z" fill="#375790"/><path d="m458 388.1c.1-2.3.2-4.6.3-6.8 2.4 2.3 3 4.7-.3 6.8z" fill="#365791"/><path d="m404.8 329.1c-1.9 0-3.8 0-5.7.1 1-3.5 3.9-1.2 5.9-1.9.5.6.6 1.3-.2 1.8z" fill="#355690"/><path d="m458.3 369.5c-.1-1.9-.2-3.9-.3-5.8 3 1.7 2.8 3.7.3 5.8z" fill="#335896"/><path d="m416.8 327.3c.1.6.1 1.2.2 1.8-1.6 0-3.6.8-4.1-1.7 1.2 0 2.5-.1 3.9-.1z" fill="#313e59"/><path d="m404.8 329.1c0-.6.1-1.2.1-1.8 1.3 0 2.7.1 4 .1-.5 2.5-2.4 1.8-4.1 1.7z" fill="#344562"/><path d="m449.2 403.9c0-2.2 1.5-2 2.9-1.9-.2 1.9-1.6 1.8-2.9 1.9z" fill="#395178"/><path d="m437.3 416.5c.1-1.3-.1-3 2.1-2.8-.1 1.4 0 2.9-2.1 2.8z" fill="#39517c"/><path d="m563 476.6c-.1 1.4-.1 2.8-2.1 2.8.2-1.3-.2-3 2.1-2.8z" fill="#263750"/><path d="m378.4 197.6c.1-1.4.1-2.8 2.1-2.7-.2 1.3.1 2.9-2.1 2.7z" fill="#263c5c"/><path d="m391.4 331.3c-.1 2.2-1.6 1.9-3.1 1.8.1-2.2 1.7-1.9 3.1-1.8z" fill="#3b5d97"/><path d="m449.2 346.9c-.1-.6-.2-1.2-.2-1.9 1.5 0 3-.2 3.1 2-1 .7-2 .7-2.9-.1z" fill="#1f4b8b"/><path d="m449.2 346.9c.9 0 1.9.1 2.8.1 0 .7 0 1.3-.1 2-1.3-.2-2.9 0-2.7-2.1z" fill="#374b6f"/><path d="m445.2 820.9c-.8-4.1 2.2-6.7 4-9.7.7-1.1 2.2-1 2.8-2.1 6.9-9.2 16.4-12.2 27.5-11.6 1.4 1.4 3.7.4 5.2 1.7 8.9.1 20.9 12.6 21.4 21.6 1.9 2 0 5 1.8 7v5.8c-1.1 1.2-.5 3-1.7 4.1-.2 5.9-3.5 10-7.8 13.6-1.1.7-1.1 2.2-2.1 3-3.1 3.4-7.1 5.3-11.6 6-1 .7-2.3.9-3.4 1.6-9.2 1.5-17.1-2.1-24.9-6.2-.3-.2-.3-.9-.4-1.4-1-.8-.9-2.3-2.1-2.9-1.3 0-1.9-.6-1.9-1.9-.6-1.1-2.2-1.1-2.9-2.1-1.8-3-4.8-5.5-4-9.6-1.2-1.1-.6-3-1.7-4.2 0-1.9 0-3.9 0-5.8 1.7-1.9-.1-4.9 1.8-6.9z" fill="#2c2c38"/><path d="m445.2 820.9c-.5 2.4 1.6 5.4-1.8 7 .2-2.4-1.3-5.3 1.8-7z" fill="#263650"/><path d="m507.8 827.9c-3.4-1.6-1.3-4.6-1.8-7 3.1 1.7 1.6 4.6 1.8 7z" fill="#253651"/><path d="m397.1 892.7c-3.4-1.1-1.4-3.9-1.8-6 3.3 1.2 1.3 4 1.8 6z" fill="#1456a0"/><path d="m399.1 856.4c.3-1.8-1.1-4.2 1.9-5-.2 1.8 1.1 4.2-1.9 5z" fill="#175196"/><path d="m454.1 942.7c-1.8-.3-4.2 1.2-5-1.8h4.8c.7.5.7 1.1.2 1.8z" fill="#144b90"/><path d="m484.6 799.3c-1.9-.1-4.2 1.1-5.2-1.7 1.9.1 4.3-1.3 5.2 1.7z" fill="#1b4779"/><path d="m449.1 761.1c-.1-2.2.8-3.2 3-2.9.2 2.2-.8 3.2-3 2.9z" fill="#0b57a6"/><path d="m443.4 833.7c2.5.6 1.7 2.5 1.7 4.2-2.4-.7-1.8-2.5-1.7-4.2z" fill="#243c5d"/><path d="m506.1 837.8c0-1.6-.8-3.6 1.7-4.1.1 1.7.7 3.5-1.7 4.1z" fill="#233c5e"/><path d="m397.2 862.3c0-1.6-.7-3.6 1.9-4-.1 1.5.6 3.5-1.9 4z" fill="#1a5aa4"/><path d="m395.3 868.2c0-1.6-.8-3.6 1.8-4.1-.1 1.7.6 3.6-1.8 4.1z" fill="#124f97"/><path d="m447.2 940.7c-1.6 0-3.6.7-4-1.8 1.5 0 3.5-.8 4 1.8z" fill="#1a5aa6"/><path d="m399 898.6c-2.5-.4-1.8-2.4-1.9-4 2.6.4 1.9 2.4 1.9 4z" fill="#195aa4"/><path d="m454.1 942.7c0-.6-.1-1.2-.1-1.9 1.6.1 3.5-.7 4 1.8-1.3 0-2.6.1-3.9.1z" fill="#1d5dab"/><path d="m532.6 940.8c-.5 2.5-2.5 1.8-4.1 1.8.5-2.5 2.5-1.7 4.1-1.8z" fill="#1a5ba8"/><path d="m507.9 758.3c2.2-.2 2 1.4 2.1 2.7-2.2.3-2-1.4-2.1-2.7z" fill="#71a1d5"/><path d="m511.8 761.2c1.4-.1 2.9-.3 3.1 1.8-1.5.1-3 .3-3.1-1.8z" fill="#95b8e1"/><path d="m418.8 811.3c-.2-2.1 1.4-2 2.8-2.1.1 2-1.4 2-2.8 2.1z" fill="#0e56a3"/><path d="m452 809.1c.1 2.1-1.4 2.1-2.8 2.1-.3-2.3 1.5-1.9 2.8-2.1z" fill="#233855"/><path d="m412.9 824.1c-.1-1.5-.2-2.9 1.8-3.1.1 1.4.2 2.9-1.8 3.1z" fill="#154a8e"/><path d="m449.2 847.5c1.4.1 2.9 0 2.9 2.1-1.4-.2-3.2.2-2.9-2.1z" fill="#233b5b"/><path d="m453.9 851.5c2.1 0 2.1 1.5 2.1 2.9-2.3.2-1.9-1.6-2.1-2.9z" fill="#27334a"/><path d="m496.2 854.4c0-1.5-.1-3 2.1-3-.2 1.4.2 3.2-2.1 3z" fill="#26344a"/><path d="m481.3 862c.3-2.2 1.9-1.7 3.4-1.6-.4 2.1-1.9 1.9-3.4 1.6z" fill="#1b477b"/><path d="m408.9 917.2c-2-.1-2-1.6-1.9-3 2 .1 1.9 1.6 1.9 3z" fill="#0853a0"/><path d="m421.7 928.9c-1.5.1-2.9.1-3.1-1.9 1.5 0 3-.1 3.1 1.9z" fill="#0d4f97"/><path d="m547.3 932.9c-.1 2.1-1.6 2-3 2 0-2.1 1.5-2 3-2z" fill="#1a5dab"/><path d="m798.2 605c-.6 0-1.3 0-1.9-.1.1-1.4.1-2.9 2.1-2.7.7 1 .7 1.9-.2 2.8z" fill="#83afdc"/><path d="m798.2 605c.1-.9.1-1.9.2-2.8h1.9c0 1.4 0 2.9-2.1 2.8z" fill="#3e80c2"/><path d="m766.3 617c-.3 2.1-1.9 1.8-3.3 1.7.3-2.2 1.8-1.9 3.3-1.7z" fill="#a5c1e2"/><path d="m730.7 632.7c-.1 1.4 0 3-2.2 2.7.2-1.4.1-3 2.2-2.7z" fill="#679ed5"/><path d="m703.5 645.5c-.3 2.1-1.8 1.8-3.3 1.7.3-2.2 1.8-1.9 3.3-1.7z" fill="#9cbce2"/><path d="m661.9 665.8c-.6 0-1.3 0-1.9 0 0-1.4.1-2.9 2.1-2.8.6 1 .7 2-.2 2.8z" fill="#9cbce2"/><path d="m661.9 665.8c.1-.9.1-1.9.2-2.8h1.9c-.1 1.5 0 3-2.1 2.8z" fill="#5190cd"/><path d="m640.6 673.9c-.3 2.1-1.8 1.8-3.2 1.7.3-2.1 1.8-1.8 3.2-1.7z" fill="#96b8df"/><path d="m610.1 687.6c-.3 2.1-1.7 1.9-3.2 1.7.3-2 1.7-1.8 3.2-1.7z" fill="#679ed5"/><path d="m591.2 698.2c-.6 0-1.3-.1-1.9-.1.1-1.4 0-3 2.2-2.7.6 1.1.7 2-.3 2.8z" fill="#6e93bb"/><path d="m591.2 698.2c.1-.9.1-1.8.2-2.8h1.9c0 1.5 0 2.9-2.1 2.8z" fill="#17518c"/><path d="m577.9 702.4c-.2 2.3-1.8 1.7-3.2 1.7.2-2.2 1.7-1.9 3.2-1.7z" fill="#85a3c8"/><path d="m607 693.5c1.8.2 4.2-1.2 5 1.8-1.8-.3-4.2 1.2-5-1.8z" fill="#09519c"/><path d="m793.4 616.7c.2-2 1.7-1.9 3.1-1.8-.3 2.1-1.7 2-3.1 1.8z" fill="#1359a8"/><path d="m762.8 630.5c.3-2 1.7-1.9 3.1-1.8-.1 2-1.6 1.9-3.1 1.8z" fill="#154a8e"/><path d="m753.1 635.4c.1-1.4 0-2.9 2.1-2.8-.1 1.4.1 3-2.1 2.8z" fill="#1156a4"/><path d="m730.5 645.2c.2-2 1.7-1.9 3.1-1.8-.2 2-1.6 1.9-3.1 1.8z" fill="#0c509a"/><path d="m684.5 665.8c0-1.4.1-2.9 2.1-2.8-.1 1.4 0 3-2.1 2.8z" fill="#1a5caa"/><path d="m753.3 663.1c-.1.9-.2 1.8-.4 2.7-.6 0-1.2 0-1.8 0 .1-1.5.2-2.9 2.2-2.7z" fill="#2b5698"/><path d="m733.6 673.9c-.3 2.1-1.8 1.8-3.2 1.7.2-2.1 1.7-1.9 3.2-1.7z" fill="#6789b9"/><path d="m684.6 695.5c-.1 1.4-.1 2.9-2.2 2.7.2-1.3-.1-3 2.2-2.7z" fill="#547cb1"/><path d="m671 702.3c-.2 2.1-1.7 1.9-3.2 1.7.3-2 1.7-1.8 3.2-1.7z" fill="#265a9b"/><path d="m766 799.5c-.3 2-1.7 1.9-3.2 1.7.3-2 1.8-1.8 3.2-1.7z" fill="#c0cad9"/><path d="m733.7 813.3c-.3 2-1.7 1.9-3.1 1.7.2-2 1.6-1.9 3.1-1.7z" fill="#b0bdd0"/><path d="m715.1 821.1c-.1 1.4 0 2.9-2.2 2.7.1-1.4 0-2.9 2.2-2.7z" fill="#b0bdd0"/><path d="m703.2 828c-.3 2.1-1.8 1.9-3.2 1.7.3-2.1 1.8-1.8 3.2-1.7z" fill="#d6dde9"/><path d="m670.8 841.7c-.3 2.1-1.7 1.9-3.2 1.7.3-2 1.8-1.8 3.2-1.7z" fill="#cbd4e2"/><path d="m646.4 851.5c-.1 1.4-.1 2.9-2.1 2.8 0-1.4 0-2.9 2.1-2.8z" fill="#98a9c4"/><path d="m421.7 344.8c3.9.9 7.5 2.3 9.8 6 .6.8 1.4 1.5 2.4 1.9.6.3 1 .7 1.4 1.2 1.5 4.1 5.6 6.9 6 11.6 1.7 1.7.2 4.3 1.8 6v7.7c-1.2 1.3-.7 2.9-.9 4.4 0 .9-.2 1.8-.8 2.6-3.2 9.9-9.8 16.5-19.7 19.7-1.5 1.3-3.7.3-5.1 1.7-12.6 1.5-22.8-3.3-31.4-11.9-2.5-2.5-4.3-5.8-4.9-9.5-.6-.8-.8-1.6-.8-2.6-.1-1.5.3-3.1-.9-4.4 0-3.2 0-6.4.1-9.6 1-1.2.5-3 1.7-4.1.3-4.8 4.1-7.7 6-11.6.9-.8.9-2.3 2-3 .7-1.1 2.2-1.1 3.1-2 7.8-4.6 16.1-7 25.2-5.9 1.3 1.5 3.6.5 5 1.8z" fill="#8495b2"/><path d="m443.1 371.5c-3.1-1.3-1.5-3.9-1.8-6 3.1 1.3 1.6 3.9 1.8 6z" fill="#5f687f"/><path d="m416.6 407.7c1-2.8 3.2-1.6 5.1-1.7-.9 2.9-3.3 1.5-5.1 1.7z" fill="#495062"/><path d="m421.7 344.8c-1.9-.1-4.1 1-5.1-1.7 1.9.1 4.2-1.3 5.1 1.7z" fill="#4a5062"/><path d="m380.4 365.5c0 1.6.8 3.5-1.7 4.1-.2-1.7-.7-3.5 1.7-4.1z" fill="#616a80"/><path d="m378.6 379.2c2.4.6 1.7 2.5 1.7 4.1-.6.5-1.2.5-1.7-.2 0-1.3 0-2.6 0-3.9z" fill="#69758d"/><path d="m441.3 383.3c0-1.6-.7-3.5 1.7-4.1v3.9c-.4.7-1 .7-1.7.2z" fill="#68738c"/><path d="m378.6 383.1c.6.1 1.2.1 1.7.2 0 1-.1 2-.1 2.9-1.9-.2-1.7-1.7-1.6-3.1z" fill="#4a5062"/><path d="m441.3 383.3c.6-.1 1.2-.1 1.7-.2.2 1.4.4 2.9-1.7 3.1.1-.9.1-1.9 0-2.9z" fill="#4a4f61"/><path d="m391.4 349c0 2.2-1.7 1.8-3.1 2 .1-2.3 1.6-2.1 3.1-2z" fill="#393b4a"/><path d="m388.4 350.9c-.1 1.4.2 3-2 3-.1-1.5-.2-3 2-3z" fill="#3d404f"/><path d="m433.5 353.7c-2.1 0-2.1-1.5-2-3 .6 0 1.2.1 1.8.1.9 1 .9 1.9.2 2.9z" fill="#7a89a4"/><path d="m433.5 353.7c-.1-1-.1-1.9-.2-2.9 2.2 0 2.1 1.5 2 3-.6.1-1.2 0-1.8-.1z" fill="#3c3f4e"/><path d="m672.8 854.4c1.6.2 3.6-.7 3.9 1.9-1.6-.1-3.6.7-3.9-1.9z" fill="#d9e2ef"/><path d="m730.6 835.7c.1-2 1.6-2 3-1.9-.1 2-1.5 2-3 1.9z" fill="#d8e2ef"/><path d="m733.6 687.5c-.1 2-1.6 2-3 1.9.2-1.9 1.6-1.9 3-1.9z" fill="#9aa9c8"/><path d="m715 695.4c0 1.4 0 2.9-2 2.9 0-1.4-.1-2.9 2-2.9z" fill="#97a7c7"/><path d="m391.4 505.1c4-.4 8-.5 11.6 1.9 1.1.6 1 2.2 2.1 2.8 4.8 3.6 7.4 10.8 5.5 16.1-2.6 6.8-6.8 10.6-13.8 11.4-1.8.2-3.6-.1-5.4-.1-1-.7-2.2-.9-3.2-1.6-6-1.1-8.3-5.8-9.4-10.7-1.2-5.8 0-11.4 5.5-15 1.1-.6 1-2.2 2.1-2.8.6-.1 1.2-.2 1.7-.3 1-.8 2.3-.9 3.3-1.7z" fill="#8494b2"/><path d="m391.4 505.1c-.3 2.1-1.8 1.8-3.2 1.6.2-2.1 1.7-1.8 3.2-1.6z" fill="#5e687e"/><path d="m386.4 507c-.1 1.4 0 2.9-2.1 2.8.1-1.4-.2-3.1 2.1-2.8z" fill="#616a81"/><path d="m405 509.8c-2.1.1-2-1.4-2.1-2.8 2.3-.2 2 1.4 2.1 2.8z" fill="#5f697f"/><path d="m388.2 535.5c1.4-.2 2.9-.5 3.2 1.6-1.5.2-3 .6-3.2-1.6z" fill="#5e667b"/><path d="m492.2 826c.7 7.3-1.2 13.5-7.8 17.6-1.3 1.5-3.7.3-5 1.9-7.8.5-14.1-1.3-18.1-9.3-4.5-9.2 2.2-23.7 14.2-23 1.3.1 2.6 0 3.9 0 1.3 1.5 3.6.4 5 1.9 2.5 1.5 4.4 3.5 5.9 5.9 1.6 1.3.4 3.7 1.9 5z" fill="#8494b2"/><path d="m479.4 845.5c.9-2.6 3.2-1.7 5-1.9-.7 3.1-3.2 1.6-5 1.9z" fill="#3b3d4c"/><path d="m484.4 815.1c-1.8-.1-4.1.7-5-1.9 1.8.3 4.3-1.2 5 1.9z" fill="#3c3f4e"/><path d="m492.2 826c-2.7-.9-1.7-3.2-1.9-5 3.1.7 1.7 3.2 1.9 5z" fill="#3b3e4d"/></svg>