<svg enable-background="new 0 0 3710 3710" viewBox="0 0 3710 3710" xmlns="http://www.w3.org/2000/svg" xmlns:xlink="http://www.w3.org/1999/xlink"><linearGradient id="a" gradientUnits="userSpaceOnUse" x1="3610.8569" x2="1119.3824" y1="4081.4114" y2="987.1564"><stop offset="0" stop-color="#dae3fe"/><stop offset="1" stop-color="#e9effd"/></linearGradient><linearGradient id="b"><stop offset="0" stop-color="#e1473d"/><stop offset="1" stop-color="#e9605a"/></linearGradient><linearGradient id="c" gradientUnits="userSpaceOnUse" x1="1604.3" x2="2145.6653" xlink:href="#b" y1="2801.6663" y2="985.3105"/><linearGradient id="d" gradientUnits="userSpaceOnUse" x1="1931.3286" x2="2260.1951" xlink:href="#b" y1="1455.3262" y2="165.1602"/><linearGradient id="e" gradientUnits="userSpaceOnUse" x1="1252.835" x2="1387.7605" xlink:href="#b" y1="2794.0791" y2="905.1134"/><linearGradient id="f"><stop offset="0" stop-color="#09005d"/><stop offset="1" stop-color="#1a0f91"/></linearGradient><linearGradient id="g" gradientTransform="matrix(-1 0 0 1 2745.8667 0)" gradientUnits="userSpaceOnUse" x1="174.0684" x2="-429.7836" xlink:href="#f" y1="3100.7148" y2="3757.5371"/><linearGradient id="h"><stop offset="0" stop-color="#febbba"/><stop offset="1" stop-color="#ff928e"/></linearGradient><linearGradient id="i" gradientTransform="matrix(-1 0 0 1 2745.8667 0)" gradientUnits="userSpaceOnUse" x1="-21.9324" x2="31.704" xlink:href="#h" y1="3149.4983" y2="3149.4983"/><linearGradient id="j"><stop offset="0" stop-color="#4f52ff"/><stop offset="1" stop-color="#4042e2"/></linearGradient><linearGradient id="k" gradientTransform="matrix(-1 0 0 1 2745.8667 0)" gradientUnits="userSpaceOnUse" x1="-30.5055" x2="-55.8022" xlink:href="#j" y1="1682.9374" y2="2593.6411"/><linearGradient id="l" gradientTransform="matrix(-1 0 0 1 2745.8667 0)" gradientUnits="userSpaceOnUse" x1="38.6036" x2="-565.2474" xlink:href="#f" y1="2976.1758" y2="3632.9968"/><linearGradient id="m" gradientTransform="matrix(-1 0 0 1 2745.8667 0)" gradientUnits="userSpaceOnUse" x1="-215.2402" x2="-168.9295" xlink:href="#h" y1="3146.7476" y2="3146.7476"/><linearGradient id="n" gradientTransform="matrix(-1 0 0 1 2745.8667 0)" gradientUnits="userSpaceOnUse" x1="-117.9437" x2="-143.2404" xlink:href="#j" y1="1680.5083" y2="2591.2144"/><linearGradient id="o" gradientTransform="matrix(-1 0 0 1 2745.8667 0)" gradientUnits="userSpaceOnUse" x1="-336.7529" x2="507.2291" xlink:href="#j" y1="2250.7056" y2="1643.3199"/><linearGradient id="p" gradientTransform="matrix(-1 0 0 1 2745.8667 0)" gradientUnits="userSpaceOnUse" x1="198.7832" x2="472.8052" xlink:href="#h" y1="1750.1741" y2="1750.1741"/><linearGradient id="q" gradientUnits="userSpaceOnUse" x1="2333.335" x2="2513.8701" xlink:href="#h" y1="1702.4894" y2="2113.248"/><linearGradient id="r" gradientTransform="matrix(-1 0 0 1 2745.8667 0)" gradientUnits="userSpaceOnUse" x1="-447.9668" x2="396.0133" xlink:href="#j" y1="2096.1699" y2="1488.7856"/><linearGradient id="s" gradientTransform="matrix(-1 0 0 1 2745.8667 0)" gradientUnits="userSpaceOnUse" x1="-400.8337" x2="-54.0573" xlink:href="#h" y1="2138.3191" y2="2138.3191"/><linearGradient id="t" gradientTransform="matrix(-1 0 0 1 2745.8667 0)" gradientUnits="userSpaceOnUse" x1="-134.5571" x2="2.5469" xlink:href="#h" y1="1767.5924" y2="1767.5924"/><linearGradient id="u" gradientTransform="matrix(-.746 -.6659 -.6659 .746 -2380.4685 -803.1727)" gradientUnits="userSpaceOnUse" x1="-5452.144" x2="-5503.3784" xlink:href="#h" y1="-1537.5883" y2="-1706.5718"/><linearGradient id="v" gradientTransform="matrix(-.746 -.6659 -.6659 .746 -2380.4685 -803.1727)" gradientUnits="userSpaceOnUse" x1="-5498.3677" x2="-5455.5103" xlink:href="#f" y1="-1832.016" y2="-1587.5714"/><linearGradient id="w" gradientTransform="matrix(-.746 -.6659 -.6659 .746 -2380.4685 -803.1727)" gradientUnits="userSpaceOnUse" x1="-5504.5186" x2="-5550.6143" xlink:href="#h" y1="-1538.3757" y2="-1690.411"/><linearGradient id="x"><stop offset="0" stop-color="#2b3582"/><stop offset="1" stop-color="#150e42"/></linearGradient><linearGradient id="y" gradientUnits="userSpaceOnUse" x1="2699.4829" x2="2821.3923" xlink:href="#x" y1="1747.3403" y2="1747.3403"/><linearGradient id="z" gradientUnits="userSpaceOnUse" x1="2256.7383" x2="2721.0076" xlink:href="#x" y1="1751.7352" y2="1751.7352"/><linearGradient id="A" gradientUnits="userSpaceOnUse" x1="2720.553" x2="2161.8274" xlink:href="#f" y1="1959.364" y2="2868.918"/><linearGradient id="B" gradientTransform="matrix(-1 0 0 1 2745.8667 0)" gradientUnits="userSpaceOnUse" x1="-79.8035" x2="28.2319" xlink:href="#h" y1="2101.9597" y2="2101.9597"/><linearGradient id="C" gradientUnits="userSpaceOnUse" x1="2229.864" x2="2290.3599" xlink:href="#f" y1="1555.7683" y2="1555.7683"/><linearGradient id="D" gradientTransform="matrix(-.9769 .2135 .2135 .9769 2888.0393 -355.333)" gradientUnits="userSpaceOnUse" x1="1004.228" x2="1080.9556" xlink:href="#h" y1="1765.1608" y2="1647.192"/><path d="m2925.4 2861.1c-57.2 60.2-111.4 99.1-154.2 129.8-502.9 360.8-1097.9 255.7-1224.4 230-186.8-37.9-547.7-111.2-808.7-418.2-394.8-464.3-333.3-1195.8-27.1-1678.7 56-88.3 351.9-578.6 953.4-657.2 364-47.6 788.3 48.4 1095.6 305.8 645 540.3 599.1 1632 165.4 2088.5z" fill="url(#a)"/><path d="m2544.1 1687.3c-.2 0-.5 0-.7 0-7.3-.4-13.2-6.2-13.4-13.5l-13.6-432-31.9 213.1c-1 7-7.3 12.1-14.4 11.9-7.2-.2-13-5.7-13.6-12.8l-27-314.1-34.8 372.3c-.6 6.2-5.2 11.2-11.3 12.4s-12.4-1.8-15.2-7.3l-93.6-177.9h-944l-56.8 308.6c-1.2 6.8-7.3 11.6-14.3 11.5-7-.2-12.8-5.3-13.6-12.2l-74-565.3-73 217c-2.1 6.4-8.6 10.3-15.3 9.4s-11.9-6.4-12.2-13.1l-15-265.3-83.4 474.4c-1.1 6.5-6.7 11.3-13.3 11.6s-12.6-4.1-14.3-10.4l-63.5-240.5-54.8 107.5c-2.4 4.7-7.3 7.7-12.6 7.7h-214.1c-7.8 0-14.1-6.3-14.1-14s6.3-14 14.1-14h205.2l67.8-132.9c2.6-5.2 8.3-8.2 14.1-7.6s10.7 4.7 12.2 10.4l56.5 214 93.3-531.3c1.2-7 7.6-12 14.7-11.6 7.2.4 12.9 6.1 13.3 13.2l17.7 314.1 69.2-205.4c2.1-6.2 8.2-10.1 14.8-9.5s11.8 5.6 12.7 12.1l70.2 536.8 42.6-231.7c1.2-6.6 7.1-11.5 13.9-11.5h964.4c5.3 0 10.1 2.9 12.5 7.5l75.4 143.3 45-481.8c.7-7.2 6.8-12.7 14.1-12.7h.1c7.3 0 13.4 5.6 14 12.8l30.2 351.5 37.3-249.1c1.1-7.2 7.4-12.3 14.8-11.9 7.3.4 13.1 6.3 13.3 13.5l13.2 418.1 39.7-294.4c.9-6.9 6.9-12.1 14-12.1 7.1 0 13.1 5.2 14 12.2l29.5 228.3 27.8-107.5c1.5-6 6.8-10.2 13-10.5 6.3-.3 11.9 3.5 14 9.3l91.5 254.7 95.8-252.5c2.1-5.5 7.3-9.1 13.2-9.1h199.2c7.8 0 14.1 6.3 14.1 14s-6.3 14-14.1 14h-189.4l-105.9 279.3c-2.1 5.5-7.4 9-13.3 9.1-5.9-.1-11.2-3.8-13.2-9.3l-89-247.6-34.7 133.9c-1.7 6.5-7.8 10.9-14.6 10.5s-12.3-5.5-13.1-12.2l-25.2-194.7-48.2 357.1c-.9 7.1-6.9 12.2-13.9 12.2z" fill="#91b3fa"/><path d="m2659.3 2753.9c-.3 0-.5 0-.8 0-7.7-.4-13.8-6.5-14-14.1l-14.3-452.3-33.4 223.1c-1.1 7.3-7.7 12.7-15.1 12.5-7.5-.2-13.6-6-14.3-13.4l-28.3-328.9-36.4 389.8c-.6 6.5-5.4 11.8-11.9 13-6.4 1.2-12.9-1.8-16-7.6l-98-186.2h-1177.5l-59.4 323.1c-1.3 7.1-7.7 12.2-14.9 12-7.3-.2-13.4-5.6-14.3-12.7l-77.4-591.9-76.5 227.2c-2.2 6.7-9 10.8-16 9.9s-12.4-6.7-12.8-13.7l-15.7-277.8-87.3 496.6c-1.2 6.8-7 11.8-14 12.1-6.9.3-13.2-4.3-14.9-10.9l-66.4-251.8-57.4 112.6c-2.5 4.9-7.6 8-13.2 8h-114.5c-8.2 0-14.8-6.5-14.8-14.6s6.6-14.6 14.8-14.6h105.4l71-139.1c2.8-5.4 8.7-8.6 14.8-8s11.2 5 12.7 10.8l59.1 224.1 97.7-556.2c1.3-7.3 7.9-12.5 15.4-12.1s13.5 6.4 13.9 13.8l18.6 328.9 72.4-215.1c2.2-6.5 8.6-10.6 15.5-9.9s12.4 5.9 13.2 12.7l73.5 562 44.6-242.6c1.3-7 7.4-12 14.5-12h1198.9c5.5 0 10.6 3 13.1 7.9l78.9 150 47.1-504.5c.7-7.5 7.1-13.3 14.7-13.3h.1c7.7 0 14 5.8 14.7 13.4l31.6 368 39.1-260.8c1.1-7.5 7.7-12.9 15.5-12.5 7.6.4 13.7 6.6 13.9 14.1l13.8 437.8 41.6-308.2c1-7.3 7.2-12.7 14.7-12.7 7.4 0 13.7 5.5 14.6 12.8l30.9 239 29.2-112.5c1.6-6.2 7.2-10.7 13.7-11 6.6-.3 12.4 3.7 14.6 9.7l95.8 266.7 100.3-264.4c2.2-5.7 7.7-9.5 13.8-9.5h128.8c8.2 0 14.8 6.5 14.8 14.6s-6.6 14.6-14.8 14.6h-118.5l-110.8 292.4c-2.2 5.8-7.8 9.4-14 9.5-6.2-.1-11.7-3.9-13.8-9.7l-93.2-259.2-36.3 140.1c-1.8 6.8-8.2 11.4-15.2 11-7.1-.4-12.9-5.8-13.8-12.7l-26.4-203.8-50.4 373.9c-1 7.2-7.3 12.6-14.6 12.6z" fill="#91b3fa"/><path d="m1018.6 1868.7s-117.3 289.7 15.7 455.4c132.9 165.7 510.4 395.4 775.5 570.1s448.8 158.3 545.6 91 174.7-360.2 179.6-466.9 99.1-977.2-261.1-1056.8c0 0 11.5-42.7 57.4-23 46 19.7 107.5 66.4 107.5 66.4s187.9-137.1 95.1-285.5c0 0-363.5-135.3-511.2-123.8s-338 297.1-450.4 384.9c-112.3 87.8-484 288.9-553.7 388.2z" fill="url(#c)"/><path d="m1557.6 1324.6s122.7 147.7 214 169.8 105.2-73.9 119.2-122.3c13.9-48.4 93.5-408.6 276.4-343.8l22.2 43.5s114.9 96.8 249.4 4.9c0 0 61.5-286.4-105.9-371.7-167.5-85.3-612.2-221.4-775.3 619.6z" fill="url(#d)"/><path d="m1523 691.2s-137 383.2-247.7 498.9-372.4 329.9-389.6 750.8 89.5 283.1 133.8 179.7 437.3-417.7 616.9-503.9c179.7-86.2 178-209.3 41-254.4s-128.8-96-60.8-270.8c68.1-174.8 182.1-377.5 182.1-377.5s-50.9-198.4-275.7-22.8z" fill="url(#e)"/><path d="m1803.8 1630.6s-424.2 165-348.6 734.4 64 183.8 28.7 12.3 21.3-303.6 73.8-315.1-61.5 381.5 41.1 507.1c102.6 125.5-32.8-129.6 1.6-352.8 31.7-205.6-20.6-396.3 203.4-585.9z" fill="#fff" opacity=".48"/><path d="m2077.8 1530.5s295.4-70.6 358.6 289.6-80.3 536.6-113.9 726.2c-33.6 189.5 61.5-286.4 71.3-452.1s49.2-305.2-57.5-357.7-232.2 288-331.4 361.1c-99.3 73-32.8-34.5 96-224 128.7-189.7 360.1-301.4-23.1-343.1z" fill="#fff" opacity=".48"/><path d="m2762.7 3149.6s6.3 35.4 9.3 70.4c1.2 13.7-9.4 25.6-23.1 26.2-46.7 1.9-146.5 5.7-182.3 4.1-5.4-.2-8.9-5.8-6.9-10.8 1.7-4.2 4.9-7.6 9-9.5l164.9-75.8z" fill="url(#g)"/><path d="m2767.8 3128.8-5 42.3s-28.9 13.4-48.6-1.7l12-47.2z" fill="url(#i)"/><path d="m2764 2332.7c2.2 11.1 11.6 551.8-46.2 794.2-.9 4 1.1 8 4.8 9.6 8.9 3.6 26.2 8.9 47.1 9.6 6.5.2 12.2-4 14.1-10.2 16.5-56.2 95.7-337.9 106-607.1 11.5-300.7 0-10.2 0-10.2l-6.8-185.9z" fill="url(#k)"/><path d="m2952.4 3168.1s10 17.9 19.6 65.4c1.7 8.6-4.3 16.8-13 17.6-15.4 1.5-39.1 3.5-58.1 3.3-8.8-.1-15.6-7.7-14.5-16.4 2.1-17.3 8.7-45.8 28.9-67.9z" fill="url(#l)"/><path d="m2961.1 3113.6-11.7 64s-11.6 8.6-34.6 2.4l5.6-68.9z" fill="url(#m)"/><path d="m2992.8 2349.3c47.3 285.3-10.3 705.2-29.7 787.4-1.2 5-5.2 8.9-10.3 9.7-8.7 1.4-22.9 2.6-37-1.5-4.8-1.4-8.2-5.8-8.4-10.8-2.6-66.4 2.1-474.3-42-635.5-2.2-8.2-7.2-15.3-14.1-20.2l-85.5-60.8-6.6-98.3z" fill="url(#n)"/><path d="m2691.6 1808.7c141.7-2.3 298 37.2 298 37.2 42.2 246.4 7.4 530.7 7.4 530.7-109.7 28.8-233.4-17.6-233.4-17.6-18.2-103-103.3-392.9-103.3-392.9-69.2-8.6-126.3-28.6-173.2-55 35.8-41.5 52.7-94.4 60-125.6 50.1 15.6 100.8 23.9 144.5 23.2z" fill="url(#o)"/><path d="m2273.1 1600c13.9-16.8 31.5-8.9 31.5-8.9 20.8 88.1 130.2 159.5 242.5 194.4-7.3 31.2-24.2 84.1-60 125.6-186.5-104.8-214-311.1-214-311.1z" fill="url(#p)"/><path d="m2302.2 1541.7c-11.7-16-27.8-33.5-42.9-48.8-6.6 0-16.5 6.9-16.5 6.9-5.7 10.3-12.6 18.9-15.9 31.4-2.5 9.4-1 19.5 3.8 28 4.8 8.6 11.3 19.8 17.4 28.5 11.6 16.5 28.2 16.7 28.2 16.7-1.5 4.6 15.4 11.7 25.3-7.3.5-9.2 6-48.1.6-55.4z" fill="url(#q)"/><path d="m2935.2 1983.1 54.3-137.2s132.3 89.9 154.1 203.9c-25 1.8-70.5 8.3-115 30.8-9.7-53.8-93.4-97.5-93.4-97.5z" fill="url(#r)"/><path d="m2819.6 2112.2s148.6 84 198.7 12.3c10.4-14.9 12.9-29.7 10.3-43.8 44.5-22.5 90-29 115-30.8 6.6 34.4 3.1 70.9-17.1 107.9-87.8 160.6-326.7-8.9-326.7-8.9z" fill="url(#s)"/><path d="m2835.1 1693.6 45.1 130.4c.7 2.2-.1 4.6-2.1 5.7-12.3 6.8-56.6 26.4-109.9-7.4-5.6-3.5-9.3-9.3-10.2-15.8l-14.6-112.8h91.7z" fill="url(#t)"/><path d="m2737 1572.9s-49.5 93.2-43.2 130.8 67.7 34.9 121.3 4.4l37.4-100.6z" fill="url(#u)"/><path d="m2812.7 1658.7c-2.2-1-3-3.6-1.7-5.6 4-6.1 11.4-18.4 13.8-29.2 0 0 8.9-5.7-22.7-13.3-31.5-7.6-78.6-19.3-88.5-46.1-9.6-26.2 15.7-92 56.1-39.6 1.5 2 4.6 2 6.1 0 6.6-8.6 24-26.5 48.2-15.7 22.6 10.2 25.2 26.7 24.9 35.1-.1 2.5 2.1 4.4 4.5 3.9 11.4-2.2 38.9-4.1 51.7 24.1 10.6 23.2 3.7 36.3-2.6 42.8-2 2.1-1.1 5.5 1.6 6.4 7.5 2.3 17.2 8.7 16.3 26.3-1.3 24.4-28.6 22.2-36.3 21.1-1.3-.2-2.6.3-3.4 1.2-6.6 7.4-36.6 38.6-69 42.4-2.8.3-5-2.4-4.1-5.1l14-40.8c.7-1.9-.3-4-2.1-4.8z" fill="url(#v)"/><path d="m2807.1 1664.5s35.2-24.2 37.8-3.8-31.7 29.5-48.7 21.9z" fill="url(#w)"/><path d="m2730.6 1828c-11.4 0-19.9-4-25.1-12-17.2-26 8-86 9-88.5.7-1.7 2.7-2.5 4.4-1.8s2.5 2.7 1.8 4.4c-.3.6-24.9 59.1-9.6 82.2 4 6 10.4 8.9 19.5 8.9 70 0 83.9-150 84-151.5.2-1.9 1.9-3.2 3.7-3.1 1.9.2 3.2 1.8 3.1 3.7 0 .4-3.5 39.5-16.1 78.1-17 52.1-42.8 79.6-74.7 79.6z" fill="url(#y)"/><path d="m2569.5 1930.9c-10.6 0-22-.7-34.2-2.1-94.6-11.1-172.9-75.7-226.1-186.7-40.1-83.5-52.3-164.8-52.4-165.7-.3-1.8 1-3.6 2.8-3.8 1.9-.3 3.6 1 3.8 2.8.1.8 12.2 81.3 51.9 163.9 36.4 75.8 104.3 169.1 220.8 182.8 65.8 7.7 117.5-6.8 149.4-42.1 24.1-26.6 28.7-55.6 28.8-55.9.3-1.8 2-3.1 3.8-2.8s3.1 2 2.8 3.8c-.1 1.2-17.7 105.8-151.4 105.8z" fill="url(#z)"/><path d="m2837.4 2218.4-81.1-283.2c-.9-3.2-3.7-5.6-7-5.9-14.7-1.7-57.3-6.5-106.4-10.7-59.2-5-128-9.1-169.1-5.6-5.8.5-9.4 6.7-6.8 11.9 23.4 47.3 119.5 239.6 167.6 302.5 1.6 2.1 4.1 3.3 6.7 3.3l188.1-1.8c5.6 0 9.5-5.2 8-10.5z" fill="url(#A)"/><path d="m2634.5 1894-58.8-9.8c-3.1-.5-5.7 2.5-4.7 5.5l5.8 17.6c.5 1.5 1.8 2.6 3.4 2.9l56.6 7.6c2.9.4 5.3-2.3 4.7-5.1l-3.6-15.4c-.3-1.7-1.7-3-3.4-3.3z" fill="#91b3fa"/><path d="m2678.6 1943.8-4.8-25.2c-.5-2.5-2.6-4.4-5.1-4.7l-118.7-12c-4-.4-7.2 3.3-6.3 7.2l7.6 31.4c.6 2.5 2.8 4.3 5.4 4.5l116 5.8c3.6.1 6.6-3.3 5.9-7z" fill="#91b3fa"/><path d="m2817.8 2150s11.3-46.4 6.7-62.9-13.4-37.7-42.8-33-64.1 17.1-64.1 17.1 1.8 21.5 24.1 14.5l-13.9 10.7s2 17.2 20.9 8l-12.9 14.2s8.1 14.1 22 5.1c14-9 20.6 31.9 60 26.3z" fill="url(#B)"/><path d="m2290.4 1555.8c0 24.1-13.5 43.7-30.2 43.7s-30.2-19.6-30.2-43.7 13.5-43.7 30.2-43.7c16.6 0 30.2 19.5 30.2 43.7z" fill="url(#C)"/><path d="m2254.7 1541.9 28.7 15.2 12.1 18.8-16.3 28.6s-16.1-38.9-23.4-46.5c-7.5-7.6-5.6-12.4-1.1-16.1z" fill="url(#D)"/></svg>